SplineFontDB: 3.2
FontName: notosanstelugu
FullName: notosanstelugu
FamilyName: notosanstelugu
Weight: Regular
Copyright: Copyright 2022 The Noto Project Authors (https://github.com/notofonts/telugu)
Version: 2.005
ItalicAngle: 0
UnderlinePosition: -125
UnderlineWidth: 50
Ascent: 800
Descent: 200
InvalidEm: 0
sfntRevision: 0x00020148
LayerCount: 2
Layer: 0 1 "Back" 1
Layer: 1 1 "Fore" 0
XUID: [1021 238 -758118090 7259723]
StyleMap: 0x0040
FSType: 0
OS2Version: 4
OS2_WeightWidthSlopeOnly: 0
OS2_UseTypoMetrics: 1
CreationTime: 1554112134
ModificationTime: 1738533553
PfmFamily: 81
TTFWeight: 400
TTFWidth: 5
LineGap: 0
VLineGap: 0
Panose: 0 0 0 0 0 0 0 0 0 0
OS2TypoAscent: 869
OS2TypoAOffset: 0
OS2TypoDescent: -483
OS2TypoDOffset: 0
OS2TypoLinegap: 0
OS2WinAscent: 995
OS2WinAOffset: 0
OS2WinDescent: 483
OS2WinDOffset: 0
HheadAscent: 869
HheadAOffset: 0
HheadDescent: -483
HheadDOffset: 0
OS2SubXSize: 650
OS2SubYSize: 600
OS2SubXOff: 0
OS2SubYOff: 75
OS2SupXSize: 650
OS2SupYSize: 600
OS2SupXOff: 0
OS2SupYOff: 350
OS2StrikeYSize: 50
OS2StrikeYPos: 300
OS2CapHeight: 620
OS2XHeight: 500
OS2Vendor: 'GOOG'
OS2CodePages: 00000093.00000000
OS2UnicodeRanges: 80208003.00002042.00000000.00000000
Lookup: 1 0 0 "'aalt' Access All Alternates lookup 0" { "'aalt' Access All Alternates lookup 0 subtable"  } ['aalt' ('DFLT' <'dflt' > 'cyrl' <'dflt' > 'dev2' <'dflt' > 'grek' <'dflt' > 'latn' <'APPH' 'CAT ' 'IPPH' 'MAH ' 'MOL ' 'NAV ' 'ROM ' 'dflt' > 'tel2' <'dflt' > ) ]
Lookup: 6 8 0 "Contextual Chaining Substitution lookup 1" { "Contextual Chaining Substitution lookup 1 subtable"  } []
Lookup: 1 8 0 "Single Substitution lookup 2" { "Single Substitution lookup 2 subtable"  } []
Lookup: 1 8 0 "Single Substitution lookup 3" { "Single Substitution lookup 3 subtable"  } []
Lookup: 1 8 0 "Single Substitution lookup 4" { "Single Substitution lookup 4 subtable"  } []
Lookup: 1 8 0 "Single Substitution lookup 5" { "Single Substitution lookup 5 subtable"  } []

StartChar: .notdef
Encoding: 65536 -1 0
Width: 600
Flags: W
LayerCount: 2
Fore
SplineSet
94 0 m 1,0,-1
 94 714 l 1,1,-1
 505 714 l 1,2,-1
 505 0 l 1,3,-1
 94 0 l 1,0,-1
145 51 m 1,4,-1
 454 51 l 1,5,-1
 454 663 l 1,6,-1
 145 663 l 1,7,-1
 145 51 l 1,4,-1
EndSplineSet
EndChar

StartChar: uni0C00
Encoding: 3072 3072 4
Width: 0
GlyphClass: 4
Flags: W
AnchorPoint: "Anchor-10" -286 537 mark 0
AnchorPoint: "Anchor-6" -286 537 mark 0
AnchorPoint: "Anchor-3" -286 537 mark 0
AnchorPoint: "Anchor-0" -286 537 mark 0
LayerCount: 2
Fore
SplineSet
-286 598 m 0,0,1
 -370 598 -370 598 -415 638.5 c 128,-1,2
 -460 679 -460 679 -460 753 c 0,3,4
 -460 767 -460 767 -458 781.5 c 128,-1,5
 -456 796 -456 796 -452 808 c 1,6,-1
 -384 794 l 1,7,8
 -387 784 -387 784 -388 773.5 c 128,-1,9
 -389 763 -389 763 -389 755 c 0,10,11
 -389 719 -389 719 -374.5 699 c 128,-1,12
 -360 679 -360 679 -336 671 c 128,-1,13
 -312 663 -312 663 -286 663 c 0,14,15
 -258 663 -258 663 -235 672 c 128,-1,16
 -212 681 -212 681 -197.5 701.5 c 128,-1,17
 -183 722 -183 722 -183 757 c 0,18,19
 -183 765 -183 765 -184 774.5 c 128,-1,20
 -185 784 -185 784 -188 794 c 1,21,-1
 -119 808 l 1,22,23
 -116 796 -116 796 -114 781 c 128,-1,24
 -112 766 -112 766 -112 753 c 0,25,26
 -112 680 -112 680 -158.5 639 c 128,-1,27
 -205 598 -205 598 -286 598 c 0,0,1
-287 705 m 256,28,29
 -309 705 -309 705 -323 719 c 128,-1,30
 -337 733 -337 733 -337 756 c 0,31,32
 -337 777 -337 777 -323 791.5 c 128,-1,33
 -309 806 -309 806 -287 806 c 256,34,35
 -265 806 -265 806 -250.5 791.5 c 128,-1,36
 -236 777 -236 777 -236 756 c 0,37,38
 -236 733 -236 733 -250.5 719 c 128,-1,39
 -265 705 -265 705 -287 705 c 256,28,29
EndSplineSet
Substitution2: "Single Substitution lookup 58 subtable" rapostscripttelu
Substitution2: "Single Substitution lookup 57 subtable" rephtelu
Substitution2: "Single Substitution lookup 56 subtable" candrabindutelu
Substitution2: "Single Substitution lookup 55 subtable" anusvaratelu
Substitution2: "Single Substitution lookup 54 subtable" visargatelu
Substitution2: "Single Substitution lookup 45 subtable" uni1CF2
EndChar

StartChar: candrabindutelu
Encoding: 3073 3073 5
Width: 298
Flags: W
LayerCount: 2
Fore
SplineSet
33 208 m 0,0,1
 33 278 33 278 64 327 c 128,-1,2
 95 376 95 376 150.5 402 c 128,-1,3
 206 428 206 428 278 428 c 2,4,-1
 282 428 l 1,5,-1
 282 352 l 1,6,7
 205 352 205 352 160 316 c 128,-1,8
 115 280 115 280 115 207 c 0,9,10
 115 144 115 144 155.5 104 c 128,-1,11
 196 64 196 64 282 64 c 1,12,-1
 282 -12 l 1,13,-1
 279 -12 l 2,14,15
 205 -12 205 -12 149.5 14.5 c 128,-1,16
 94 41 94 41 63.5 90 c 128,-1,17
 33 139 33 139 33 208 c 0,0,1
EndSplineSet
Substitution2: "Single Substitution lookup 53 subtable" uni0C00
Substitution2: "Single Substitution lookup 52 subtable" uni0951
Substitution2: "Single Substitution lookup 51 subtable" uni0952
Substitution2: "Single Substitution lookup 50 subtable" uni1CDA
Substitution2: "Single Substitution lookup 49 subtable" candrabindu_095telu.spacing
Substitution2: "Single Substitution lookup 48 subtable" candrabindu_0952telu
Substitution2: "Single Substitution lookup 47 subtable" candrabindu_1CDAtelu
Substitution2: "Single Substitution lookup 46 subtable" uni0C04
EndChar

StartChar: anusvaratelu
Encoding: 3074 3074 6
Width: 507
Flags: W
LayerCount: 2
Fore
SplineSet
33 208 m 0,0,1
 33 271 33 271 60.5 320.5 c 128,-1,2
 88 370 88 370 138 399 c 128,-1,3
 188 428 188 428 253 428 c 0,4,5
 319 428 319 428 369 399.5 c 128,-1,6
 419 371 419 371 446.5 321 c 128,-1,7
 474 271 474 271 474 208 c 256,8,9
 474 145 474 145 447 95.5 c 128,-1,10
 420 46 420 46 370.5 17 c 128,-1,11
 321 -12 321 -12 253 -12 c 0,12,13
 186 -12 186 -12 136.5 17 c 128,-1,14
 87 46 87 46 60 96 c 128,-1,15
 33 146 33 146 33 208 c 0,0,1
115 209 m 0,16,17
 115 149 115 149 150 107.5 c 128,-1,18
 185 66 185 66 253 66 c 0,19,20
 299 66 299 66 330 85 c 128,-1,21
 361 104 361 104 376.5 136.5 c 128,-1,22
 392 169 392 169 392 209 c 0,23,24
 392 268 392 268 355.5 309 c 128,-1,25
 319 350 319 350 253 350 c 0,26,27
 209 350 209 350 178 331 c 128,-1,28
 147 312 147 312 131 280.5 c 128,-1,29
 115 249 115 249 115 209 c 0,16,17
EndSplineSet
Substitution2: "Single Substitution lookup 53 subtable" uni0C00
Substitution2: "Single Substitution lookup 52 subtable" uni0951
Substitution2: "Single Substitution lookup 51 subtable" uni0952
Substitution2: "Single Substitution lookup 50 subtable" uni1CDA
Substitution2: "Single Substitution lookup 49 subtable" candrabindu_095telu.spacing
Substitution2: "Single Substitution lookup 48 subtable" candrabindu_0952telu
Substitution2: "Single Substitution lookup 47 subtable" candrabindu_1CDAtelu
Substitution2: "Single Substitution lookup 46 subtable" uni0C04
EndChar

StartChar: visargatelu
Encoding: 3075 3075 7
Width: 296
Flags: W
LayerCount: 2
Fore
SplineSet
28 104 m 0,0,1
 28 154 28 154 61 187 c 128,-1,2
 94 220 94 220 148 220 c 256,3,4
 202 220 202 220 235 187 c 128,-1,5
 268 154 268 154 268 104 c 256,6,7
 268 54 268 54 236 21 c 128,-1,8
 204 -12 204 -12 148 -12 c 0,9,10
 93 -12 93 -12 60.5 21.5 c 128,-1,11
 28 55 28 55 28 104 c 0,0,1
94 104 m 0,12,13
 94 82 94 82 107.5 66.5 c 128,-1,14
 121 51 121 51 148 51 c 256,15,16
 175 51 175 51 188.5 66.5 c 128,-1,17
 202 82 202 82 202 104 c 0,18,19
 202 127 202 127 188 142 c 128,-1,20
 174 157 174 157 148 157 c 0,21,22
 123 157 123 157 108.5 142 c 128,-1,23
 94 127 94 127 94 104 c 0,12,13
28 383 m 0,24,25
 28 433 28 433 61 466.5 c 128,-1,26
 94 500 94 500 148 500 c 256,27,28
 202 500 202 500 235 466.5 c 128,-1,29
 268 433 268 433 268 383 c 0,30,31
 268 334 268 334 236 301 c 128,-1,32
 204 268 204 268 148 268 c 0,33,34
 93 268 93 268 60.5 301 c 128,-1,35
 28 334 28 334 28 383 c 0,24,25
94 384 m 0,36,37
 94 362 94 362 107.5 346.5 c 128,-1,38
 121 331 121 331 148 331 c 256,39,40
 175 331 175 331 188.5 346.5 c 128,-1,41
 202 362 202 362 202 384 c 0,42,43
 202 407 202 407 188 422 c 128,-1,44
 174 437 174 437 148 437 c 0,45,46
 123 437 123 437 108.5 422 c 128,-1,47
 94 407 94 407 94 384 c 0,36,37
EndSplineSet
Substitution2: "Single Substitution lookup 53 subtable" uni0C00
Substitution2: "Single Substitution lookup 52 subtable" uni0951
Substitution2: "Single Substitution lookup 51 subtable" uni0952
Substitution2: "Single Substitution lookup 50 subtable" uni1CDA
Substitution2: "Single Substitution lookup 49 subtable" candrabindu_095telu.spacing
Substitution2: "Single Substitution lookup 48 subtable" candrabindu_0952telu
Substitution2: "Single Substitution lookup 47 subtable" candrabindu_1CDAtelu
Substitution2: "Single Substitution lookup 46 subtable" uni0C04
EndChar

StartChar: uni0C04
Encoding: 3076 3076 8
Width: 0
GlyphClass: 4
Flags: W
AnchorPoint: "Anchor-10" -286 566 mark 0
AnchorPoint: "Anchor-6" -286 566 mark 0
AnchorPoint: "Anchor-3" -286 566 mark 0
AnchorPoint: "Anchor-0" -286 566 mark 0
LayerCount: 2
Fore
SplineSet
-406 713 m 0,0,1
 -406 763 -406 763 -373 796.5 c 128,-1,2
 -340 830 -340 830 -286 830 c 256,3,4
 -232 830 -232 830 -199 796.5 c 128,-1,5
 -166 763 -166 763 -166 713 c 0,6,7
 -166 664 -166 664 -198 631 c 128,-1,8
 -230 598 -230 598 -286 598 c 0,9,10
 -341 598 -341 598 -373.5 631 c 128,-1,11
 -406 664 -406 664 -406 713 c 0,0,1
-340 714 m 0,12,13
 -340 692 -340 692 -326.5 676.5 c 128,-1,14
 -313 661 -313 661 -286 661 c 256,15,16
 -259 661 -259 661 -245.5 676.5 c 128,-1,17
 -232 692 -232 692 -232 714 c 0,18,19
 -232 737 -232 737 -246 752 c 128,-1,20
 -260 767 -260 767 -286 767 c 0,21,22
 -311 767 -311 767 -325.5 752 c 128,-1,23
 -340 737 -340 737 -340 714 c 0,12,13
EndSplineSet
Substitution2: "Single Substitution lookup 58 subtable" rapostscripttelu
Substitution2: "Single Substitution lookup 57 subtable" rephtelu
Substitution2: "Single Substitution lookup 56 subtable" candrabindutelu
Substitution2: "Single Substitution lookup 55 subtable" anusvaratelu
Substitution2: "Single Substitution lookup 54 subtable" visargatelu
Substitution2: "Single Substitution lookup 45 subtable" uni1CF2
EndChar

StartChar: atelu
Encoding: 3077 3077 9
Width: 800
GlyphClass: 2
Flags: W
AnchorPoint: "Anchor-4" 400 -24 basechar 0
AnchorPoint: "Anchor-0" 400 700 basechar 0
LayerCount: 2
Fore
SplineSet
390 -12 m 0,0,1
 300 -12 300 -12 233.5 9.5 c 128,-1,2
 167 31 167 31 123 70 c 128,-1,3
 79 109 79 109 57.5 161 c 128,-1,4
 36 213 36 213 36 273 c 0,5,6
 36 345 36 345 61 396 c 128,-1,7
 86 447 86 447 128.5 473.5 c 128,-1,8
 171 500 171 500 225 500 c 0,9,10
 265 500 265 500 294.5 484.5 c 128,-1,11
 324 469 324 469 340.5 440.5 c 128,-1,12
 357 412 357 412 357 373 c 0,13,14
 357 333 357 333 340 301.5 c 128,-1,15
 323 270 323 270 289 252.5 c 128,-1,16
 255 235 255 235 202 235 c 0,17,18
 152 235 152 235 115 258 c 128,-1,19
 78 281 78 281 58 304 c 1,20,-1
 82 366 l 1,21,22
 90 355 90 355 104.5 340.5 c 128,-1,23
 119 326 119 326 142 315.5 c 128,-1,24
 165 305 165 305 197 305 c 0,25,26
 237 305 237 305 257.5 322 c 128,-1,27
 278 339 278 339 278 369 c 0,28,29
 278 398 278 398 262 413.5 c 128,-1,30
 246 429 246 429 220 429 c 0,31,32
 173 429 173 429 144 390 c 128,-1,33
 115 351 115 351 115 280 c 2,34,-1
 115 271 l 2,35,36
 115 220 115 220 142.5 173 c 128,-1,37
 170 126 170 126 230.5 96.5 c 128,-1,38
 291 67 291 67 390 67 c 0,39,40
 538 67 538 67 610 119.5 c 128,-1,41
 682 172 682 172 682 285 c 0,42,43
 682 322 682 322 671 353.5 c 128,-1,44
 660 385 660 385 637.5 405 c 128,-1,45
 615 425 615 425 580 425 c 0,46,47
 557 425 557 425 537.5 409.5 c 128,-1,48
 518 394 518 394 518 360 c 0,49,50
 518 321 518 321 544 295.5 c 128,-1,51
 570 270 570 270 612 256 c 1,52,-1
 612 184 l 1,53,-1
 303 184 l 1,54,-1
 303 258 l 1,55,-1
 522 258 l 1,56,-1
 513 251 l 1,57,58
 478 268 478 268 458.5 300 c 128,-1,59
 439 332 439 332 439 374 c 0,60,61
 439 404 439 404 454 433 c 128,-1,62
 469 462 469 462 501.5 481 c 128,-1,63
 534 500 534 500 584 500 c 0,64,65
 636 500 636 500 676.5 472 c 128,-1,66
 717 444 717 444 741 395.5 c 128,-1,67
 765 347 765 347 765 284 c 0,68,69
 765 209 765 209 739.5 153 c 128,-1,70
 714 97 714 97 665.5 60.5 c 128,-1,71
 617 24 617 24 547.5 6 c 128,-1,72
 478 -12 478 -12 390 -12 c 0,0,1
EndSplineSet
EndChar

StartChar: aatelu
Encoding: 3078 3078 10
Width: 798
GlyphClass: 2
Flags: W
AnchorPoint: "Anchor-4" 399 -24 basechar 0
AnchorPoint: "Anchor-0" 399 700 basechar 0
LayerCount: 2
Fore
SplineSet
423 -12 m 256,0,1
 320 -12 320 -12 246 9.5 c 128,-1,2
 172 31 172 31 126 70 c 128,-1,3
 80 109 80 109 58 161 c 128,-1,4
 36 213 36 213 36 273 c 0,5,6
 36 345 36 345 61 396 c 128,-1,7
 86 447 86 447 128.5 473.5 c 128,-1,8
 171 500 171 500 225 500 c 0,9,10
 265 500 265 500 294.5 484.5 c 128,-1,11
 324 469 324 469 340.5 440.5 c 128,-1,12
 357 412 357 412 357 373 c 0,13,14
 357 333 357 333 340 301.5 c 128,-1,15
 323 270 323 270 289 252.5 c 128,-1,16
 255 235 255 235 202 235 c 0,17,18
 152 235 152 235 115 258 c 128,-1,19
 78 281 78 281 58 304 c 1,20,-1
 82 366 l 1,21,22
 90 355 90 355 104.5 340.5 c 128,-1,23
 119 326 119 326 142 315.5 c 128,-1,24
 165 305 165 305 197 305 c 0,25,26
 237 305 237 305 257.5 322 c 128,-1,27
 278 339 278 339 278 369 c 0,28,29
 278 398 278 398 262 413.5 c 128,-1,30
 246 429 246 429 220 429 c 0,31,32
 173 429 173 429 144 390 c 128,-1,33
 115 351 115 351 115 280 c 2,34,-1
 115 271 l 2,35,36
 115 232 115 232 130 195.5 c 128,-1,37
 145 159 145 159 180 130 c 128,-1,38
 215 101 215 101 274.5 84 c 128,-1,39
 334 67 334 67 423 67 c 0,40,41
 502 67 502 67 556.5 79.5 c 128,-1,42
 611 92 611 92 639 115.5 c 128,-1,43
 667 139 667 139 667 171 c 0,44,45
 667 191 667 191 654.5 206 c 128,-1,46
 642 221 642 221 623 231.5 c 128,-1,47
 604 242 604 242 586 248 c 0,48,49
 532 260 532 260 496 293 c 128,-1,50
 460 326 460 326 460 378 c 0,51,52
 460 417 460 417 479.5 444 c 128,-1,53
 499 471 499 471 532.5 485.5 c 128,-1,54
 566 500 566 500 607 500 c 0,55,56
 663 500 663 500 698 480 c 128,-1,57
 733 460 733 460 749.5 428 c 128,-1,58
 766 396 766 396 766 360 c 0,59,60
 766 316 766 316 745.5 282 c 128,-1,61
 725 248 725 248 691 225 c 0,62,63
 668 209 668 209 645.5 200 c 128,-1,64
 623 191 623 191 600 187.5 c 128,-1,65
 577 184 577 184 550 184 c 2,66,-1
 303 184 l 1,67,-1
 303 258 l 1,68,-1
 611 258 l 1,69,70
 631 269 631 269 647.5 282.5 c 128,-1,71
 664 296 664 296 673.5 314.5 c 128,-1,72
 683 333 683 333 683 357 c 0,73,74
 683 386 683 386 665.5 407 c 128,-1,75
 648 428 648 428 610 428 c 0,76,77
 577 428 577 428 558.5 413 c 128,-1,78
 540 398 540 398 540 373 c 0,79,80
 540 351 540 351 554.5 334.5 c 128,-1,81
 569 318 569 318 593 306.5 c 128,-1,82
 617 295 617 295 645 285 c 0,83,84
 671 277 671 277 695 262 c 128,-1,85
 719 247 719 247 734.5 224 c 128,-1,86
 750 201 750 201 750 169 c 0,87,88
 750 139 750 139 737 107 c 128,-1,89
 724 75 724 75 689.5 48 c 128,-1,90
 655 21 655 21 590.5 4.5 c 128,-1,91
 526 -12 526 -12 423 -12 c 256,0,1
EndSplineSet
EndChar

StartChar: itelu
Encoding: 3079 3079 11
Width: 689
GlyphClass: 2
Flags: W
AnchorPoint: "Anchor-4" 344 -24 basechar 0
AnchorPoint: "Anchor-0" 344 700 basechar 0
LayerCount: 2
Fore
SplineSet
300 -12 m 0,0,1
 228 -12 228 -12 182 5.5 c 128,-1,2
 136 23 136 23 114.5 55.5 c 128,-1,3
 93 88 93 88 93 132 c 0,4,5
 93 195 93 195 144 232 c 128,-1,6
 195 269 195 269 292 269 c 0,7,8
 390 269 390 269 460 229 c 128,-1,9
 530 189 530 189 567 132 c 0,10,11
 587 101 587 101 598 69 c 128,-1,12
 609 37 609 37 609 0 c 0,13,14
 609 -25 609 -25 605 -49.5 c 128,-1,15
 601 -74 601 -74 591 -97 c 1,16,-1
 518 -82 l 1,17,18
 525 -65 525 -65 528.5 -44 c 128,-1,19
 532 -23 532 -23 532 4 c 0,20,21
 532 58 532 58 502.5 101 c 128,-1,22
 473 144 473 144 419.5 169 c 128,-1,23
 366 194 366 194 292 194 c 0,24,25
 235 194 235 194 205.5 177.5 c 128,-1,26
 176 161 176 161 176 132 c 0,27,28
 176 110 176 110 189 94.5 c 128,-1,29
 202 79 202 79 230 71 c 128,-1,30
 258 63 258 63 302 63 c 0,31,32
 373 63 373 63 431.5 83.5 c 128,-1,33
 490 104 490 104 523 146 c 0,34,35
 547 172 547 172 559 207.5 c 128,-1,36
 571 243 571 243 571 286 c 0,37,38
 571 335 571 335 557.5 364.5 c 128,-1,39
 544 394 544 394 521 407.5 c 128,-1,40
 498 421 498 421 469 421 c 256,41,42
 440 421 440 421 418.5 407 c 128,-1,43
 397 393 397 393 384 370 c 128,-1,44
 371 347 371 347 366 318 c 1,45,-1
 288 318 l 1,46,47
 279 371 279 371 253 398 c 128,-1,48
 227 425 227 425 184 425 c 0,49,50
 147 425 147 425 129.5 407.5 c 128,-1,51
 112 390 112 390 112 364 c 0,52,53
 112 348 112 348 116.5 331.5 c 128,-1,54
 121 315 121 315 126 305 c 1,55,-1
 50 283 l 1,56,57
 42 300 42 300 35.5 321.5 c 128,-1,58
 29 343 29 343 29 372 c 0,59,60
 29 411 29 411 49.5 439.5 c 128,-1,61
 70 468 70 468 104.5 484 c 128,-1,62
 139 500 139 500 181 500 c 0,63,64
 218 500 218 500 245.5 489.5 c 128,-1,65
 273 479 273 479 295 456.5 c 128,-1,66
 317 434 317 434 335 398 c 1,67,-1
 317 396 l 1,68,69
 338 438 338 438 363.5 460.5 c 128,-1,70
 389 483 389 483 418 491.5 c 128,-1,71
 447 500 447 500 476 500 c 0,72,73
 514 500 514 500 546.5 485.5 c 128,-1,74
 579 471 579 471 603 443.5 c 128,-1,75
 627 416 627 416 640.5 376.5 c 128,-1,76
 654 337 654 337 654 287 c 0,77,78
 654 220 654 220 632.5 170.5 c 128,-1,79
 611 121 611 121 571 83 c 0,80,81
 568 80 568 80 565 78.5 c 128,-1,82
 562 77 562 77 559 75 c 128,-1,83
 556 73 556 73 552 70 c 0,84,85
 506 32 506 32 446.5 10 c 128,-1,86
 387 -12 387 -12 300 -12 c 0,0,1
EndSplineSet
EndChar

StartChar: iitelu
Encoding: 3080 3080 12
Width: 994
GlyphClass: 2
Flags: W
AnchorPoint: "Anchor-4" 354 -24 basechar 0
AnchorPoint: "Anchor-0" 354 700 basechar 0
LayerCount: 2
Fore
SplineSet
826 27 m 0,0,1
 777 27 777 27 746 46 c 128,-1,2
 715 65 715 65 700.5 93 c 128,-1,3
 686 121 686 121 686 148 c 0,4,5
 686 170 686 170 692.5 188.5 c 128,-1,6
 699 207 699 207 710.5 222 c 128,-1,7
 722 237 722 237 737 247 c 1,8,-1
 851 249 l 1,9,10
 801 230 801 230 780 206.5 c 128,-1,11
 759 183 759 183 759 154 c 0,12,13
 759 123 759 123 777.5 108 c 128,-1,14
 796 93 796 93 826 93 c 0,15,16
 859 93 859 93 875 111 c 128,-1,17
 891 129 891 129 891 157 c 0,18,19
 891 197 891 197 866 215 c 128,-1,20
 841 233 841 233 797 233 c 2,21,-1
 30 233 l 1,22,-1
 30 305 l 1,23,-1
 752 305 l 2,24,25
 793 305 793 305 824 301 c 128,-1,26
 855 297 855 297 878 288.5 c 128,-1,27
 901 280 901 280 918 266 c 0,28,29
 939 249 939 249 951.5 222 c 128,-1,30
 964 195 964 195 964 157 c 0,31,32
 964 96 964 96 927.5 61.5 c 128,-1,33
 891 27 891 27 826 27 c 0,0,1
828 483 m 0,34,35
 866 483 866 483 894 470 c 128,-1,36
 922 457 922 457 938 433 c 128,-1,37
 954 409 954 409 954 375 c 0,38,39
 954 347 954 347 942.5 325 c 128,-1,40
 931 303 931 303 910.5 286 c 128,-1,41
 890 269 890 269 864 255 c 1,42,-1
 768 279 l 1,43,44
 827 297 827 297 853 320.5 c 128,-1,45
 879 344 879 344 879 369 c 0,46,47
 879 390 879 390 866.5 403.5 c 128,-1,48
 854 417 854 417 830 417 c 0,49,50
 803 417 803 417 786 401.5 c 128,-1,51
 769 386 769 386 753 362 c 1,52,-1
 681 390 l 1,53,54
 704 430 704 430 739 456.5 c 128,-1,55
 774 483 774 483 828 483 c 0,34,35
93 236 m 0,56,57
 93 314 93 314 126 373.5 c 128,-1,58
 159 433 159 433 217.5 466.5 c 128,-1,59
 276 500 276 500 354 500 c 0,60,61
 433 500 433 500 491.5 467.5 c 128,-1,62
 550 435 550 435 583 376 c 128,-1,63
 616 317 616 317 616 237 c 0,64,65
 616 163 616 163 584 106.5 c 128,-1,66
 552 50 552 50 493 19 c 128,-1,67
 434 -12 434 -12 354 -12 c 0,68,69
 275 -12 275 -12 216.5 19 c 128,-1,70
 158 50 158 50 125.5 105.5 c 128,-1,71
 93 161 93 161 93 236 c 0,56,57
174 248 m 0,72,73
 174 167 174 167 218 117 c 128,-1,74
 262 67 262 67 354 67 c 0,75,76
 416 67 416 67 456 89.5 c 128,-1,77
 496 112 496 112 515.5 152 c 128,-1,78
 535 192 535 192 535 242 c 0,79,80
 535 293 535 293 515.5 334.5 c 128,-1,81
 496 376 496 376 456 400.5 c 128,-1,82
 416 425 416 425 354 425 c 256,83,84
 292 425 292 425 252 400.5 c 128,-1,85
 212 376 212 376 193 336 c 128,-1,86
 174 296 174 296 174 248 c 0,72,73
322 425 m 0,87,88
 293 425 293 425 266.5 436 c 128,-1,89
 240 447 240 447 218 477.5 c 128,-1,90
 196 508 196 508 180 564 c 1,91,-1
 263 591 l 1,92,93
 278 536 278 536 292 518 c 128,-1,94
 306 500 306 500 328 500 c 0,95,96
 348 500 348 500 365.5 512.5 c 128,-1,97
 383 525 383 525 415 565 c 2,98,-1
 446 605 l 2,99,100
 480 649 480 649 508.5 675 c 128,-1,101
 537 701 537 701 569 713 c 128,-1,102
 601 725 601 725 645 725 c 1,103,-1
 651 648 l 1,104,105
 616 646 616 646 592.5 637 c 128,-1,106
 569 628 569 628 549.5 608.5 c 128,-1,107
 530 589 530 589 504 556 c 2,108,-1
 481 526 l 2,109,110
 453 490 453 490 428 468 c 128,-1,111
 403 446 403 446 377.5 435.5 c 128,-1,112
 352 425 352 425 322 425 c 0,87,88
EndSplineSet
EndChar

StartChar: utelu
Encoding: 3081 3081 13
Width: 798
GlyphClass: 2
Flags: W
AnchorPoint: "Anchor-4" 376 -24 basechar 0
AnchorPoint: "Anchor-0" 376 700 basechar 0
LayerCount: 2
Fore
SplineSet
552 -12 m 0,0,1
 497 -12 497 -12 458 -0.5 c 128,-1,2
 419 11 419 11 394 32.5 c 128,-1,3
 369 54 369 54 352 84 c 1,4,-1
 368 91 l 1,5,6
 346 48 346 48 320 25.5 c 128,-1,7
 294 3 294 3 264 -4.5 c 128,-1,8
 234 -12 234 -12 201 -12 c 0,9,10
 127 -12 127 -12 81 43 c 128,-1,11
 35 98 35 98 35 194 c 0,12,13
 35 291 35 291 78.5 359 c 128,-1,14
 122 427 122 427 201.5 463.5 c 128,-1,15
 281 500 281 500 389 500 c 0,16,17
 442 500 442 500 487 490.5 c 128,-1,18
 532 481 532 481 571.5 464 c 128,-1,19
 611 447 611 447 648 424 c 1,20,-1
 599 358 l 1,21,22
 565 380 565 380 532 395 c 128,-1,23
 499 410 499 410 463 417.5 c 128,-1,24
 427 425 427 425 383 425 c 0,25,26
 319 425 319 425 268 409.5 c 128,-1,27
 217 394 217 394 182.5 363 c 128,-1,28
 148 332 148 332 130 287 c 0,29,30
 123 267 123 267 119.5 244 c 128,-1,31
 116 221 116 221 116 197 c 0,32,33
 116 127 116 127 141.5 97 c 128,-1,34
 167 67 167 67 213 67 c 0,35,36
 262 67 262 67 289 99.5 c 128,-1,37
 316 132 316 132 320 185 c 1,38,-1
 398 185 l 1,39,40
 400 146 400 146 416.5 116 c 128,-1,41
 433 86 433 86 469 76 c 0,42,43
 486 69 486 69 507.5 66 c 128,-1,44
 529 63 529 63 556 63 c 0,45,46
 597 63 597 63 617 80.5 c 128,-1,47
 637 98 637 98 637 129 c 256,48,49
 637 160 637 160 618.5 174 c 128,-1,50
 600 188 600 188 571 188 c 0,51,52
 544 188 544 188 524.5 173.5 c 128,-1,53
 505 159 505 159 505 124 c 0,54,55
 505 99 505 99 515 79 c 128,-1,56
 525 59 525 59 539 46 c 1,57,-1
 473 35 l 1,58,59
 459 57 459 57 447 82 c 128,-1,60
 435 107 435 107 435 135 c 0,61,62
 435 175 435 175 452 201 c 128,-1,63
 469 227 469 227 500.5 240 c 128,-1,64
 532 253 532 253 575 253 c 0,65,66
 640 253 640 253 678.5 219 c 128,-1,67
 717 185 717 185 717 126 c 0,68,69
 717 93 717 93 704.5 67 c 128,-1,70
 692 41 692 41 669.5 23.5 c 128,-1,71
 647 6 647 6 617 -3 c 128,-1,72
 587 -12 587 -12 552 -12 c 0,0,1
73 246 m 1,73,-1
 88 318 l 1,74,-1
 772 318 l 1,75,-1
 772 246 l 1,76,-1
 73 246 l 1,73,-1
423 624 m 1,77,-1
 415 478 l 1,78,-1
 340 478 l 1,79,-1
 333 624 l 1,80,-1
 423 624 l 1,77,-1
EndSplineSet
EndChar

StartChar: uutelu
Encoding: 3082 3082 14
Width: 1095
GlyphClass: 2
Flags: W
AnchorPoint: "Anchor-4" 376 -24 basechar 0
AnchorPoint: "Anchor-0" 376 700 basechar 0
LayerCount: 2
Fore
SplineSet
552 -12 m 0,0,1
 497 -12 497 -12 458 -0.5 c 128,-1,2
 419 11 419 11 394 32.5 c 128,-1,3
 369 54 369 54 352 84 c 1,4,-1
 368 91 l 1,5,6
 346 48 346 48 320 25.5 c 128,-1,7
 294 3 294 3 264 -4.5 c 128,-1,8
 234 -12 234 -12 201 -12 c 0,9,10
 127 -12 127 -12 81 43 c 128,-1,11
 35 98 35 98 35 194 c 0,12,13
 35 291 35 291 78.5 359 c 128,-1,14
 122 427 122 427 201.5 463.5 c 128,-1,15
 281 500 281 500 389 500 c 0,16,17
 442 500 442 500 486.5 490.5 c 128,-1,18
 531 481 531 481 571 464 c 128,-1,19
 611 447 611 447 648 424 c 1,20,-1
 599 358 l 1,21,22
 565 380 565 380 532 395 c 128,-1,23
 499 410 499 410 463 417.5 c 128,-1,24
 427 425 427 425 383 425 c 0,25,26
 319 425 319 425 268 409.5 c 128,-1,27
 217 394 217 394 182.5 363 c 128,-1,28
 148 332 148 332 130 287 c 0,29,30
 123 267 123 267 119.5 244 c 128,-1,31
 116 221 116 221 116 197 c 0,32,33
 116 127 116 127 141.5 97 c 128,-1,34
 167 67 167 67 213 67 c 0,35,36
 262 67 262 67 289 99.5 c 128,-1,37
 316 132 316 132 320 185 c 1,38,-1
 398 185 l 1,39,40
 400 146 400 146 416.5 116 c 128,-1,41
 433 86 433 86 469 76 c 0,42,43
 486 69 486 69 507.5 66 c 128,-1,44
 529 63 529 63 556 63 c 0,45,46
 597 63 597 63 617 80.5 c 128,-1,47
 637 98 637 98 637 129 c 256,48,49
 637 160 637 160 618.5 174 c 128,-1,50
 600 188 600 188 571 188 c 0,51,52
 544 188 544 188 524.5 173.5 c 128,-1,53
 505 159 505 159 505 124 c 0,54,55
 505 99 505 99 515 79 c 128,-1,56
 525 59 525 59 539 46 c 1,57,-1
 473 35 l 1,58,59
 459 57 459 57 447 82 c 128,-1,60
 435 107 435 107 435 135 c 0,61,62
 435 175 435 175 452 201 c 128,-1,63
 469 227 469 227 500.5 240 c 128,-1,64
 532 253 532 253 575 253 c 0,65,66
 640 253 640 253 678.5 219 c 128,-1,67
 717 185 717 185 717 126 c 0,68,69
 717 93 717 93 704.5 67 c 128,-1,70
 692 41 692 41 669.5 23.5 c 128,-1,71
 647 6 647 6 617 -3 c 128,-1,72
 587 -12 587 -12 552 -12 c 0,0,1
927 40 m 0,73,74
 878 40 878 40 847 59 c 128,-1,75
 816 78 816 78 801.5 106 c 128,-1,76
 787 134 787 134 787 161 c 0,77,78
 787 183 787 183 793.5 201.5 c 128,-1,79
 800 220 800 220 811.5 235 c 128,-1,80
 823 250 823 250 838 260 c 1,81,-1
 952 262 l 1,82,83
 902 243 902 243 881 219.5 c 128,-1,84
 860 196 860 196 860 167 c 0,85,86
 860 136 860 136 878.5 121 c 128,-1,87
 897 106 897 106 927 106 c 0,88,89
 960 106 960 106 976 124 c 128,-1,90
 992 142 992 142 992 170 c 0,91,92
 992 210 992 210 967 228 c 128,-1,93
 942 246 942 246 899 246 c 2,94,-1
 98 246 l 1,95,-1
 98 318 l 1,96,-1
 853 318 l 2,97,98
 894 318 894 318 925 314 c 128,-1,99
 956 310 956 310 979 301.5 c 128,-1,100
 1002 293 1002 293 1019 279 c 0,101,102
 1040 262 1040 262 1052.5 235 c 128,-1,103
 1065 208 1065 208 1065 170 c 0,104,105
 1065 109 1065 109 1028.5 74.5 c 128,-1,106
 992 40 992 40 927 40 c 0,73,74
929 496 m 0,107,108
 967 496 967 496 995 483 c 128,-1,109
 1023 470 1023 470 1039 446 c 128,-1,110
 1055 422 1055 422 1055 388 c 0,111,112
 1055 360 1055 360 1043.5 338 c 128,-1,113
 1032 316 1032 316 1012 299 c 128,-1,114
 992 282 992 282 965 268 c 1,115,-1
 869 292 l 1,116,117
 928 310 928 310 954 333.5 c 128,-1,118
 980 357 980 357 980 382 c 0,119,120
 980 403 980 403 967.5 416.5 c 128,-1,121
 955 430 955 430 931 430 c 0,122,123
 904 430 904 430 887 414.5 c 128,-1,124
 870 399 870 399 854 375 c 1,125,-1
 782 403 l 1,126,127
 805 443 805 443 840 469.5 c 128,-1,128
 875 496 875 496 929 496 c 0,107,108
335 624 m 1,129,-1
 327 478 l 1,130,-1
 252 478 l 1,131,-1
 245 624 l 1,132,-1
 335 624 l 1,129,-1
511 624 m 1,133,-1
 503 478 l 1,134,-1
 428 478 l 1,135,-1
 421 624 l 1,136,-1
 511 624 l 1,133,-1
EndSplineSet
EndChar

StartChar: lvocalictelu
Encoding: 3084 3084 16
Width: 882
GlyphClass: 2
Flags: W
AnchorPoint: "Anchor-4" 441 -24 basechar 0
AnchorPoint: "Anchor-0" 441 700 basechar 0
LayerCount: 2
Fore
SplineSet
559 -75 m 0,0,1
 498 -75 498 -75 456.5 -55 c 128,-1,2
 415 -35 415 -35 394.5 1 c 128,-1,3
 374 37 374 37 374 84 c 0,4,5
 374 116 374 116 384.5 144 c 128,-1,6
 395 172 395 172 414.5 199 c 128,-1,7
 434 226 434 226 460 255 c 0,8,9
 488 286 488 286 504.5 311 c 128,-1,10
 521 336 521 336 521 364 c 0,11,12
 521 389 521 389 504 406.5 c 128,-1,13
 487 424 487 424 453 424 c 0,14,15
 407 424 407 424 378.5 391.5 c 128,-1,16
 350 359 350 359 346 303 c 1,17,-1
 268 303 l 1,18,19
 265 365 265 365 239.5 395 c 128,-1,20
 214 425 214 425 176 425 c 0,21,22
 143 425 143 425 127.5 407.5 c 128,-1,23
 112 390 112 390 112 364 c 0,24,25
 112 339 112 339 118.5 321.5 c 128,-1,26
 125 304 125 304 135 287 c 1,27,-1
 59 263 l 1,28,29
 47 286 47 286 38 313.5 c 128,-1,30
 29 341 29 341 29 372 c 0,31,32
 29 411 29 411 48 439.5 c 128,-1,33
 67 468 67 468 99 484 c 128,-1,34
 131 500 131 500 170 500 c 0,35,36
 223 500 223 500 256.5 476 c 128,-1,37
 290 452 290 452 315 398 c 1,38,-1
 298 399 l 1,39,40
 327 451 327 451 364.5 475.5 c 128,-1,41
 402 500 402 500 457 500 c 0,42,43
 497 500 497 500 524.5 488 c 128,-1,44
 552 476 552 476 569 457 c 128,-1,45
 586 438 586 438 593.5 415 c 128,-1,46
 601 392 601 392 601 370 c 0,47,48
 601 337 601 337 590 309.5 c 128,-1,49
 579 282 579 282 562 259 c 128,-1,50
 545 236 545 236 526 215 c 0,51,52
 504 190 504 190 488.5 169.5 c 128,-1,53
 473 149 473 149 465 129.5 c 128,-1,54
 457 110 457 110 457 87 c 0,55,56
 457 62 457 62 468 43.5 c 128,-1,57
 479 25 479 25 502 14.5 c 128,-1,58
 525 4 525 4 562 4 c 0,59,60
 613 4 613 4 651 22.5 c 128,-1,61
 689 41 689 41 714 73 c 128,-1,62
 739 105 739 105 751 145 c 128,-1,63
 763 185 763 185 763 228 c 0,64,65
 763 292 763 292 733.5 345.5 c 128,-1,66
 704 399 704 399 642 433 c 1,67,-1
 695 500 l 1,68,69
 772 454 772 454 809 385 c 128,-1,70
 846 316 846 316 846 227 c 0,71,72
 846 158 846 158 824 102 c 128,-1,73
 802 46 802 46 762.5 6.5 c 128,-1,74
 723 -33 723 -33 671 -54 c 128,-1,75
 619 -75 619 -75 559 -75 c 0,0,1
EndSplineSet
EndChar

StartChar: etelu
Encoding: 3086 3086 17
Width: 711
GlyphClass: 2
Flags: W
AnchorPoint: "Anchor-4" 355 -24 basechar 0
AnchorPoint: "Anchor-0" 355 700 basechar 0
LayerCount: 2
Fore
SplineSet
485 -12 m 0,0,1
 437 -12 437 -12 401.5 6 c 128,-1,2
 366 24 366 24 336 56 c 128,-1,3
 306 88 306 88 273 131 c 0,4,5
 244 171 244 171 223 189 c 128,-1,6
 202 207 202 207 172 207 c 0,7,8
 144 207 144 207 125.5 189 c 128,-1,9
 107 171 107 171 107 136 c 0,10,11
 107 105 107 105 126.5 84 c 128,-1,12
 146 63 146 63 180 63 c 256,13,14
 214 63 214 63 236.5 83 c 128,-1,15
 259 103 259 103 275 141 c 1,16,-1
 328 81 l 1,17,18
 309 54 309 54 288 33 c 128,-1,19
 267 12 267 12 240.5 0 c 128,-1,20
 214 -12 214 -12 175 -12 c 0,21,22
 122 -12 122 -12 90 10 c 128,-1,23
 58 32 58 32 43.5 66.5 c 128,-1,24
 29 101 29 101 29 138 c 0,25,26
 29 182 29 182 48 214 c 128,-1,27
 67 246 67 246 99 264 c 128,-1,28
 131 282 131 282 170 282 c 0,29,30
 206 282 206 282 234 269.5 c 128,-1,31
 262 257 262 257 289 230.5 c 128,-1,32
 316 204 316 204 348 161 c 0,33,34
 375 126 375 126 396 105 c 128,-1,35
 417 84 417 84 439 75.5 c 128,-1,36
 461 67 461 67 490 67 c 0,37,38
 540 67 540 67 566.5 99 c 128,-1,39
 593 131 593 131 593 200 c 0,40,41
 593 256 593 256 574.5 309 c 128,-1,42
 556 362 556 362 523 409.5 c 128,-1,43
 490 457 490 457 446 498.5 c 128,-1,44
 402 540 402 540 350 574 c 128,-1,45
 298 608 298 608 242 632 c 1,46,-1
 280 712 l 1,47,48
 335 689 335 689 391.5 653.5 c 128,-1,49
 448 618 448 618 499 570.5 c 128,-1,50
 550 523 550 523 590 465.5 c 128,-1,51
 630 408 630 408 653 341 c 128,-1,52
 676 274 676 274 676 198 c 0,53,54
 676 132 676 132 653.5 85 c 128,-1,55
 631 38 631 38 588.5 13 c 128,-1,56
 546 -12 546 -12 485 -12 c 0,0,1
EndSplineSet
EndChar

StartChar: eetelu
Encoding: 3087 3087 18
Width: 711
GlyphClass: 2
Flags: W
AnchorPoint: "Anchor-4" 355 -24 basechar 0
AnchorPoint: "Anchor-0" 355 700 basechar 0
LayerCount: 2
Fore
SplineSet
485 -12 m 0,0,1
 437 -12 437 -12 401.5 6 c 128,-1,2
 366 24 366 24 336 56 c 128,-1,3
 306 88 306 88 273 131 c 0,4,5
 244 171 244 171 223 189 c 128,-1,6
 202 207 202 207 172 207 c 0,7,8
 144 207 144 207 125.5 189 c 128,-1,9
 107 171 107 171 107 136 c 0,10,11
 107 105 107 105 126.5 84 c 128,-1,12
 146 63 146 63 180 63 c 256,13,14
 214 63 214 63 236.5 83 c 128,-1,15
 259 103 259 103 275 141 c 1,16,-1
 328 81 l 1,17,18
 309 54 309 54 288 33 c 128,-1,19
 267 12 267 12 240.5 0 c 128,-1,20
 214 -12 214 -12 175 -12 c 0,21,22
 122 -12 122 -12 90 10 c 128,-1,23
 58 32 58 32 43.5 66.5 c 128,-1,24
 29 101 29 101 29 138 c 0,25,26
 29 182 29 182 48 214 c 128,-1,27
 67 246 67 246 99 264 c 128,-1,28
 131 282 131 282 170 282 c 0,29,30
 206 282 206 282 234 269.5 c 128,-1,31
 262 257 262 257 289 230.5 c 128,-1,32
 316 204 316 204 348 161 c 0,33,34
 375 126 375 126 396 105 c 128,-1,35
 417 84 417 84 439 75.5 c 128,-1,36
 461 67 461 67 490 67 c 0,37,38
 540 67 540 67 566.5 99 c 128,-1,39
 593 131 593 131 593 200 c 0,40,41
 593 256 593 256 574.5 309 c 128,-1,42
 556 362 556 362 523 409.5 c 128,-1,43
 490 457 490 457 446 498.5 c 128,-1,44
 402 540 402 540 350 574 c 128,-1,45
 298 608 298 608 242 632 c 1,46,-1
 280 712 l 1,47,48
 335 689 335 689 391.5 653.5 c 128,-1,49
 448 618 448 618 499 570.5 c 128,-1,50
 550 523 550 523 590 465.5 c 128,-1,51
 630 408 630 408 653 341 c 128,-1,52
 676 274 676 274 676 198 c 0,53,54
 676 132 676 132 653.5 85 c 128,-1,55
 631 38 631 38 588.5 13 c 128,-1,56
 546 -12 546 -12 485 -12 c 0,0,1
114 687 m 0,57,58
 114 731 114 731 131.5 763.5 c 128,-1,59
 149 796 149 796 179.5 813.5 c 128,-1,60
 210 831 210 831 249 831 c 0,61,62
 271 831 271 831 288.5 827.5 c 128,-1,63
 306 824 306 824 318 819 c 1,64,-1
 289 748 l 1,65,66
 282 750 282 750 273 752 c 128,-1,67
 264 754 264 754 254 754 c 0,68,69
 226 754 226 754 211 735.5 c 128,-1,70
 196 717 196 717 196 688 c 0,71,72
 196 648 196 648 211 614.5 c 128,-1,73
 226 581 226 581 251 546 c 1,74,-1
 174 512 l 1,75,76
 151 550 151 550 132.5 593.5 c 128,-1,77
 114 637 114 637 114 687 c 0,57,58
EndSplineSet
EndChar

StartChar: aitelu
Encoding: 3088 3088 19
Width: 727
GlyphClass: 2
Flags: W
AnchorPoint: "Anchor-4" 363 -24 basechar 0
AnchorPoint: "Anchor-0" 363 700 basechar 0
LayerCount: 2
Fore
SplineSet
496 -12 m 0,0,1
 448 -12 448 -12 412.5 6 c 128,-1,2
 377 24 377 24 347 56 c 128,-1,3
 317 88 317 88 284 131 c 0,4,5
 255 171 255 171 234 189 c 128,-1,6
 213 207 213 207 183 207 c 0,7,8
 155 207 155 207 136.5 189 c 128,-1,9
 118 171 118 171 118 136 c 0,10,11
 118 105 118 105 137 84 c 128,-1,12
 156 63 156 63 190 63 c 0,13,14
 225 63 225 63 247.5 83 c 128,-1,15
 270 103 270 103 286 141 c 1,16,-1
 339 81 l 1,17,18
 320 54 320 54 299 33 c 128,-1,19
 278 12 278 12 251.5 0 c 128,-1,20
 225 -12 225 -12 186 -12 c 0,21,22
 133 -12 133 -12 101 10 c 128,-1,23
 69 32 69 32 54.5 66.5 c 128,-1,24
 40 101 40 101 40 138 c 0,25,26
 40 182 40 182 59 214 c 128,-1,27
 78 246 78 246 110 264 c 128,-1,28
 142 282 142 282 181 282 c 0,29,30
 217 282 217 282 245 269.5 c 128,-1,31
 273 257 273 257 300 230.5 c 128,-1,32
 327 204 327 204 359 161 c 0,33,34
 387 125 387 125 407.5 104.5 c 128,-1,35
 428 84 428 84 450 75.5 c 128,-1,36
 472 67 472 67 501 67 c 0,37,38
 537 67 537 67 561 83.5 c 128,-1,39
 585 100 585 100 597 136 c 128,-1,40
 609 172 609 172 609 228 c 0,41,42
 609 277 609 277 596 321 c 128,-1,43
 583 365 583 365 555 393 c 128,-1,44
 527 421 527 421 481 421 c 0,45,46
 449 421 449 421 426.5 407 c 128,-1,47
 404 393 404 393 390.5 370 c 128,-1,48
 377 347 377 347 372 318 c 1,49,-1
 294 318 l 1,50,51
 285 371 285 371 259 398 c 128,-1,52
 233 425 233 425 190 425 c 0,53,54
 153 425 153 425 136 408.5 c 128,-1,55
 119 392 119 392 119 365 c 0,56,57
 119 355 119 355 121.5 343 c 128,-1,58
 124 331 124 331 128 323 c 1,59,-1
 52 302 l 1,60,61
 45 318 45 318 40.5 336 c 128,-1,62
 36 354 36 354 36 375 c 0,63,64
 36 414 36 414 56 442 c 128,-1,65
 76 470 76 470 110 485 c 128,-1,66
 144 500 144 500 185 500 c 0,67,68
 223 500 223 500 251.5 489.5 c 128,-1,69
 280 479 280 479 302 456.5 c 128,-1,70
 324 434 324 434 342 397 c 1,71,-1
 323 396 l 1,72,73
 344 437 344 437 370 459.5 c 128,-1,74
 396 482 396 482 426 491 c 128,-1,75
 456 500 456 500 488 500 c 0,76,77
 539 500 539 500 577.5 478.5 c 128,-1,78
 616 457 616 457 641 419.5 c 128,-1,79
 666 382 666 382 678.5 333.5 c 128,-1,80
 691 285 691 285 691 231 c 0,81,82
 691 111 691 111 641 49.5 c 128,-1,83
 591 -12 591 -12 496 -12 c 0,0,1
EndSplineSet
EndChar

StartChar: otelu
Encoding: 3090 3090 20
Width: 731
GlyphClass: 2
Flags: W
AnchorPoint: "Anchor-4" 365 -24 basechar 0
AnchorPoint: "Anchor-0" 365 700 basechar 0
LayerCount: 2
Fore
SplineSet
530 -12 m 0,0,1
 492 -12 492 -12 462.5 -1.5 c 128,-1,2
 433 9 433 9 409.5 31 c 128,-1,3
 386 53 386 53 366 89 c 1,4,-1
 386 90 l 1,5,6
 360 49 360 49 333 27 c 128,-1,7
 306 5 306 5 275 -3.5 c 128,-1,8
 244 -12 244 -12 205 -12 c 0,9,10
 150 -12 150 -12 113.5 7.5 c 128,-1,11
 77 27 77 27 59 59.5 c 128,-1,12
 41 92 41 92 41 130 c 0,13,14
 41 171 41 171 57.5 200 c 128,-1,15
 74 229 74 229 107 250.5 c 128,-1,16
 140 272 140 272 189 289 c 0,17,18
 230 304 230 304 254 321 c 128,-1,19
 278 338 278 338 278 371 c 0,20,21
 278 387 278 387 271 399.5 c 128,-1,22
 264 412 264 412 247.5 419.5 c 128,-1,23
 231 427 231 427 203 427 c 0,24,25
 160 427 160 427 139 410.5 c 128,-1,26
 118 394 118 394 118 365 c 0,27,28
 118 352 118 352 121.5 341 c 128,-1,29
 125 330 125 330 128 323 c 1,30,-1
 53 302 l 1,31,32
 45 317 45 317 40.5 335.5 c 128,-1,33
 36 354 36 354 36 375 c 0,34,35
 36 407 36 407 53 435.5 c 128,-1,36
 70 464 70 464 107 482 c 128,-1,37
 144 500 144 500 203 500 c 0,38,39
 263 500 263 500 297 480 c 128,-1,40
 331 460 331 460 345.5 430 c 128,-1,41
 360 400 360 400 360 370 c 0,42,43
 360 332 360 332 345 305.5 c 128,-1,44
 330 279 330 279 300.5 260 c 128,-1,45
 271 241 271 241 227 225 c 0,46,47
 174 205 174 205 148.5 184.5 c 128,-1,48
 123 164 123 164 123 131 c 0,49,50
 123 102 123 102 143.5 84.5 c 128,-1,51
 164 67 164 67 207 67 c 0,52,53
 249 67 249 67 276.5 81.5 c 128,-1,54
 304 96 304 96 318.5 123 c 128,-1,55
 333 150 333 150 336 185 c 1,56,-1
 414 185 l 1,57,58
 417 144 417 144 432.5 118 c 128,-1,59
 448 92 448 92 472.5 79.5 c 128,-1,60
 497 67 497 67 527 67 c 0,61,62
 577 67 577 67 597.5 87.5 c 128,-1,63
 618 108 618 108 618 142 c 0,64,65
 618 181 618 181 595.5 209 c 128,-1,66
 573 237 573 237 538 259 c 1,67,-1
 591 326 l 1,68,69
 631 300 631 300 655 269 c 128,-1,70
 679 238 679 238 690 207.5 c 128,-1,71
 701 177 701 177 701 150 c 0,72,73
 701 94 701 94 679.5 58 c 128,-1,74
 658 22 658 22 620 5 c 128,-1,75
 582 -12 582 -12 530 -12 c 0,0,1
EndSplineSet
EndChar

StartChar: autelu
Encoding: 3092 3092 22
Width: 731
GlyphClass: 2
Flags: W
AnchorPoint: "Anchor-4" 365 -24 basechar 0
AnchorPoint: "Anchor-0" 365 700 basechar 0
LayerCount: 2
Fore
SplineSet
590 403 m 0,0,1
 553 403 553 403 526.5 414 c 128,-1,2
 500 425 500 425 484 443 c 128,-1,3
 468 461 468 461 460.5 483 c 128,-1,4
 453 505 453 505 453 527 c 0,5,6
 453 559 453 559 462.5 582 c 128,-1,7
 472 605 472 605 486 626 c 1,8,-1
 574 633 l 1,9,10
 549 608 549 608 537.5 584.5 c 128,-1,11
 526 561 526 561 526 536 c 0,12,13
 526 506 526 506 543.5 487.5 c 128,-1,14
 561 469 561 469 594 469 c 0,15,16
 629 469 629 469 643.5 487.5 c 128,-1,17
 658 506 658 506 658 533 c 0,18,19
 658 575 658 575 632.5 591.5 c 128,-1,20
 607 608 607 608 561 608 c 2,21,-1
 336 608 l 1,22,23
 341 597 341 597 343.5 583 c 128,-1,24
 346 569 346 569 346 553 c 0,25,26
 346 523 346 523 334.5 500 c 128,-1,27
 323 477 323 477 307 464 c 0,28,29
 284 445 284 445 251 437 c 128,-1,30
 218 429 218 429 162 429 c 2,31,-1
 87 429 l 1,32,-1
 87 500 l 1,33,-1
 174 500 l 2,34,35
 206 500 206 500 222.5 503.5 c 128,-1,36
 239 507 239 507 249 515 c 0,37,38
 257 522 257 522 260.5 531 c 128,-1,39
 264 540 264 540 264 552 c 0,40,41
 264 565 264 565 260 575 c 128,-1,42
 256 585 256 585 248 592 c 0,43,44
 238 600 238 600 223 604 c 128,-1,45
 208 608 208 608 173 608 c 2,46,-1
 26 608 l 1,47,-1
 26 683 l 1,48,-1
 515 683 l 2,49,50
 560 683 560 683 591 679.5 c 128,-1,51
 622 676 622 676 644 668 c 128,-1,52
 666 660 666 660 684 645 c 0,53,54
 705 629 705 629 718 601.5 c 128,-1,55
 731 574 731 574 731 536 c 0,56,57
 731 473 731 473 693 438 c 128,-1,58
 655 403 655 403 590 403 c 0,0,1
530 -12 m 0,59,60
 492 -12 492 -12 462.5 -1.5 c 128,-1,61
 433 9 433 9 409.5 31 c 128,-1,62
 386 53 386 53 366 89 c 1,63,-1
 386 90 l 1,64,65
 360 49 360 49 333 27 c 128,-1,66
 306 5 306 5 275 -3.5 c 128,-1,67
 244 -12 244 -12 205 -12 c 0,68,69
 150 -12 150 -12 113.5 7.5 c 128,-1,70
 77 27 77 27 59 59.5 c 128,-1,71
 41 92 41 92 41 130 c 0,72,73
 41 171 41 171 57.5 200 c 128,-1,74
 74 229 74 229 107 250.5 c 128,-1,75
 140 272 140 272 189 289 c 0,76,77
 230 304 230 304 254 321 c 128,-1,78
 278 338 278 338 278 371 c 0,79,80
 278 387 278 387 271 399.5 c 128,-1,81
 264 412 264 412 247.5 419.5 c 128,-1,82
 231 427 231 427 203 427 c 0,83,84
 160 427 160 427 139 410.5 c 128,-1,85
 118 394 118 394 118 365 c 0,86,87
 118 352 118 352 121.5 341 c 128,-1,88
 125 330 125 330 128 323 c 1,89,-1
 53 302 l 1,90,91
 45 317 45 317 40.5 335.5 c 128,-1,92
 36 354 36 354 36 375 c 0,93,94
 36 407 36 407 53 435.5 c 128,-1,95
 70 464 70 464 107 482 c 128,-1,96
 144 500 144 500 203 500 c 0,97,98
 263 500 263 500 297 480 c 128,-1,99
 331 460 331 460 345.5 430 c 128,-1,100
 360 400 360 400 360 370 c 0,101,102
 360 332 360 332 345 305.5 c 128,-1,103
 330 279 330 279 300.5 260 c 128,-1,104
 271 241 271 241 227 225 c 0,105,106
 174 205 174 205 148.5 184.5 c 128,-1,107
 123 164 123 164 123 131 c 0,108,109
 123 102 123 102 143.5 84.5 c 128,-1,110
 164 67 164 67 207 67 c 0,111,112
 249 67 249 67 276.5 81.5 c 128,-1,113
 304 96 304 96 318.5 123 c 128,-1,114
 333 150 333 150 336 185 c 1,115,-1
 414 185 l 1,116,117
 417 144 417 144 432.5 118 c 128,-1,118
 448 92 448 92 472.5 79.5 c 128,-1,119
 497 67 497 67 527 67 c 0,120,121
 577 67 577 67 597.5 87.5 c 128,-1,122
 618 108 618 108 618 142 c 0,123,124
 618 181 618 181 595.5 209 c 128,-1,125
 573 237 573 237 538 259 c 1,126,-1
 591 326 l 1,127,128
 631 300 631 300 655 269 c 128,-1,129
 679 238 679 238 690 207.5 c 128,-1,130
 701 177 701 177 701 150 c 0,131,132
 701 94 701 94 679.5 58 c 128,-1,133
 658 22 658 22 620 5 c 128,-1,134
 582 -12 582 -12 530 -12 c 0,59,60
EndSplineSet
EndChar

StartChar: khatelu
Encoding: 3094 3094 24
Width: 755
GlyphClass: 2
Flags: W
AnchorPoint: "Anchor-4" 377 -24 basechar 0
AnchorPoint: "Anchor-1" 755 -24 basechar 0
AnchorPoint: "Anchor-0" 377 700 basechar 0
LayerCount: 2
Fore
SplineSet
518 -12 m 0,0,1
 459 -12 459 -12 412.5 9.5 c 128,-1,2
 366 31 366 31 310 71 c 2,3,-1
 292 84 l 2,4,5
 258 110 258 110 228.5 124 c 128,-1,6
 199 138 199 138 164 138 c 0,7,8
 132 138 132 138 118.5 127 c 128,-1,9
 105 116 105 116 105 102 c 0,10,11
 105 85 105 85 122 74 c 128,-1,12
 139 63 139 63 176 63 c 0,13,14
 227 63 227 63 264 83.5 c 128,-1,15
 301 104 301 104 320.5 144 c 128,-1,16
 340 184 340 184 340 244 c 0,17,18
 340 268 340 268 337.5 290.5 c 128,-1,19
 335 313 335 313 328.5 333.5 c 128,-1,20
 322 354 322 354 311.5 371.5 c 128,-1,21
 301 389 301 389 285 404 c 0,22,23
 282 407 282 407 276.5 406.5 c 128,-1,24
 271 406 271 406 268 408 c 0,25,26
 252 419 252 419 232 425.5 c 128,-1,27
 212 432 212 432 188 432 c 0,28,29
 151 432 151 432 131.5 414 c 128,-1,30
 112 396 112 396 112 369 c 256,31,32
 112 342 112 342 127.5 325 c 128,-1,33
 143 308 143 308 174 308 c 0,34,35
 204 308 204 308 223.5 322.5 c 128,-1,36
 243 337 243 337 243 371 c 0,37,38
 243 395 243 395 233.5 415.5 c 128,-1,39
 224 436 224 436 209 449 c 1,40,-1
 273 460 l 1,41,42
 287 439 287 439 296.5 414 c 128,-1,43
 306 389 306 389 306 361 c 0,44,45
 306 324 306 324 289.5 296.5 c 128,-1,46
 273 269 273 269 243 254 c 128,-1,47
 213 239 213 239 172 239 c 0,48,49
 136 239 136 239 105 254 c 128,-1,50
 74 269 74 269 55 298 c 128,-1,51
 36 327 36 327 36 368 c 0,52,53
 36 423 36 423 77.5 461.5 c 128,-1,54
 119 500 119 500 191 500 c 0,55,56
 256 500 256 500 300 476 c 128,-1,57
 344 452 344 452 370.5 414 c 128,-1,58
 397 376 397 376 409 332 c 128,-1,59
 421 288 421 288 421 249 c 0,60,61
 421 192 421 192 402.5 144.5 c 128,-1,62
 384 97 384 97 350.5 62 c 128,-1,63
 317 27 317 27 272.5 7.5 c 128,-1,64
 228 -12 228 -12 175 -12 c 0,65,66
 120 -12 120 -12 88.5 4.5 c 128,-1,67
 57 21 57 21 43 47 c 128,-1,68
 29 73 29 73 29 101 c 0,69,70
 29 147 29 147 64.5 178 c 128,-1,71
 100 209 100 209 165 209 c 0,72,73
 212 209 212 209 255.5 189.5 c 128,-1,74
 299 170 299 170 350 133 c 1,75,-1
 368 123 l 2,76,77
 393 105 393 105 416 92.5 c 128,-1,78
 439 80 439 80 464 73.5 c 128,-1,79
 489 67 489 67 520 67 c 0,80,81
 579 67 579 67 608 99 c 128,-1,82
 637 131 637 131 637 192 c 0,83,84
 637 250 637 250 614 293.5 c 128,-1,85
 591 337 591 337 551 369 c 128,-1,86
 511 401 511 401 461 423 c 1,87,-1
 499 500 l 1,88,89
 561 474 561 474 611 430 c 128,-1,90
 661 386 661 386 690.5 327.5 c 128,-1,91
 720 269 720 269 720 198 c 0,92,93
 720 132 720 132 695 85 c 128,-1,94
 670 38 670 38 624.5 13 c 128,-1,95
 579 -12 579 -12 518 -12 c 0,0,1
298 -125 m 1,96,-1
 305 16 l 1,97,-1
 380 16 l 1,98,-1
 388 -125 l 1,99,-1
 298 -125 l 1,96,-1
EndSplineSet
EndChar

StartChar: ngatelu
Encoding: 3097 3097 27
Width: 731
GlyphClass: 2
Flags: W
AnchorPoint: "Anchor-4" 365 -24 basechar 0
AnchorPoint: "Anchor-1" 731 -24 basechar 0
AnchorPoint: "Anchor-0" 365 700 basechar 0
LayerCount: 2
Fore
SplineSet
530 -12 m 0,0,1
 492 -12 492 -12 462.5 -1.5 c 128,-1,2
 433 9 433 9 409.5 31 c 128,-1,3
 386 53 386 53 366 89 c 1,4,-1
 386 90 l 1,5,6
 360 49 360 49 333 27 c 128,-1,7
 306 5 306 5 275 -3.5 c 128,-1,8
 244 -12 244 -12 205 -12 c 0,9,10
 150 -12 150 -12 113.5 7.5 c 128,-1,11
 77 27 77 27 59 59.5 c 128,-1,12
 41 92 41 92 41 130 c 0,13,14
 41 171 41 171 57.5 200 c 128,-1,15
 74 229 74 229 107 250.5 c 128,-1,16
 140 272 140 272 189 289 c 0,17,18
 230 304 230 304 254 321 c 128,-1,19
 278 338 278 338 278 371 c 0,20,21
 278 387 278 387 271 399.5 c 128,-1,22
 264 412 264 412 247.5 419.5 c 128,-1,23
 231 427 231 427 203 427 c 0,24,25
 160 427 160 427 139 410.5 c 128,-1,26
 118 394 118 394 118 365 c 0,27,28
 118 352 118 352 121.5 341 c 128,-1,29
 125 330 125 330 128 323 c 1,30,-1
 53 302 l 1,31,32
 45 317 45 317 40.5 335.5 c 128,-1,33
 36 354 36 354 36 375 c 0,34,35
 36 407 36 407 53 435.5 c 128,-1,36
 70 464 70 464 107 482 c 128,-1,37
 144 500 144 500 203 500 c 0,38,39
 263 500 263 500 297 480 c 128,-1,40
 331 460 331 460 345.5 430 c 128,-1,41
 360 400 360 400 360 370 c 0,42,43
 360 332 360 332 345 305.5 c 128,-1,44
 330 279 330 279 300.5 260 c 128,-1,45
 271 241 271 241 227 225 c 0,46,47
 174 205 174 205 148.5 184.5 c 128,-1,48
 123 164 123 164 123 131 c 0,49,50
 123 102 123 102 143.5 84.5 c 128,-1,51
 164 67 164 67 207 67 c 0,52,53
 249 67 249 67 276.5 81.5 c 128,-1,54
 304 96 304 96 318.5 123 c 128,-1,55
 333 150 333 150 336 185 c 1,56,-1
 414 185 l 1,57,58
 418 124 418 124 450 95.5 c 128,-1,59
 482 67 482 67 527 67 c 0,60,61
 577 67 577 67 597.5 87 c 128,-1,62
 618 107 618 107 618 142 c 0,63,64
 618 165 618 165 611 184 c 128,-1,65
 604 203 604 203 593 221 c 1,66,-1
 667 252 l 1,67,68
 682 230 682 230 691.5 198.5 c 128,-1,69
 701 167 701 167 701 135 c 0,70,71
 701 89 701 89 681 56 c 128,-1,72
 661 23 661 23 623 5.5 c 128,-1,73
 585 -12 585 -12 530 -12 c 0,0,1
303 285 m 1,74,-1
 310 357 l 1,75,-1
 665 357 l 1,76,-1
 665 285 l 1,77,-1
 303 285 l 1,74,-1
545 500 m 1,78,-1
 538 349 l 1,79,-1
 459 349 l 1,80,-1
 452 500 l 1,81,-1
 545 500 l 1,78,-1
EndSplineSet
EndChar

StartChar: catelu
Encoding: 3098 3098 28
Width: 760
GlyphClass: 2
Flags: W
AnchorPoint: "Anchor-4" 380 -24 basechar 0
AnchorPoint: "Anchor-1" 760 -24 basechar 0
AnchorPoint: "Anchor-0" 380 700 basechar 0
LayerCount: 2
Fore
SplineSet
543 -12 m 0,0,1
 502 -12 502 -12 473 -2 c 128,-1,2
 444 8 444 8 421 30.5 c 128,-1,3
 398 53 398 53 375 89 c 1,4,-1
 395 91 l 1,5,6
 373 50 373 50 347.5 27.5 c 128,-1,7
 322 5 322 5 292.5 -3.5 c 128,-1,8
 263 -12 263 -12 228 -12 c 0,9,10
 180 -12 180 -12 143.5 7.5 c 128,-1,11
 107 27 107 27 86.5 62.5 c 128,-1,12
 66 98 66 98 66 144 c 0,13,14
 66 178 66 178 86.5 215 c 128,-1,15
 107 252 107 252 151 274 c 1,16,-1
 139 258 l 1,17,-1
 25 258 l 1,18,-1
 25 332 l 1,19,-1
 259 332 l 1,20,-1
 259 261 l 1,21,22
 199 248 199 248 173 218 c 128,-1,23
 147 188 147 188 147 149 c 0,24,25
 147 112 147 112 170 89.5 c 128,-1,26
 193 67 193 67 233 67 c 0,27,28
 283 67 283 67 312.5 99.5 c 128,-1,29
 342 132 342 132 346 185 c 1,30,-1
 423 185 l 1,31,32
 426 144 426 144 442.5 118 c 128,-1,33
 459 92 459 92 484 79.5 c 128,-1,34
 509 67 509 67 535 67 c 0,35,36
 563 67 563 67 587.5 77 c 128,-1,37
 612 87 612 87 627 114 c 128,-1,38
 642 141 642 141 642 192 c 0,39,40
 642 248 642 248 620.5 290.5 c 128,-1,41
 599 333 599 333 563.5 362 c 128,-1,42
 528 391 528 391 484.5 407 c 128,-1,43
 441 423 441 423 397 426 c 1,44,-1
 434 500 l 1,45,46
 530 485 530 485 594.5 441 c 128,-1,47
 659 397 659 397 692 333 c 128,-1,48
 725 269 725 269 725 194 c 0,49,50
 725 124 725 124 701 78.5 c 128,-1,51
 677 33 677 33 636 10.5 c 128,-1,52
 595 -12 595 -12 543 -12 c 0,0,1
387 425 m 0,53,54
 358 425 358 425 331.5 436 c 128,-1,55
 305 447 305 447 283 477.5 c 128,-1,56
 261 508 261 508 245 564 c 1,57,-1
 328 591 l 1,58,59
 343 536 343 536 357 518 c 128,-1,60
 371 500 371 500 393 500 c 0,61,62
 413 500 413 500 430.5 512.5 c 128,-1,63
 448 525 448 525 480 565 c 2,64,-1
 511 605 l 2,65,66
 545 649 545 649 573.5 675 c 128,-1,67
 602 701 602 701 634 713 c 128,-1,68
 666 725 666 725 710 725 c 1,69,-1
 716 648 l 1,70,71
 681 646 681 646 657.5 637 c 128,-1,72
 634 628 634 628 614.5 608.5 c 128,-1,73
 595 589 595 589 569 556 c 2,74,-1
 546 526 l 2,75,76
 518 490 518 490 493 468 c 128,-1,77
 468 446 468 446 442.5 435.5 c 128,-1,78
 417 425 417 425 387 425 c 0,53,54
EndSplineSet
EndChar

StartChar: chatelu
Encoding: 3099 3099 29
Width: 760
GlyphClass: 2
Flags: W
AnchorPoint: "Anchor-4" 380 -24 basechar 0
AnchorPoint: "Anchor-1" 760 -24 basechar 0
AnchorPoint: "Anchor-0" 380 700 basechar 0
LayerCount: 2
Fore
SplineSet
543 -12 m 0,0,1
 502 -12 502 -12 473 -2 c 128,-1,2
 444 8 444 8 421 30.5 c 128,-1,3
 398 53 398 53 375 89 c 1,4,-1
 395 91 l 1,5,6
 373 50 373 50 347.5 27.5 c 128,-1,7
 322 5 322 5 292.5 -3.5 c 128,-1,8
 263 -12 263 -12 228 -12 c 0,9,10
 180 -12 180 -12 143.5 7.5 c 128,-1,11
 107 27 107 27 86.5 62.5 c 128,-1,12
 66 98 66 98 66 144 c 0,13,14
 66 178 66 178 86.5 215 c 128,-1,15
 107 252 107 252 151 274 c 1,16,-1
 139 258 l 1,17,-1
 25 258 l 1,18,-1
 25 332 l 1,19,-1
 259 332 l 1,20,-1
 259 261 l 1,21,22
 199 248 199 248 173 218 c 128,-1,23
 147 188 147 188 147 149 c 0,24,25
 147 112 147 112 170 89.5 c 128,-1,26
 193 67 193 67 233 67 c 0,27,28
 283 67 283 67 312.5 99.5 c 128,-1,29
 342 132 342 132 346 185 c 1,30,-1
 423 185 l 1,31,32
 426 144 426 144 442.5 118 c 128,-1,33
 459 92 459 92 484 79.5 c 128,-1,34
 509 67 509 67 535 67 c 0,35,36
 563 67 563 67 587.5 77 c 128,-1,37
 612 87 612 87 627 114 c 128,-1,38
 642 141 642 141 642 192 c 0,39,40
 642 248 642 248 620.5 290.5 c 128,-1,41
 599 333 599 333 563.5 362 c 128,-1,42
 528 391 528 391 484.5 407 c 128,-1,43
 441 423 441 423 397 426 c 1,44,-1
 434 500 l 1,45,46
 530 485 530 485 594.5 441 c 128,-1,47
 659 397 659 397 692 333 c 128,-1,48
 725 269 725 269 725 194 c 0,49,50
 725 124 725 124 701 78.5 c 128,-1,51
 677 33 677 33 636 10.5 c 128,-1,52
 595 -12 595 -12 543 -12 c 0,0,1
340 -125 m 1,53,-1
 347 16 l 1,54,-1
 422 16 l 1,55,-1
 430 -125 l 1,56,-1
 340 -125 l 1,53,-1
387 425 m 0,57,58
 358 425 358 425 331.5 436 c 128,-1,59
 305 447 305 447 283 477.5 c 128,-1,60
 261 508 261 508 245 564 c 1,61,-1
 328 591 l 1,62,63
 343 536 343 536 357 518 c 128,-1,64
 371 500 371 500 393 500 c 0,65,66
 413 500 413 500 430.5 512.5 c 128,-1,67
 448 525 448 525 480 565 c 2,68,-1
 511 605 l 2,69,70
 545 649 545 649 573.5 675 c 128,-1,71
 602 701 602 701 634 713 c 128,-1,72
 666 725 666 725 710 725 c 1,73,-1
 716 648 l 1,74,75
 681 646 681 646 657.5 637 c 128,-1,76
 634 628 634 628 614.5 608.5 c 128,-1,77
 595 589 595 589 569 556 c 2,78,-1
 546 526 l 2,79,80
 518 490 518 490 493 468 c 128,-1,81
 468 446 468 446 442.5 435.5 c 128,-1,82
 417 425 417 425 387 425 c 0,57,58
EndSplineSet
EndChar

StartChar: jatelu
Encoding: 3100 3100 30
Width: 731
GlyphClass: 2
Flags: W
AnchorPoint: "Anchor-4" 365 -24 basechar 0
AnchorPoint: "Anchor-0" 365 700 basechar 0
LayerCount: 2
Fore
SplineSet
530 -12 m 0,0,1
 492 -12 492 -12 462.5 -1.5 c 128,-1,2
 433 9 433 9 409.5 31 c 128,-1,3
 386 53 386 53 366 89 c 1,4,-1
 386 90 l 1,5,6
 360 49 360 49 333 27 c 128,-1,7
 306 5 306 5 275 -3.5 c 128,-1,8
 244 -12 244 -12 205 -12 c 0,9,10
 150 -12 150 -12 113.5 7.5 c 128,-1,11
 77 27 77 27 59 59.5 c 128,-1,12
 41 92 41 92 41 130 c 0,13,14
 41 171 41 171 57.5 200 c 128,-1,15
 74 229 74 229 107 250.5 c 128,-1,16
 140 272 140 272 189 289 c 0,17,18
 230 304 230 304 254 321 c 128,-1,19
 278 338 278 338 278 371 c 0,20,21
 278 387 278 387 271 399.5 c 128,-1,22
 264 412 264 412 247.5 419.5 c 128,-1,23
 231 427 231 427 203 427 c 0,24,25
 160 427 160 427 139 410.5 c 128,-1,26
 118 394 118 394 118 365 c 0,27,28
 118 352 118 352 121.5 341 c 128,-1,29
 125 330 125 330 128 323 c 1,30,-1
 53 302 l 1,31,32
 45 317 45 317 40.5 335.5 c 128,-1,33
 36 354 36 354 36 375 c 0,34,35
 36 407 36 407 53 435.5 c 128,-1,36
 70 464 70 464 107 482 c 128,-1,37
 144 500 144 500 203 500 c 0,38,39
 263 500 263 500 297 480 c 128,-1,40
 331 460 331 460 345.5 430 c 128,-1,41
 360 400 360 400 360 370 c 0,42,43
 360 332 360 332 345 305.5 c 128,-1,44
 330 279 330 279 300.5 260 c 128,-1,45
 271 241 271 241 227 225 c 0,46,47
 174 205 174 205 148.5 184.5 c 128,-1,48
 123 164 123 164 123 131 c 0,49,50
 123 102 123 102 143.5 84.5 c 128,-1,51
 164 67 164 67 207 67 c 0,52,53
 249 67 249 67 276.5 81.5 c 128,-1,54
 304 96 304 96 318.5 123 c 128,-1,55
 333 150 333 150 336 185 c 1,56,-1
 414 185 l 1,57,58
 418 124 418 124 450 95.5 c 128,-1,59
 482 67 482 67 527 67 c 0,60,61
 574 67 574 67 596 87 c 128,-1,62
 618 107 618 107 618 142 c 0,63,64
 618 165 618 165 611 184 c 128,-1,65
 604 203 604 203 593 221 c 1,66,-1
 667 252 l 1,67,68
 682 230 682 230 691.5 198.5 c 128,-1,69
 701 167 701 167 701 135 c 0,70,71
 701 89 701 89 681 56 c 128,-1,72
 661 23 661 23 623 5.5 c 128,-1,73
 585 -12 585 -12 530 -12 c 0,0,1
673 377 m 0,74,75
 673 324 673 324 631.5 288 c 128,-1,76
 590 252 590 252 512 252 c 0,77,78
 458 252 458 252 416 267 c 128,-1,79
 374 282 374 282 345 306.5 c 128,-1,80
 316 331 316 331 299 357 c 1,81,-1
 335 414 l 1,82,83
 364 370 364 370 415 348.5 c 128,-1,84
 466 327 466 327 514 327 c 0,85,86
 541 327 541 327 558 333 c 128,-1,87
 575 339 575 339 583.5 350 c 128,-1,88
 592 361 592 361 592 376 c 0,89,90
 592 404 592 404 571 414.5 c 128,-1,91
 550 425 550 425 521 425 c 0,92,93
 503 425 503 425 488 423 c 128,-1,94
 473 421 473 421 460 419 c 1,95,-1
 450 491 l 1,96,97
 462 494 462 494 482 497 c 128,-1,98
 502 500 502 500 529 500 c 0,99,100
 565 500 565 500 598 489 c 128,-1,101
 631 478 631 478 652 451 c 128,-1,102
 673 424 673 424 673 377 c 0,74,75
EndSplineSet
EndChar

StartChar: nyatelu
Encoding: 3102 3102 32
Width: 979
GlyphClass: 2
Flags: W
AnchorPoint: "Anchor-4" 392 -24 basechar 0
AnchorPoint: "Anchor-1" 979 -24 basechar 0
AnchorPoint: "Anchor-0" 392 700 basechar 0
LayerCount: 2
Fore
SplineSet
300 -12 m 0,0,1
 228 -12 228 -12 182 5.5 c 128,-1,2
 136 23 136 23 114.5 55.5 c 128,-1,3
 93 88 93 88 93 132 c 0,4,5
 93 195 93 195 144 232 c 128,-1,6
 195 269 195 269 292 269 c 0,7,8
 390 269 390 269 460 229 c 128,-1,9
 530 189 530 189 567 132 c 0,10,11
 587 101 587 101 598 69 c 128,-1,12
 609 37 609 37 609 0 c 0,13,14
 609 -25 609 -25 605 -49.5 c 128,-1,15
 601 -74 601 -74 591 -97 c 1,16,-1
 518 -82 l 1,17,18
 525 -65 525 -65 528.5 -44 c 128,-1,19
 532 -23 532 -23 532 4 c 0,20,21
 532 58 532 58 502.5 101 c 128,-1,22
 473 144 473 144 419.5 169 c 128,-1,23
 366 194 366 194 292 194 c 0,24,25
 235 194 235 194 205.5 177.5 c 128,-1,26
 176 161 176 161 176 132 c 0,27,28
 176 110 176 110 189 94.5 c 128,-1,29
 202 79 202 79 230 71 c 128,-1,30
 258 63 258 63 302 63 c 0,31,32
 373 63 373 63 431.5 83.5 c 128,-1,33
 490 104 490 104 523 146 c 0,34,35
 547 172 547 172 559 207.5 c 128,-1,36
 571 243 571 243 571 286 c 0,37,38
 571 335 571 335 557.5 364.5 c 128,-1,39
 544 394 544 394 521 407.5 c 128,-1,40
 498 421 498 421 469 421 c 256,41,42
 440 421 440 421 418.5 407 c 128,-1,43
 397 393 397 393 384 370 c 128,-1,44
 371 347 371 347 366 318 c 1,45,-1
 288 318 l 1,46,47
 279 371 279 371 253 398 c 128,-1,48
 227 425 227 425 184 425 c 0,49,50
 147 425 147 425 129.5 407.5 c 128,-1,51
 112 390 112 390 112 364 c 0,52,53
 112 348 112 348 116.5 331.5 c 128,-1,54
 121 315 121 315 126 305 c 1,55,-1
 50 283 l 1,56,57
 42 300 42 300 35.5 321.5 c 128,-1,58
 29 343 29 343 29 372 c 0,59,60
 29 411 29 411 49.5 439.5 c 128,-1,61
 70 468 70 468 104.5 484 c 128,-1,62
 139 500 139 500 181 500 c 0,63,64
 218 500 218 500 245.5 489.5 c 128,-1,65
 273 479 273 479 295 456.5 c 128,-1,66
 317 434 317 434 335 398 c 1,67,-1
 317 396 l 1,68,69
 338 438 338 438 363.5 460.5 c 128,-1,70
 389 483 389 483 418 491.5 c 128,-1,71
 447 500 447 500 476 500 c 0,72,73
 514 500 514 500 546.5 485.5 c 128,-1,74
 579 471 579 471 603 443.5 c 128,-1,75
 627 416 627 416 640 376.5 c 128,-1,76
 653 337 653 337 653 287 c 0,77,78
 653 220 653 220 632 170.5 c 128,-1,79
 611 121 611 121 571 83 c 0,80,81
 568 80 568 80 565 78.5 c 128,-1,82
 562 77 562 77 559 75 c 128,-1,83
 556 73 556 73 552 70 c 0,84,85
 506 32 506 32 446.5 10 c 128,-1,86
 387 -12 387 -12 300 -12 c 0,0,1
586 285 m 1,87,-1
 593 357 l 1,88,-1
 948 357 l 1,89,-1
 948 285 l 1,90,-1
 586 285 l 1,87,-1
828 500 m 1,91,-1
 821 349 l 1,92,-1
 742 349 l 1,93,-1
 735 500 l 1,94,-1
 828 500 l 1,91,-1
EndSplineSet
EndChar

StartChar: ttatelu
Encoding: 3103 3103 33
Width: 772
GlyphClass: 2
Flags: W
AnchorPoint: "Anchor-4" 386 -24 basechar 0
AnchorPoint: "Anchor-1" 772 -24 basechar 0
AnchorPoint: "Anchor-0" 386 700 basechar 0
LayerCount: 2
Fore
SplineSet
555 -12 m 0,0,1
 518 -12 518 -12 488 -2.5 c 128,-1,2
 458 7 458 7 433.5 29 c 128,-1,3
 409 51 409 51 387 90 c 1,4,-1
 408 91 l 1,5,6
 385 49 385 49 358 26.5 c 128,-1,7
 331 4 331 4 300.5 -4 c 128,-1,8
 270 -12 270 -12 236 -12 c 0,9,10
 188 -12 188 -12 151.5 5.5 c 128,-1,11
 115 23 115 23 90 55.5 c 128,-1,12
 65 88 65 88 52 133 c 128,-1,13
 39 178 39 178 39 232 c 0,14,15
 39 301 39 301 56.5 352 c 128,-1,16
 74 403 74 403 104 435.5 c 128,-1,17
 134 468 134 468 170.5 484 c 128,-1,18
 207 500 207 500 245 500 c 0,19,20
 288 500 288 500 318.5 484.5 c 128,-1,21
 349 469 349 469 365.5 440.5 c 128,-1,22
 382 412 382 412 382 373 c 0,23,24
 382 333 382 333 365.5 301.5 c 128,-1,25
 349 270 349 270 315 252.5 c 128,-1,26
 281 235 281 235 227 235 c 0,27,28
 194 235 194 235 164 246 c 128,-1,29
 134 257 134 257 111.5 273 c 128,-1,30
 89 289 89 289 76 304 c 1,31,-1
 100 366 l 1,32,33
 108 355 108 355 124.5 340.5 c 128,-1,34
 141 326 141 326 165.5 315.5 c 128,-1,35
 190 305 190 305 222 305 c 0,36,37
 262 305 262 305 282.5 322 c 128,-1,38
 303 339 303 339 303 369 c 0,39,40
 303 398 303 398 287 413.5 c 128,-1,41
 271 429 271 429 244 429 c 0,42,43
 209 429 209 429 180.5 407 c 128,-1,44
 152 385 152 385 135 343.5 c 128,-1,45
 118 302 118 302 118 242 c 2,46,-1
 118 234 l 2,47,48
 118 193 118 193 128.5 154.5 c 128,-1,49
 139 116 139 116 165.5 91.5 c 128,-1,50
 192 67 192 67 238 67 c 0,51,52
 277 67 277 67 302.5 81.5 c 128,-1,53
 328 96 328 96 341.5 123 c 128,-1,54
 355 150 355 150 358 185 c 1,55,-1
 436 185 l 1,56,57
 439 144 439 144 455 118 c 128,-1,58
 471 92 471 92 495 79.5 c 128,-1,59
 519 67 519 67 547 67 c 0,60,61
 602 67 602 67 628 99.5 c 128,-1,62
 654 132 654 132 654 193 c 0,63,64
 654 251 654 251 630.5 294.5 c 128,-1,65
 607 338 607 338 567.5 369.5 c 128,-1,66
 528 401 528 401 478 423 c 1,67,-1
 515 500 l 1,68,69
 577 474 577 474 627 430 c 128,-1,70
 677 386 677 386 707 328 c 128,-1,71
 737 270 737 270 737 199 c 0,72,73
 737 132 737 132 714.5 84.5 c 128,-1,74
 692 37 692 37 651.5 12.5 c 128,-1,75
 611 -12 611 -12 555 -12 c 0,0,1
282 624 m 1,76,-1
 275 478 l 1,77,-1
 199 478 l 1,78,-1
 192 624 l 1,79,-1
 282 624 l 1,76,-1
EndSplineSet
EndChar

StartChar: nnatelu
Encoding: 3107 3107 37
Width: 826
GlyphClass: 2
Flags: W
AnchorPoint: "Anchor-4" 413 -24 basechar 0
AnchorPoint: "Anchor-1" 826 -24 basechar 0
AnchorPoint: "Anchor-0" 413 700 basechar 0
LayerCount: 2
Fore
SplineSet
587 -12 m 0,0,1
 539 -12 539 -12 505.5 5 c 128,-1,2
 472 22 472 22 455 53 c 128,-1,3
 438 84 438 84 438 124 c 0,4,5
 438 162 438 162 454 193.5 c 128,-1,6
 470 225 470 225 503.5 243.5 c 128,-1,7
 537 262 537 262 588 262 c 0,8,9
 631 262 631 262 661 249.5 c 128,-1,10
 691 237 691 237 713 216 c 128,-1,11
 735 195 735 195 753 170 c 1,12,-1
 716 105 l 1,13,14
 705 126 705 126 687.5 146 c 128,-1,15
 670 166 670 166 646.5 179 c 128,-1,16
 623 192 623 192 592 192 c 0,17,18
 559 192 559 192 539.5 174 c 128,-1,19
 520 156 520 156 520 127 c 0,20,21
 520 96 520 96 537.5 78 c 128,-1,22
 555 60 555 60 591 60 c 0,23,24
 623 60 623 60 649.5 74 c 128,-1,25
 676 88 676 88 692 124.5 c 128,-1,26
 708 161 708 161 708 226 c 2,27,-1
 708 239 l 2,28,29
 708 292 708 292 692 333 c 128,-1,30
 676 374 676 374 646 397.5 c 128,-1,31
 616 421 616 421 574 421 c 0,32,33
 540 421 540 421 516 406.5 c 128,-1,34
 492 392 492 392 478 369 c 128,-1,35
 464 346 464 346 459 318 c 1,36,-1
 382 318 l 1,37,38
 376 344 376 344 358.5 368.5 c 128,-1,39
 341 393 341 393 309.5 409 c 128,-1,40
 278 425 278 425 227 425 c 0,41,42
 182 425 182 425 154 407 c 128,-1,43
 126 389 126 389 126 354 c 0,44,45
 126 338 126 338 132.5 325 c 128,-1,46
 139 312 139 312 154 302 c 0,47,48
 168 292 168 292 193 286.5 c 128,-1,49
 218 281 218 281 259 281 c 2,50,-1
 302 281 l 1,51,-1
 302 206 l 1,52,-1
 245 206 l 2,53,54
 204 206 204 206 178.5 201 c 128,-1,55
 153 196 153 196 139 184 c 0,56,57
 129 175 129 175 123.5 162 c 128,-1,58
 118 149 118 149 118 131 c 0,59,60
 118 103 118 103 137 83 c 128,-1,61
 156 63 156 63 202 63 c 0,62,63
 237 63 237 63 265.5 79.5 c 128,-1,64
 294 96 294 96 323 136 c 1,65,-1
 390 86 l 1,66,67
 363 53 363 53 334.5 31.5 c 128,-1,68
 306 10 306 10 272.5 -1 c 128,-1,69
 239 -12 239 -12 196 -12 c 0,70,71
 113 -12 113 -12 73 27 c 128,-1,72
 33 66 33 66 33 122 c 0,73,74
 33 152 33 152 44 177 c 128,-1,75
 55 202 55 202 78 221 c 128,-1,76
 101 240 101 240 138 249 c 1,77,-1
 137 237 l 1,78,79
 85 254 85 254 63 288 c 128,-1,80
 41 322 41 322 41 363 c 0,81,82
 41 425 41 425 91 462.5 c 128,-1,83
 141 500 141 500 226 500 c 0,84,85
 276 500 276 500 312.5 488.5 c 128,-1,86
 349 477 349 477 376.5 454 c 128,-1,87
 404 431 404 431 428 398 c 1,88,-1
 411 396 l 1,89,90
 429 429 429 429 452.5 452 c 128,-1,91
 476 475 476 475 507 487.5 c 128,-1,92
 538 500 538 500 577 500 c 0,93,94
 645 500 645 500 692.5 465 c 128,-1,95
 740 430 740 430 765.5 370.5 c 128,-1,96
 791 311 791 311 791 236 c 0,97,98
 791 158 791 158 767.5 102.5 c 128,-1,99
 744 47 744 47 699 17.5 c 128,-1,100
 654 -12 654 -12 587 -12 c 0,0,1
EndSplineSet
EndChar

StartChar: tatelu
Encoding: 3108 3108 38
Width: 778
GlyphClass: 2
Flags: W
AnchorPoint: "Anchor-4" 389 -24 basechar 0
AnchorPoint: "Anchor-1" 778 -24 basechar 0
AnchorPoint: "Anchor-0" 389 700 basechar 0
LayerCount: 2
Fore
SplineSet
394 -12 m 0,0,1
 273 -12 273 -12 193.5 20.5 c 128,-1,2
 114 53 114 53 75 109.5 c 128,-1,3
 36 166 36 166 36 237 c 0,4,5
 36 293 36 293 59.5 335.5 c 128,-1,6
 83 378 83 378 124 401.5 c 128,-1,7
 165 425 165 425 218 425 c 0,8,9
 260 425 260 425 290 409.5 c 128,-1,10
 320 394 320 394 336 366 c 128,-1,11
 352 338 352 338 352 301 c 0,12,13
 352 240 352 240 310.5 203.5 c 128,-1,14
 269 167 269 167 194 167 c 0,15,16
 172 167 172 167 152 171.5 c 128,-1,17
 132 176 132 176 115 183 c 128,-1,18
 98 190 98 190 83 199 c 1,19,-1
 90 270 l 1,20,21
 110 255 110 255 132.5 246 c 128,-1,22
 155 237 155 237 182 237 c 0,23,24
 231 237 231 237 251.5 255 c 128,-1,25
 272 273 272 273 272 301 c 0,26,27
 272 327 272 327 256.5 340.5 c 128,-1,28
 241 354 241 354 213 354 c 0,29,30
 183 354 183 354 159.5 340 c 128,-1,31
 136 326 136 326 122 302 c 128,-1,32
 108 278 108 278 108 246 c 2,33,-1
 108 241 l 2,34,35
 108 198 108 198 128.5 165.5 c 128,-1,36
 149 133 149 133 186 111 c 128,-1,37
 223 89 223 89 274.5 78 c 128,-1,38
 326 67 326 67 389 67 c 0,39,40
 472 67 472 67 526.5 84 c 128,-1,41
 581 101 581 101 612 128 c 128,-1,42
 643 155 643 155 655.5 186 c 128,-1,43
 668 217 668 217 668 246 c 2,44,-1
 668 290 l 1,45,46
 659 317 659 317 635 335.5 c 128,-1,47
 611 354 611 354 576 354 c 0,48,49
 551 354 551 354 530.5 339.5 c 128,-1,50
 510 325 510 325 510 293 c 0,51,52
 510 271 510 271 526 254 c 128,-1,53
 542 237 542 237 576 237 c 0,54,55
 602 237 602 237 621 246.5 c 128,-1,56
 640 256 640 256 651.5 273.5 c 128,-1,57
 663 291 663 291 668 314 c 1,58,-1
 684 224 l 1,59,60
 669 206 669 206 651.5 193 c 128,-1,61
 634 180 634 180 612.5 173.5 c 128,-1,62
 591 167 591 167 563 167 c 0,63,64
 525 167 525 167 495 182 c 128,-1,65
 465 197 465 197 448 224.5 c 128,-1,66
 431 252 431 252 431 290 c 0,67,68
 431 346 431 346 466.5 377.5 c 128,-1,69
 502 409 502 409 561 409 c 0,70,71
 567 409 567 409 574.5 408 c 128,-1,72
 582 407 582 407 591 405 c 128,-1,73
 600 403 600 403 608 400 c 1,74,-1
 596 399 l 1,75,76
 576 409 576 409 545 415 c 128,-1,77
 514 421 514 421 482.5 424.5 c 128,-1,78
 451 428 451 428 429 428 c 1,79,-1
 449 496 l 1,80,81
 526 489 526 489 582 467.5 c 128,-1,82
 638 446 638 446 673.5 413 c 128,-1,83
 709 380 709 380 726 337.5 c 128,-1,84
 743 295 743 295 743 245 c 0,85,86
 743 190 743 190 722.5 143 c 128,-1,87
 702 96 702 96 659.5 61.5 c 128,-1,88
 617 27 617 27 551 7.5 c 128,-1,89
 485 -12 485 -12 394 -12 c 0,0,1
409 425 m 0,90,91
 380 425 380 425 353.5 436 c 128,-1,92
 327 447 327 447 305 477.5 c 128,-1,93
 283 508 283 508 267 564 c 1,94,-1
 350 591 l 1,95,96
 365 536 365 536 379 518 c 128,-1,97
 393 500 393 500 415 500 c 0,98,99
 435 500 435 500 452.5 512.5 c 128,-1,100
 470 525 470 525 502 565 c 2,101,-1
 533 605 l 2,102,103
 567 649 567 649 595.5 675 c 128,-1,104
 624 701 624 701 656 713 c 128,-1,105
 688 725 688 725 732 725 c 1,106,-1
 738 648 l 1,107,108
 703 646 703 646 679.5 637 c 128,-1,109
 656 628 656 628 636.5 608.5 c 128,-1,110
 617 589 617 589 591 556 c 2,111,-1
 568 526 l 2,112,113
 540 490 540 490 515 468 c 128,-1,114
 490 446 490 446 464.5 435.5 c 128,-1,115
 439 425 439 425 409 425 c 0,90,91
EndSplineSet
EndChar

StartChar: natelu
Encoding: 3112 3112 42
Width: 702
GlyphClass: 2
Flags: W
AnchorPoint: "Anchor-4" 351 -24 basechar 0
AnchorPoint: "Anchor-1" 702 -24 basechar 0
AnchorPoint: "Anchor-0" 351 700 basechar 0
LayerCount: 2
Fore
SplineSet
472 -12 m 0,0,1
 425 -12 425 -12 390 3.5 c 128,-1,2
 355 19 355 19 324 51.5 c 128,-1,3
 293 84 293 84 256 133 c 0,4,5
 235 162 235 162 220.5 178.5 c 128,-1,6
 206 195 206 195 193.5 202 c 128,-1,7
 181 209 181 209 164 209 c 0,8,9
 141 209 141 209 126 190.5 c 128,-1,10
 111 172 111 172 111 143 c 0,11,12
 111 108 111 108 123 77 c 128,-1,13
 135 46 135 46 159 14 c 1,14,-1
 78 -13 l 1,15,16
 56 22 56 22 42.5 59.5 c 128,-1,17
 29 97 29 97 29 143 c 0,18,19
 29 184 29 184 46.5 216 c 128,-1,20
 64 248 64 248 94.5 267 c 128,-1,21
 125 286 125 286 165 286 c 0,22,23
 204 286 204 286 230.5 272.5 c 128,-1,24
 257 259 257 259 279.5 234.5 c 128,-1,25
 302 210 302 210 328 175 c 0,26,27
 358 136 358 136 380.5 112 c 128,-1,28
 403 88 403 88 425.5 77.5 c 128,-1,29
 448 67 448 67 478 67 c 0,30,31
 530 67 530 67 557 100 c 128,-1,32
 584 133 584 133 584 194 c 0,33,34
 584 250 584 250 561 293 c 128,-1,35
 538 336 538 336 497 365.5 c 128,-1,36
 456 395 456 395 401 410 c 128,-1,37
 346 425 346 425 282 425 c 2,38,-1
 238 425 l 1,39,-1
 316 500 l 1,40,41
 428 493 428 493 506 452.5 c 128,-1,42
 584 412 584 412 625.5 345.5 c 128,-1,43
 667 279 667 279 667 194 c 0,44,45
 667 132 667 132 645 85.5 c 128,-1,46
 623 39 623 39 580 13.5 c 128,-1,47
 537 -12 537 -12 472 -12 c 0,0,1
236 425 m 0,48,49
 207 425 207 425 180.5 436 c 128,-1,50
 154 447 154 447 132 477.5 c 128,-1,51
 110 508 110 508 94 564 c 1,52,-1
 177 591 l 1,53,54
 192 536 192 536 206 518 c 128,-1,55
 220 500 220 500 242 500 c 0,56,57
 262 500 262 500 279.5 512.5 c 128,-1,58
 297 525 297 525 329 565 c 2,59,-1
 360 605 l 2,60,61
 394 649 394 649 422.5 675 c 128,-1,62
 451 701 451 701 483 713 c 128,-1,63
 515 725 515 725 559 725 c 1,64,-1
 565 648 l 1,65,66
 530 646 530 646 506.5 637 c 128,-1,67
 483 628 483 628 463.5 608.5 c 128,-1,68
 444 589 444 589 418 556 c 2,69,-1
 395 526 l 2,70,71
 367 490 367 490 342 468 c 128,-1,72
 317 446 317 446 291.5 435.5 c 128,-1,73
 266 425 266 425 236 425 c 0,48,49
EndSplineSet
EndChar

StartChar: batelu
Encoding: 3116 3116 45
Width: 750
GlyphClass: 2
Flags: W
AnchorPoint: "Anchor-4" 375 -24 basechar 0
AnchorPoint: "Anchor-1" 750 -24 basechar 0
AnchorPoint: "Anchor-0" 375 700 basechar 0
LayerCount: 2
Fore
SplineSet
533 -12 m 0,0,1
 496 -12 496 -12 466 -2.5 c 128,-1,2
 436 7 436 7 411.5 29 c 128,-1,3
 387 51 387 51 365 90 c 1,4,-1
 386 90 l 1,5,6
 360 49 360 49 333 27 c 128,-1,7
 306 5 306 5 275 -3.5 c 128,-1,8
 244 -12 244 -12 205 -12 c 0,9,10
 150 -12 150 -12 113.5 7.5 c 128,-1,11
 77 27 77 27 59 59.5 c 128,-1,12
 41 92 41 92 41 130 c 0,13,14
 41 171 41 171 57.5 200 c 128,-1,15
 74 229 74 229 107 250.5 c 128,-1,16
 140 272 140 272 189 289 c 0,17,18
 230 304 230 304 254 321 c 128,-1,19
 278 338 278 338 278 371 c 0,20,21
 278 387 278 387 271 399.5 c 128,-1,22
 264 412 264 412 247.5 419.5 c 128,-1,23
 231 427 231 427 203 427 c 0,24,25
 160 427 160 427 139 410.5 c 128,-1,26
 118 394 118 394 118 365 c 0,27,28
 118 352 118 352 121.5 341 c 128,-1,29
 125 330 125 330 128 323 c 1,30,-1
 53 302 l 1,31,32
 45 317 45 317 40.5 335.5 c 128,-1,33
 36 354 36 354 36 375 c 0,34,35
 36 407 36 407 53 435.5 c 128,-1,36
 70 464 70 464 107 482 c 128,-1,37
 144 500 144 500 203 500 c 0,38,39
 263 500 263 500 297 480 c 128,-1,40
 331 460 331 460 345.5 430 c 128,-1,41
 360 400 360 400 360 370 c 0,42,43
 360 332 360 332 345 305.5 c 128,-1,44
 330 279 330 279 300.5 260 c 128,-1,45
 271 241 271 241 227 225 c 0,46,47
 174 205 174 205 148.5 184.5 c 128,-1,48
 123 164 123 164 123 131 c 0,49,50
 123 102 123 102 143.5 84.5 c 128,-1,51
 164 67 164 67 207 67 c 0,52,53
 249 67 249 67 276.5 81.5 c 128,-1,54
 304 96 304 96 318.5 123 c 128,-1,55
 333 150 333 150 336 185 c 1,56,-1
 414 185 l 1,57,58
 417 144 417 144 433 118 c 128,-1,59
 449 92 449 92 473 79.5 c 128,-1,60
 497 67 497 67 525 67 c 0,61,62
 580 67 580 67 606 99.5 c 128,-1,63
 632 132 632 132 632 193 c 0,64,65
 632 251 632 251 608.5 294.5 c 128,-1,66
 585 338 585 338 545.5 369.5 c 128,-1,67
 506 401 506 401 456 423 c 1,68,-1
 493 500 l 1,69,70
 555 474 555 474 605 430 c 128,-1,71
 655 386 655 386 685 328 c 128,-1,72
 715 270 715 270 715 199 c 0,73,74
 715 132 715 132 692.5 84.5 c 128,-1,75
 670 37 670 37 629.5 12.5 c 128,-1,76
 589 -12 589 -12 533 -12 c 0,0,1
EndSplineSet
EndChar

StartChar: bhatelu
Encoding: 3117 3117 46
Width: 750
GlyphClass: 2
Flags: W
AnchorPoint: "Anchor-4" 375 -24 basechar 0
AnchorPoint: "Anchor-1" 750 -24 basechar 0
AnchorPoint: "Anchor-0" 375 700 basechar 0
LayerCount: 2
Fore
SplineSet
533 -12 m 0,0,1
 496 -12 496 -12 466 -2.5 c 128,-1,2
 436 7 436 7 412 29 c 128,-1,3
 388 51 388 51 365 90 c 1,4,-1
 386 90 l 1,5,6
 360 49 360 49 333 27 c 128,-1,7
 306 5 306 5 275 -3.5 c 128,-1,8
 244 -12 244 -12 205 -12 c 0,9,10
 150 -12 150 -12 113.5 7.5 c 128,-1,11
 77 27 77 27 59 59.5 c 128,-1,12
 41 92 41 92 41 130 c 0,13,14
 41 171 41 171 57.5 200 c 128,-1,15
 74 229 74 229 107 250.5 c 128,-1,16
 140 272 140 272 189 289 c 0,17,18
 230 304 230 304 254 321 c 128,-1,19
 278 338 278 338 278 371 c 0,20,21
 278 387 278 387 271 399.5 c 128,-1,22
 264 412 264 412 247.5 419.5 c 128,-1,23
 231 427 231 427 203 427 c 0,24,25
 160 427 160 427 139 410.5 c 128,-1,26
 118 394 118 394 118 365 c 0,27,28
 118 352 118 352 121.5 341 c 128,-1,29
 125 330 125 330 128 323 c 1,30,-1
 53 302 l 1,31,32
 45 317 45 317 40.5 335.5 c 128,-1,33
 36 354 36 354 36 375 c 0,34,35
 36 407 36 407 53 435.5 c 128,-1,36
 70 464 70 464 107 482 c 128,-1,37
 144 500 144 500 203 500 c 0,38,39
 263 500 263 500 297 480 c 128,-1,40
 331 460 331 460 345.5 430 c 128,-1,41
 360 400 360 400 360 370 c 0,42,43
 360 332 360 332 345 305.5 c 128,-1,44
 330 279 330 279 300.5 260 c 128,-1,45
 271 241 271 241 227 225 c 0,46,47
 174 205 174 205 148.5 184.5 c 128,-1,48
 123 164 123 164 123 131 c 0,49,50
 123 102 123 102 143.5 84.5 c 128,-1,51
 164 67 164 67 207 67 c 0,52,53
 249 67 249 67 276.5 81.5 c 128,-1,54
 304 96 304 96 318.5 123 c 128,-1,55
 333 150 333 150 336 185 c 1,56,-1
 414 185 l 1,57,58
 417 144 417 144 433 118 c 128,-1,59
 449 92 449 92 473 79.5 c 128,-1,60
 497 67 497 67 525 67 c 0,61,62
 580 67 580 67 606 99 c 128,-1,63
 632 131 632 131 632 192 c 0,64,65
 632 250 632 250 609 294.5 c 128,-1,66
 586 339 586 339 547.5 371.5 c 128,-1,67
 509 404 509 404 463 427 c 1,68,-1
 491 497 l 1,69,70
 554 472 554 472 604.5 429 c 128,-1,71
 655 386 655 386 685 327.5 c 128,-1,72
 715 269 715 269 715 198 c 0,73,74
 715 132 715 132 692.5 85 c 128,-1,75
 670 38 670 38 629.5 13 c 128,-1,76
 589 -12 589 -12 533 -12 c 0,0,1
329 -125 m 1,77,-1
 336 16 l 1,78,-1
 411 16 l 1,79,-1
 419 -125 l 1,80,-1
 329 -125 l 1,77,-1
465 425 m 0,81,82
 436 425 436 425 409.5 436 c 128,-1,83
 383 447 383 447 361 477.5 c 128,-1,84
 339 508 339 508 323 564 c 1,85,-1
 406 591 l 1,86,87
 421 536 421 536 435 518 c 128,-1,88
 449 500 449 500 471 500 c 0,89,90
 491 500 491 500 508.5 512.5 c 128,-1,91
 526 525 526 525 558 565 c 2,92,-1
 589 605 l 2,93,94
 623 649 623 649 651.5 675 c 128,-1,95
 680 701 680 701 712 713 c 128,-1,96
 744 725 744 725 788 725 c 1,97,-1
 794 648 l 1,98,99
 759 646 759 646 735.5 637 c 128,-1,100
 712 628 712 628 692.5 608.5 c 128,-1,101
 673 589 673 589 647 556 c 2,102,-1
 624 526 l 2,103,104
 596 490 596 490 571 468 c 128,-1,105
 546 446 546 446 520.5 435.5 c 128,-1,106
 495 425 495 425 465 425 c 0,81,82
EndSplineSet
EndChar

StartChar: yatelu
Encoding: 3119 3119 48
Width: 1286
GlyphClass: 2
Flags: W
AnchorPoint: "Anchor-4" 643 -24 basechar 0
AnchorPoint: "Anchor-1" 1286 -24 basechar 0
AnchorPoint: "Anchor-0" 643 700 basechar 0
LayerCount: 2
Fore
SplineSet
35 236 m 0,0,1
 35 314 35 314 68 373.5 c 128,-1,2
 101 433 101 433 159.5 466.5 c 128,-1,3
 218 500 218 500 296 500 c 0,4,5
 375 500 375 500 433.5 467.5 c 128,-1,6
 492 435 492 435 525 376 c 128,-1,7
 558 317 558 317 558 237 c 0,8,9
 558 163 558 163 526 106.5 c 128,-1,10
 494 50 494 50 435 19 c 128,-1,11
 376 -12 376 -12 296 -12 c 0,12,13
 217 -12 217 -12 158.5 19 c 128,-1,14
 100 50 100 50 67.5 105.5 c 128,-1,15
 35 161 35 161 35 236 c 0,0,1
118 245 m 0,16,17
 118 167 118 167 163 117 c 128,-1,18
 208 67 208 67 296 67 c 0,19,20
 356 67 356 67 395.5 89 c 128,-1,21
 435 111 435 111 455 150.5 c 128,-1,22
 475 190 475 190 475 240 c 256,23,24
 475 290 475 290 455.5 331 c 128,-1,25
 436 372 436 372 396.5 396.5 c 128,-1,26
 357 421 357 421 296 421 c 256,27,28
 235 421 235 421 195.5 396.5 c 128,-1,29
 156 372 156 372 137 332 c 128,-1,30
 118 292 118 292 118 245 c 0,16,17
709 -12 m 0,31,32
 642 -12 642 -12 591.5 22 c 128,-1,33
 541 56 541 56 502 111 c 1,34,-1
 542 176 l 1,35,36
 570 139 570 139 597.5 115 c 128,-1,37
 625 91 625 91 654.5 79 c 128,-1,38
 684 67 684 67 716 67 c 0,39,40
 767 67 767 67 794 99.5 c 128,-1,41
 821 132 821 132 821 193 c 0,42,43
 821 251 821 251 797.5 295 c 128,-1,44
 774 339 774 339 733.5 371 c 128,-1,45
 693 403 693 403 642 426 c 1,46,-1
 679 492 l 1,47,48
 741 466 741 466 792 422.5 c 128,-1,49
 843 379 843 379 873.5 322.5 c 128,-1,50
 904 266 904 266 904 199 c 0,51,52
 904 100 904 100 854 44 c 128,-1,53
 804 -12 804 -12 709 -12 c 0,31,32
1056 -12 m 0,54,55
 989 -12 989 -12 938.5 22 c 128,-1,56
 888 56 888 56 849 111 c 1,57,-1
 889 176 l 1,58,59
 917 139 917 139 944.5 115 c 128,-1,60
 972 91 972 91 1001.5 79 c 128,-1,61
 1031 67 1031 67 1063 67 c 0,62,63
 1114 67 1114 67 1141 99.5 c 128,-1,64
 1168 132 1168 132 1168 193 c 0,65,66
 1168 251 1168 251 1144.5 294.5 c 128,-1,67
 1121 338 1121 338 1081.5 369.5 c 128,-1,68
 1042 401 1042 401 992 423 c 1,69,-1
 1029 500 l 1,70,71
 1091 474 1091 474 1141 430 c 128,-1,72
 1191 386 1191 386 1221 328 c 128,-1,73
 1251 270 1251 270 1251 199 c 0,74,75
 1251 100 1251 100 1201 44 c 128,-1,76
 1151 -12 1151 -12 1056 -12 c 0,54,55
635 425 m 0,77,78
 606 425 606 425 579.5 436 c 128,-1,79
 553 447 553 447 531 477.5 c 128,-1,80
 509 508 509 508 493 564 c 1,81,-1
 576 591 l 1,82,83
 591 536 591 536 605 518 c 128,-1,84
 619 500 619 500 641 500 c 0,85,86
 661 500 661 500 678.5 512.5 c 128,-1,87
 696 525 696 525 728 565 c 2,88,-1
 759 605 l 2,89,90
 793 649 793 649 821.5 675 c 128,-1,91
 850 701 850 701 882 713 c 128,-1,92
 914 725 914 725 958 725 c 1,93,-1
 964 648 l 1,94,95
 929 646 929 646 905.5 637 c 128,-1,96
 882 628 882 628 862.5 608.5 c 128,-1,97
 843 589 843 589 817 556 c 2,98,-1
 794 526 l 2,99,100
 766 490 766 490 741 468 c 128,-1,101
 716 446 716 446 690.5 435.5 c 128,-1,102
 665 425 665 425 635 425 c 0,77,78
EndSplineSet
EndChar

StartChar: rratelu
Encoding: 3121 3121 50
Width: 822
GlyphClass: 2
Flags: W
AnchorPoint: "Anchor-4" 411 -24 basechar 0
AnchorPoint: "Anchor-1" 821 -24 basechar 0
AnchorPoint: "Anchor-0" 411 700 basechar 0
LayerCount: 2
Fore
SplineSet
570 -12 m 0,0,1
 529 -12 529 -12 499 -2 c 128,-1,2
 469 8 469 8 446.5 30 c 128,-1,3
 424 52 424 52 403 88 c 1,4,-1
 421 91 l 1,5,6
 400 48 400 48 374 25.5 c 128,-1,7
 348 3 348 3 318.5 -4.5 c 128,-1,8
 289 -12 289 -12 254 -12 c 0,9,10
 199 -12 199 -12 158 8 c 128,-1,11
 117 28 117 28 90 63.5 c 128,-1,12
 63 99 63 99 50 146.5 c 128,-1,13
 37 194 37 194 37 250 c 0,14,15
 37 332 37 332 62.5 387.5 c 128,-1,16
 88 443 88 443 131 471.5 c 128,-1,17
 174 500 174 500 226 500 c 0,18,19
 266 500 266 500 295.5 484.5 c 128,-1,20
 325 469 325 469 341.5 440.5 c 128,-1,21
 358 412 358 412 358 373 c 0,22,23
 358 312 358 312 321 273.5 c 128,-1,24
 284 235 284 235 203 235 c 0,25,26
 153 235 153 235 116 258 c 128,-1,27
 79 281 79 281 59 304 c 1,28,-1
 83 366 l 1,29,30
 91 355 91 355 105.5 340.5 c 128,-1,31
 120 326 120 326 143 315.5 c 128,-1,32
 166 305 166 305 198 305 c 0,33,34
 238 305 238 305 258.5 322 c 128,-1,35
 279 339 279 339 279 369 c 0,36,37
 279 398 279 398 263 413.5 c 128,-1,38
 247 429 247 429 221 429 c 0,39,40
 174 429 174 429 144.5 385 c 128,-1,41
 115 341 115 341 115 261 c 2,42,-1
 115 249 l 2,43,44
 115 216 115 216 121.5 184 c 128,-1,45
 128 152 128 152 144 125.5 c 128,-1,46
 160 99 160 99 186 83 c 128,-1,47
 212 67 212 67 251 67 c 0,48,49
 310 67 310 67 337 95.5 c 128,-1,50
 364 124 364 124 374 169 c 1,51,-1
 451 169 l 1,52,53
 458 136 458 136 473 113 c 128,-1,54
 488 90 488 90 512 78.5 c 128,-1,55
 536 67 536 67 569 67 c 0,56,57
 632 67 632 67 667.5 117.5 c 128,-1,58
 703 168 703 168 703 253 c 0,59,60
 703 301 703 301 692 340 c 128,-1,61
 681 379 681 379 658.5 402 c 128,-1,62
 636 425 636 425 600 425 c 0,63,64
 578 425 578 425 558.5 411 c 128,-1,65
 539 397 539 397 539 365 c 0,66,67
 539 329 539 329 564 308 c 128,-1,68
 589 287 589 287 632 279 c 1,69,-1
 632 207 l 1,70,-1
 291 207 l 1,71,-1
 291 281 l 1,72,-1
 534 281 l 1,73,-1
 525 272 l 1,74,75
 504 285 504 285 489.5 300 c 128,-1,76
 475 315 475 315 467.5 335 c 128,-1,77
 460 355 460 355 460 381 c 0,78,79
 460 410 460 410 474.5 437 c 128,-1,80
 489 464 489 464 520 482 c 128,-1,81
 551 500 551 500 601 500 c 0,82,83
 657 500 657 500 698 469 c 128,-1,84
 739 438 739 438 762 383 c 128,-1,85
 785 328 785 328 785 255 c 0,86,87
 785 171 785 171 757.5 111 c 128,-1,88
 730 51 730 51 681.5 19.5 c 128,-1,89
 633 -12 633 -12 570 -12 c 0,0,1
EndSplineSet
EndChar

StartChar: latelu
Encoding: 3122 3122 51
Width: 709
GlyphClass: 2
Flags: W
AnchorPoint: "Anchor-4" 354 -24 basechar 0
AnchorPoint: "Anchor-1" 709 -24 basechar 0
AnchorPoint: "Anchor-0" 354 700 basechar 0
LayerCount: 2
Fore
SplineSet
356 -12 m 0,0,1
 251 -12 251 -12 179.5 24 c 128,-1,2
 108 60 108 60 71.5 123.5 c 128,-1,3
 35 187 35 187 35 269 c 0,4,5
 35 343 35 343 60.5 394.5 c 128,-1,6
 86 446 86 446 129 473 c 128,-1,7
 172 500 172 500 225 500 c 0,8,9
 265 500 265 500 294.5 484.5 c 128,-1,10
 324 469 324 469 340.5 440.5 c 128,-1,11
 357 412 357 412 357 373 c 0,12,13
 357 333 357 333 340 301.5 c 128,-1,14
 323 270 323 270 288.5 252.5 c 128,-1,15
 254 235 254 235 201 235 c 0,16,17
 168 235 168 235 140 246 c 128,-1,18
 112 257 112 257 91.5 273 c 128,-1,19
 71 289 71 289 58 304 c 1,20,-1
 81 366 l 1,21,22
 89 355 89 355 103.5 340.5 c 128,-1,23
 118 326 118 326 141 315.5 c 128,-1,24
 164 305 164 305 196 305 c 0,25,26
 237 305 237 305 257.5 322 c 128,-1,27
 278 339 278 339 278 369 c 0,28,29
 278 398 278 398 262 413.5 c 128,-1,30
 246 429 246 429 220 429 c 0,31,32
 172 429 172 429 143 390 c 128,-1,33
 114 351 114 351 114 284 c 2,34,-1
 114 266 l 2,35,36
 114 226 114 226 128.5 190.5 c 128,-1,37
 143 155 143 155 172 127 c 128,-1,38
 201 99 201 99 246.5 83 c 128,-1,39
 292 67 292 67 353 67 c 0,40,41
 463 67 463 67 527 113 c 128,-1,42
 591 159 591 159 591 245 c 0,43,44
 591 303 591 303 558.5 349 c 128,-1,45
 526 395 526 395 457 423 c 1,46,-1
 497 500 l 1,47,48
 580 464 580 464 627 400 c 128,-1,49
 674 336 674 336 674 250 c 0,50,51
 674 176 674 176 641 116.5 c 128,-1,52
 608 57 608 57 537.5 22.5 c 128,-1,53
 467 -12 467 -12 356 -12 c 0,0,1
EndSplineSet
EndChar

StartChar: llatelu
Encoding: 3123 3123 52
Width: 645
GlyphClass: 2
Flags: W
AnchorPoint: "Anchor-4" 322 -24 basechar 0
AnchorPoint: "Anchor-1" 645 -24 basechar 0
AnchorPoint: "Anchor-0" 322 700 basechar 0
LayerCount: 2
Fore
SplineSet
329 -12 m 0,0,1
 304 -12 304 -12 277.5 -7 c 128,-1,2
 251 -2 251 -2 228.5 9.5 c 128,-1,3
 206 21 206 21 192.5 41 c 128,-1,4
 179 61 179 61 179 92 c 0,5,6
 179 125 179 125 203.5 151.5 c 128,-1,7
 228 178 228 178 287 193 c 1,8,-1
 303 213 l 1,9,10
 385 213 385 213 435 227 c 128,-1,11
 485 241 485 241 508 266 c 128,-1,12
 531 291 531 291 531 323 c 0,13,14
 531 349 531 349 514.5 370.5 c 128,-1,15
 498 392 498 392 465.5 407 c 128,-1,16
 433 422 433 422 383 426 c 1,17,-1
 390 500 l 1,18,19
 461 489 461 489 511 466 c 128,-1,20
 561 443 561 443 587.5 408 c 128,-1,21
 614 373 614 373 614 324 c 0,22,23
 614 280 614 280 591.5 243.5 c 128,-1,24
 569 207 569 207 518.5 183.5 c 128,-1,25
 468 160 468 160 384 153 c 1,26,-1
 351 155 l 1,27,28
 313 151 313 151 292.5 142 c 128,-1,29
 272 133 272 133 264.5 121.5 c 128,-1,30
 257 110 257 110 257 97 c 0,31,32
 257 74 257 74 279.5 64.5 c 128,-1,33
 302 55 302 55 332 55 c 256,34,35
 362 55 362 55 383.5 64.5 c 128,-1,36
 405 74 405 74 405 97 c 256,37,38
 405 120 405 120 379.5 136.5 c 128,-1,39
 354 153 354 153 296 155 c 0,40,41
 285 157 285 157 281 158 c 128,-1,42
 277 159 277 159 276 159.5 c 128,-1,43
 275 160 275 160 270 160 c 0,44,45
 198 165 198 165 144 183.5 c 128,-1,46
 90 202 90 202 59.5 236.5 c 128,-1,47
 29 271 29 271 29 321 c 0,48,49
 29 352 29 352 46.5 379.5 c 128,-1,50
 64 407 64 407 98.5 424.5 c 128,-1,51
 133 442 133 442 183 442 c 0,52,53
 237 442 237 442 270 424 c 128,-1,54
 303 406 303 406 317.5 378.5 c 128,-1,55
 332 351 332 351 332 323 c 0,56,57
 332 268 332 268 282.5 235.5 c 128,-1,58
 233 203 233 203 155 187 c 1,59,-1
 120 234 l 1,60,61
 158 238 158 238 188 248.5 c 128,-1,62
 218 259 218 259 235.5 276.5 c 128,-1,63
 253 294 253 294 253 316 c 256,64,65
 253 338 253 338 237 354.5 c 128,-1,66
 221 371 221 371 181 371 c 0,67,68
 146 371 146 371 127.5 354.5 c 128,-1,69
 109 338 109 338 109 315 c 0,70,71
 109 301 109 301 114.5 286.5 c 128,-1,72
 120 272 120 272 139 259 c 128,-1,73
 158 246 158 246 198.5 236.5 c 128,-1,74
 239 227 239 227 308 222 c 0,75,76
 333 220 333 220 350 217 c 128,-1,77
 367 214 367 214 379 210 c 128,-1,78
 391 206 391 206 401 201 c 0,79,80
 406 199 406 199 407.5 195 c 128,-1,81
 409 191 409 191 410.5 187 c 128,-1,82
 412 183 412 183 416 180 c 0,83,84
 443 170 443 170 463 146.5 c 128,-1,85
 483 123 483 123 483 94 c 0,86,87
 483 54 483 54 460.5 30.5 c 128,-1,88
 438 7 438 7 403 -2.5 c 128,-1,89
 368 -12 368 -12 329 -12 c 0,0,1
366 425 m 0,90,91
 337 425 337 425 310.5 436 c 128,-1,92
 284 447 284 447 262 477.5 c 128,-1,93
 240 508 240 508 224 564 c 1,94,-1
 307 591 l 1,95,96
 322 536 322 536 336 518 c 128,-1,97
 350 500 350 500 372 500 c 0,98,99
 392 500 392 500 409.5 512.5 c 128,-1,100
 427 525 427 525 459 565 c 2,101,-1
 490 605 l 2,102,103
 524 649 524 649 552.5 675 c 128,-1,104
 581 701 581 701 613 713 c 128,-1,105
 645 725 645 725 689 725 c 1,106,-1
 695 648 l 1,107,108
 660 646 660 646 636.5 637 c 128,-1,109
 613 628 613 628 593.5 608.5 c 128,-1,110
 574 589 574 589 548 556 c 2,111,-1
 525 526 l 2,112,113
 497 490 497 490 472 468 c 128,-1,114
 447 446 447 446 421.5 435.5 c 128,-1,115
 396 425 396 425 366 425 c 0,90,91
EndSplineSet
EndChar

StartChar: lllatelu
Encoding: 3124 3124 53
Width: 812
GlyphClass: 2
Flags: W
AnchorPoint: "Anchor-4" 406 -24 basechar 0
AnchorPoint: "Anchor-1" 811 -24 basechar 0
AnchorPoint: "Anchor-0" 406 700 basechar 0
LayerCount: 2
Fore
SplineSet
572 -12 m 0,0,1
 536 -12 536 -12 504.5 -4 c 128,-1,2
 473 4 473 4 446 26.5 c 128,-1,3
 419 49 419 49 396 91 c 1,4,-1
 416 91 l 1,5,6
 393 49 393 49 366.5 26.5 c 128,-1,7
 340 4 340 4 309.5 -4 c 128,-1,8
 279 -12 279 -12 243 -12 c 0,9,10
 191 -12 191 -12 153 6 c 128,-1,11
 115 24 115 24 89.5 57 c 128,-1,12
 64 90 64 90 51.5 134.5 c 128,-1,13
 39 179 39 179 39 232 c 0,14,15
 39 301 39 301 56.5 352 c 128,-1,16
 74 403 74 403 104 435.5 c 128,-1,17
 134 468 134 468 170.5 484 c 128,-1,18
 207 500 207 500 245 500 c 0,19,20
 288 500 288 500 318.5 484.5 c 128,-1,21
 349 469 349 469 365.5 440.5 c 128,-1,22
 382 412 382 412 382 373 c 0,23,24
 382 333 382 333 365.5 301.5 c 128,-1,25
 349 270 349 270 315 252.5 c 128,-1,26
 281 235 281 235 227 235 c 0,27,28
 194 235 194 235 164 246 c 128,-1,29
 134 257 134 257 111.5 273 c 128,-1,30
 89 289 89 289 76 304 c 1,31,-1
 100 366 l 1,32,33
 108 355 108 355 124.5 340.5 c 128,-1,34
 141 326 141 326 165.5 315.5 c 128,-1,35
 190 305 190 305 222 305 c 0,36,37
 262 305 262 305 282.5 322 c 128,-1,38
 303 339 303 339 303 369 c 0,39,40
 303 398 303 398 287 413.5 c 128,-1,41
 271 429 271 429 244 429 c 0,42,43
 209 429 209 429 180.5 407 c 128,-1,44
 152 385 152 385 135 343.5 c 128,-1,45
 118 302 118 302 118 242 c 2,46,-1
 118 234 l 2,47,48
 118 193 118 193 128 154.5 c 128,-1,49
 138 116 138 116 165.5 91.5 c 128,-1,50
 193 67 193 67 243 67 c 0,51,52
 284 67 284 67 310 81.5 c 128,-1,53
 336 96 336 96 349.5 122.5 c 128,-1,54
 363 149 363 149 367 185 c 1,55,-1
 445 185 l 1,56,57
 448 151 448 151 461.5 124 c 128,-1,58
 475 97 475 97 501.5 82 c 128,-1,59
 528 67 528 67 569 67 c 0,60,61
 621 67 621 67 647.5 91.5 c 128,-1,62
 674 116 674 116 684 154.5 c 128,-1,63
 694 193 694 193 694 234 c 2,64,-1
 694 242 l 2,65,66
 694 302 694 302 677 343.5 c 128,-1,67
 660 385 660 385 631.5 407 c 128,-1,68
 603 429 603 429 568 429 c 0,69,70
 541 429 541 429 525 413.5 c 128,-1,71
 509 398 509 398 509 369 c 0,72,73
 509 339 509 339 529.5 322 c 128,-1,74
 550 305 550 305 590 305 c 0,75,76
 623 305 623 305 647 315.5 c 128,-1,77
 671 326 671 326 687.5 340.5 c 128,-1,78
 704 355 704 355 712 366 c 1,79,-1
 736 304 l 1,80,81
 723 289 723 289 700.5 273 c 128,-1,82
 678 257 678 257 648.5 246 c 128,-1,83
 619 235 619 235 585 235 c 0,84,85
 532 235 532 235 497.5 252.5 c 128,-1,86
 463 270 463 270 446.5 301.5 c 128,-1,87
 430 333 430 333 430 373 c 0,88,89
 430 412 430 412 446.5 440.5 c 128,-1,90
 463 469 463 469 493.5 484.5 c 128,-1,91
 524 500 524 500 567 500 c 0,92,93
 605 500 605 500 641.5 484 c 128,-1,94
 678 468 678 468 708 435.5 c 128,-1,95
 738 403 738 403 755.5 352 c 128,-1,96
 773 301 773 301 773 232 c 0,97,98
 773 180 773 180 760.5 135 c 128,-1,99
 748 90 748 90 723 57.5 c 128,-1,100
 698 25 698 25 660.5 6.5 c 128,-1,101
 623 -12 623 -12 572 -12 c 0,0,1
EndSplineSet
EndChar

StartChar: shatelu
Encoding: 3126 3126 55
Width: 550
GlyphClass: 2
Flags: W
AnchorPoint: "Anchor-4" 293 -24 basechar 0
AnchorPoint: "Anchor-1" 550 -24 basechar 0
AnchorPoint: "Anchor-0" 293 700 basechar 0
LayerCount: 2
Fore
SplineSet
361 -12 m 0,0,1
 306 -12 306 -12 272.5 7 c 128,-1,2
 239 26 239 26 223.5 56 c 128,-1,3
 208 86 208 86 208 119 c 0,4,5
 208 155 208 155 225 183 c 128,-1,6
 242 211 242 211 269 234 c 128,-1,7
 296 257 296 257 326 278 c 0,8,9
 336 286 336 286 340 289.5 c 128,-1,10
 344 293 344 293 349 297 c 0,11,12
 381 321 381 321 394 338.5 c 128,-1,13
 407 356 407 356 407 375 c 0,14,15
 407 403 407 403 388 415.5 c 128,-1,16
 369 428 369 428 325 435 c 1,17,-1
 359 498 l 1,18,19
 405 493 405 493 433 476.5 c 128,-1,20
 461 460 461 460 474 437 c 128,-1,21
 487 414 487 414 487 390 c 0,22,23
 487 341 487 341 461 310 c 128,-1,24
 435 279 435 279 397 250 c 256,25,26
 359 221 359 221 335 200.5 c 128,-1,27
 311 180 311 180 300 162 c 128,-1,28
 289 144 289 144 289 122 c 256,29,30
 289 100 289 100 304.5 81.5 c 128,-1,31
 320 63 320 63 362 63 c 0,32,33
 400 63 400 63 419 80.5 c 128,-1,34
 438 98 438 98 438 130 c 0,35,36
 438 176 438 176 409.5 210.5 c 128,-1,37
 381 245 381 245 332.5 265 c 128,-1,38
 284 285 284 285 224 285 c 0,39,40
 160 285 160 285 135.5 263.5 c 128,-1,41
 111 242 111 242 111 207 c 0,42,43
 111 187 111 187 116.5 170 c 128,-1,44
 122 153 122 153 127 141 c 1,45,-1
 51 119 l 1,46,47
 42 139 42 139 35.5 165 c 128,-1,48
 29 191 29 191 29 213 c 0,49,50
 29 250 29 250 46.5 283 c 128,-1,51
 64 316 64 316 105 337 c 128,-1,52
 146 358 146 358 217 358 c 0,53,54
 272 358 272 358 321.5 344 c 128,-1,55
 371 330 371 330 419 297 c 0,56,57
 468 267 468 267 494 223.5 c 128,-1,58
 520 180 520 180 520 125 c 0,59,60
 520 61 520 61 477.5 24.5 c 128,-1,61
 435 -12 435 -12 361 -12 c 0,0,1
275 425 m 0,62,63
 246 425 246 425 219.5 436 c 128,-1,64
 193 447 193 447 171 477.5 c 128,-1,65
 149 508 149 508 133 564 c 1,66,-1
 216 591 l 1,67,68
 231 536 231 536 245 518 c 128,-1,69
 259 500 259 500 281 500 c 0,70,71
 301 500 301 500 318.5 512.5 c 128,-1,72
 336 525 336 525 368 565 c 2,73,-1
 399 605 l 2,74,75
 433 649 433 649 461.5 675 c 128,-1,76
 490 701 490 701 522 713 c 128,-1,77
 554 725 554 725 598 725 c 1,78,-1
 604 648 l 1,79,80
 569 646 569 646 545.5 637 c 128,-1,81
 522 628 522 628 502.5 608.5 c 128,-1,82
 483 589 483 589 457 556 c 2,83,-1
 434 526 l 2,84,85
 406 490 406 490 381 468 c 128,-1,86
 356 446 356 446 330.5 435.5 c 128,-1,87
 305 425 305 425 275 425 c 0,62,63
EndSplineSet
EndChar

StartChar: avagrahatelu
Encoding: 3133 3133 59
Width: 590
Flags: W
LayerCount: 2
Fore
SplineSet
203 500 m 0,0,1
 263 500 263 500 297 480 c 128,-1,2
 331 460 331 460 345.5 430 c 128,-1,3
 360 400 360 400 360 370 c 0,4,5
 360 332 360 332 345 306 c 128,-1,6
 330 280 330 280 300.5 261 c 128,-1,7
 271 242 271 242 227 225 c 0,8,9
 168 203 168 203 145.5 184.5 c 128,-1,10
 123 166 123 166 123 137 c 0,11,12
 123 119 123 119 129 108.5 c 128,-1,13
 135 98 135 98 145 91 c 0,14,15
 156 84 156 84 173 81.5 c 128,-1,16
 190 79 190 79 227 79 c 2,17,-1
 575 79 l 1,18,-1
 575 0 l 1,19,-1
 231 0 l 2,20,21
 181 0 181 0 149 6 c 128,-1,22
 117 12 117 12 97.5 23.5 c 128,-1,23
 78 35 78 35 65 51 c 0,24,25
 53 67 53 67 47 86.5 c 128,-1,26
 41 106 41 106 41 130 c 0,27,28
 41 171 41 171 56.5 199 c 128,-1,29
 72 227 72 227 105 248.5 c 128,-1,30
 138 270 138 270 189 289 c 0,31,32
 230 305 230 305 254 321.5 c 128,-1,33
 278 338 278 338 278 371 c 0,34,35
 278 387 278 387 271 399.5 c 128,-1,36
 264 412 264 412 247.5 419.5 c 128,-1,37
 231 427 231 427 203 427 c 0,38,39
 160 427 160 427 139 410.5 c 128,-1,40
 118 394 118 394 118 365 c 0,41,42
 118 352 118 352 121.5 341 c 128,-1,43
 125 330 125 330 128 323 c 1,44,-1
 53 302 l 1,45,46
 45 317 45 317 40.5 335.5 c 128,-1,47
 36 354 36 354 36 375 c 0,48,49
 36 407 36 407 53 435.5 c 128,-1,50
 70 464 70 464 107 482 c 128,-1,51
 144 500 144 500 203 500 c 0,0,1
EndSplineSet
EndChar

StartChar: aavowelsigntelu
Encoding: 3134 3134 60
Width: 260
GlyphClass: 4
Flags: W
LayerCount: 2
Fore
SplineSet
104 220 m 0,0,1
 67 220 67 220 40.5 231 c 128,-1,2
 14 242 14 242 -2 260.5 c 128,-1,3
 -18 279 -18 279 -25.5 301 c 128,-1,4
 -33 323 -33 323 -33 344 c 0,5,6
 -33 376 -33 376 -23.5 399 c 128,-1,7
 -14 422 -14 422 0 443 c 1,8,-1
 88 450 l 1,9,10
 63 425 63 425 51.5 401.5 c 128,-1,11
 40 378 40 378 40 353 c 0,12,13
 40 323 40 323 57.5 304.5 c 128,-1,14
 75 286 75 286 108 286 c 0,15,16
 143 286 143 286 157.5 304.5 c 128,-1,17
 172 323 172 323 172 350 c 0,18,19
 172 392 172 392 146.5 408.5 c 128,-1,20
 121 425 121 425 75 425 c 2,21,-1
 -546 425 l 1,22,-1
 -546 500 l 1,23,-1
 33 500 l 2,24,25
 76 500 76 500 106 496.5 c 128,-1,26
 136 493 136 493 158 485 c 128,-1,27
 180 477 180 477 198 462 c 0,28,29
 219 446 219 446 232 418.5 c 128,-1,30
 245 391 245 391 245 353 c 0,31,32
 245 290 245 290 207 255 c 128,-1,33
 169 220 169 220 104 220 c 0,0,1
EndSplineSet
EndChar

StartChar: ivowelsigntelu
Encoding: 3135 3135 61
Width: 0
GlyphClass: 4
Flags: W
LayerCount: 2
Fore
SplineSet
-278 432 m 0,0,1
 -314 432 -314 432 -345.5 440 c 128,-1,2
 -377 448 -377 448 -407 458 c 1,3,-1
 -380 522 l 1,4,5
 -360 514 -360 514 -336 507.5 c 128,-1,6
 -312 501 -312 501 -282 501 c 0,7,8
 -253 501 -253 501 -229.5 508.5 c 128,-1,9
 -206 516 -206 516 -192 536 c 128,-1,10
 -178 556 -178 556 -178 595 c 2,11,-1
 -178 600 l 2,12,13
 -178 645 -178 645 -207.5 676.5 c 128,-1,14
 -237 708 -237 708 -280 708 c 0,15,16
 -311 708 -311 708 -328 695.5 c 128,-1,17
 -345 683 -345 683 -345 662 c 0,18,19
 -345 643 -345 643 -335.5 633.5 c 128,-1,20
 -326 624 -326 624 -312.5 621 c 128,-1,21
 -299 618 -299 618 -289 618 c 0,22,23
 -245 618 -245 618 -220 638 c 128,-1,24
 -195 658 -195 658 -173 690 c 1,25,-1
 -138 646 l 1,26,27
 -150 626 -150 626 -168.5 605 c 128,-1,28
 -187 584 -187 584 -215.5 569.5 c 128,-1,29
 -244 555 -244 555 -286 555 c 0,30,31
 -320 555 -320 555 -349.5 565.5 c 128,-1,32
 -379 576 -379 576 -397.5 599 c 128,-1,33
 -416 622 -416 622 -416 659 c 0,34,35
 -416 710 -416 710 -379.5 741.5 c 128,-1,36
 -343 773 -343 773 -280 773 c 0,37,38
 -226 773 -226 773 -187.5 749 c 128,-1,39
 -149 725 -149 725 -128.5 684.5 c 128,-1,40
 -108 644 -108 644 -108 595 c 0,41,42
 -108 507 -108 507 -155.5 469.5 c 128,-1,43
 -203 432 -203 432 -278 432 c 0,0,1
EndSplineSet
EndChar

StartChar: iivowelsigntelu
Encoding: 3136 3136 62
Width: 0
GlyphClass: 4
Flags: W
LayerCount: 2
Fore
SplineSet
-278 432 m 0,0,1
 -314 432 -314 432 -346 439.5 c 128,-1,2
 -378 447 -378 447 -407 458 c 1,3,-1
 -380 522 l 1,4,5
 -360 514 -360 514 -336 507.5 c 128,-1,6
 -312 501 -312 501 -282 501 c 0,7,8
 -239 501 -239 501 -209 518 c 128,-1,9
 -179 535 -179 535 -179 587 c 2,10,-1
 -179 594 l 2,11,12
 -179 633 -179 633 -208 659.5 c 128,-1,13
 -237 686 -237 686 -284 686 c 0,14,15
 -309 686 -309 686 -327 677 c 128,-1,16
 -345 668 -345 668 -345 648 c 0,17,18
 -345 626 -345 626 -327 617 c 128,-1,19
 -309 608 -309 608 -285 608 c 0,20,21
 -247 608 -247 608 -222 628.5 c 128,-1,22
 -197 649 -197 649 -173 675 c 1,23,-1
 -149 618 l 1,24,25
 -162 604 -162 604 -180 588 c 128,-1,26
 -198 572 -198 572 -224 561 c 128,-1,27
 -250 550 -250 550 -289 550 c 0,28,29
 -349 550 -349 550 -382.5 572.5 c 128,-1,30
 -416 595 -416 595 -416 643 c 0,31,32
 -416 674 -416 674 -399 697 c 128,-1,33
 -382 720 -382 720 -351 733.5 c 128,-1,34
 -320 747 -320 747 -278 747 c 0,35,36
 -192 747 -192 747 -150 700.5 c 128,-1,37
 -108 654 -108 654 -108 583 c 0,38,39
 -108 511 -108 511 -151.5 471.5 c 128,-1,40
 -195 432 -195 432 -278 432 c 0,0,1
-247 869 m 0,41,42
 -186 869 -186 869 -151.5 845 c 128,-1,43
 -117 821 -117 821 -99 777 c 1,44,-1
 -175 757 l 1,45,46
 -183 780 -183 780 -201 792 c 128,-1,47
 -219 804 -219 804 -247 804 c 0,48,49
 -278 804 -278 804 -297.5 790.5 c 128,-1,50
 -317 777 -317 777 -317 750 c 0,51,52
 -317 738 -317 738 -312.5 726.5 c 128,-1,53
 -308 715 -308 715 -297 704 c 1,54,-1
 -360 676 l 1,55,56
 -373 693 -373 693 -380.5 714 c 128,-1,57
 -388 735 -388 735 -388 757 c 0,58,59
 -388 810 -388 810 -349 839.5 c 128,-1,60
 -310 869 -310 869 -247 869 c 0,41,42
EndSplineSet
EndChar

StartChar: uvowelsigntelu
Encoding: 3137 3137 63
Width: 346
GlyphClass: 4
Flags: W
LayerCount: 2
Fore
SplineSet
116 -12 m 0,0,1
 49 -12 49 -12 -1.5 22 c 128,-1,2
 -52 56 -52 56 -91 111 c 1,3,-1
 -51 176 l 1,4,5
 -23 139 -23 139 4.5 115 c 128,-1,6
 32 91 32 91 61.5 79 c 128,-1,7
 91 67 91 67 123 67 c 0,8,9
 174 67 174 67 201 99.5 c 128,-1,10
 228 132 228 132 228 193 c 0,11,12
 228 251 228 251 204.5 294.5 c 128,-1,13
 181 338 181 338 141.5 369.5 c 128,-1,14
 102 401 102 401 52 423 c 1,15,-1
 89 500 l 1,16,17
 151 474 151 474 201 430 c 128,-1,18
 251 386 251 386 281 328 c 128,-1,19
 311 270 311 270 311 199 c 0,20,21
 311 100 311 100 261 44 c 128,-1,22
 211 -12 211 -12 116 -12 c 0,0,1
EndSplineSet
Substitution2: "Single Substitution lookup 76 subtable" uvoweltelu.spacing3
Substitution2: "Single Substitution lookup 75 subtable" uvoweltelu.spacing2
Substitution2: "Single Substitution lookup 74 subtable" uvowelsigntelu.spacing
EndChar

StartChar: uuvowelsigntelu
Encoding: 3138 3138 64
Width: 668
GlyphClass: 4
Flags: W
LayerCount: 2
Fore
SplineSet
116 -12 m 0,0,1
 49 -12 49 -12 -1.5 22 c 128,-1,2
 -52 56 -52 56 -91 111 c 1,3,-1
 -51 176 l 1,4,5
 -23 139 -23 139 4 115 c 128,-1,6
 31 91 31 91 59.5 79 c 128,-1,7
 88 67 88 67 121 67 c 0,8,9
 174 67 174 67 201 99 c 128,-1,10
 228 131 228 131 228 189 c 0,11,12
 228 244 228 244 204.5 288 c 128,-1,13
 181 332 181 332 141 366.5 c 128,-1,14
 101 401 101 401 53 425 c 1,15,-1
 89 500 l 1,16,17
 99 496 99 496 113.5 487.5 c 128,-1,18
 128 479 128 479 138 471 c 2,19,-1
 158 446 l 1,20,21
 201 421 201 421 235.5 383 c 128,-1,22
 270 345 270 345 290.5 297.5 c 128,-1,23
 311 250 311 250 311 194 c 0,24,25
 311 99 311 99 261 43.5 c 128,-1,26
 211 -12 211 -12 116 -12 c 0,0,1
512 220 m 0,27,28
 475 220 475 220 448.5 231 c 128,-1,29
 422 242 422 242 406 260.5 c 128,-1,30
 390 279 390 279 382.5 301 c 128,-1,31
 375 323 375 323 375 344 c 0,32,33
 375 376 375 376 384.5 399 c 128,-1,34
 394 422 394 422 408 443 c 1,35,-1
 496 450 l 1,36,37
 471 425 471 425 459.5 401.5 c 128,-1,38
 448 378 448 378 448 353 c 0,39,40
 448 323 448 323 465.5 304.5 c 128,-1,41
 483 286 483 286 516 286 c 0,42,43
 551 286 551 286 565.5 304.5 c 128,-1,44
 580 323 580 323 580 350 c 0,45,46
 580 392 580 392 554.5 408.5 c 128,-1,47
 529 425 529 425 483 425 c 2,48,-1
 79 425 l 1,49,-1
 89 500 l 1,50,-1
 441 500 l 2,51,52
 484 500 484 500 514 496.5 c 128,-1,53
 544 493 544 493 566 485 c 128,-1,54
 588 477 588 477 606 462 c 0,55,56
 627 446 627 446 640 418.5 c 128,-1,57
 653 391 653 391 653 353 c 0,58,59
 653 290 653 290 615 255 c 128,-1,60
 577 220 577 220 512 220 c 0,27,28
EndSplineSet
Substitution2: "Single Substitution lookup 76 subtable" uuvoweltelu.spacing3
Substitution2: "Single Substitution lookup 75 subtable" uuvoweltelu.spacing2
Substitution2: "Single Substitution lookup 74 subtable" uuvowelsigntelu.spacing
EndChar

StartChar: rvocalicvowelsigntelu
Encoding: 3139 3139 65
Width: 400
GlyphClass: 4
Flags: W
LayerCount: 2
Fore
SplineSet
97 -386 m 0,0,1
 26 -386 26 -386 -25 -360 c 128,-1,2
 -76 -334 -76 -334 -103 -288.5 c 128,-1,3
 -130 -243 -130 -243 -130 -186 c 0,4,5
 -130 -133 -130 -133 -108.5 -95 c 128,-1,6
 -87 -57 -87 -57 -50 -36 c 128,-1,7
 -13 -15 -13 -15 32 -15 c 256,8,9
 77 -15 77 -15 105.5 -31.5 c 128,-1,10
 134 -48 134 -48 147.5 -74.5 c 128,-1,11
 161 -101 161 -101 161 -131 c 0,12,13
 161 -169 161 -169 145 -197.5 c 128,-1,14
 129 -226 129 -226 96.5 -241 c 128,-1,15
 64 -256 64 -256 13 -256 c 0,16,17
 -8 -256 -8 -256 -30.5 -249.5 c 128,-1,18
 -53 -243 -53 -243 -75 -230 c 1,19,-1
 -84 -157 l 1,20,21
 -61 -176 -61 -176 -40 -184 c 128,-1,22
 -19 -192 -19 -192 8 -192 c 0,23,24
 47 -192 47 -192 67.5 -177 c 128,-1,25
 88 -162 88 -162 88 -135 c 0,26,27
 88 -109 88 -109 72.5 -94 c 128,-1,28
 57 -79 57 -79 31 -79 c 0,29,30
 -10 -79 -10 -79 -34.5 -108 c 128,-1,31
 -59 -137 -59 -137 -59 -183 c 2,32,-1
 -59 -188 l 2,33,34
 -59 -248 -59 -248 -18.5 -281.5 c 128,-1,35
 22 -315 22 -315 102 -315 c 0,36,37
 140 -315 140 -315 178 -305.5 c 128,-1,38
 216 -296 216 -296 248 -271 c 128,-1,39
 280 -246 280 -246 299.5 -200.5 c 128,-1,40
 319 -155 319 -155 319 -83 c 0,41,42
 319 -6 319 -6 292 68.5 c 128,-1,43
 265 143 265 143 217.5 210 c 128,-1,44
 170 277 170 277 108.5 333.5 c 128,-1,45
 47 390 47 390 -23 430 c 1,46,-1
 18 500 l 1,47,48
 84 462 84 462 151 403 c 128,-1,49
 218 344 218 344 274 268 c 128,-1,50
 330 192 330 192 364 103 c 128,-1,51
 398 14 398 14 398 -84 c 0,52,53
 398 -163 398 -163 375 -220.5 c 128,-1,54
 352 -278 352 -278 311 -314.5 c 128,-1,55
 270 -351 270 -351 215.5 -368.5 c 128,-1,56
 161 -386 161 -386 97 -386 c 0,0,1
EndSplineSet
Substitution2: "Single Substitution lookup 41 subtable" rvocalicvowelsigntelu.spacing
Position2: "Single Positioning lookup 4 subtable" dx=0 dy=0 dh=104 dv=0
Position2: "Single Positioning lookup 3 subtable" dx=104 dy=0 dh=0 dv=0
EndChar

StartChar: rrvocalicvowelsigntelu
Encoding: 3140 3140 66
Width: 656
GlyphClass: 4
Flags: W
LayerCount: 2
Fore
SplineSet
95 -386 m 0,0,1
 24 -386 24 -386 -26.5 -360 c 128,-1,2
 -77 -334 -77 -334 -103.5 -288.5 c 128,-1,3
 -130 -243 -130 -243 -130 -186 c 0,4,5
 -130 -133 -130 -133 -108.5 -95 c 128,-1,6
 -87 -57 -87 -57 -50 -36 c 128,-1,7
 -13 -15 -13 -15 32 -15 c 256,8,9
 77 -15 77 -15 105.5 -31.5 c 128,-1,10
 134 -48 134 -48 147.5 -74.5 c 128,-1,11
 161 -101 161 -101 161 -131 c 0,12,13
 161 -169 161 -169 145 -197.5 c 128,-1,14
 129 -226 129 -226 96.5 -241 c 128,-1,15
 64 -256 64 -256 13 -256 c 0,16,17
 -8 -256 -8 -256 -31.5 -249.5 c 128,-1,18
 -55 -243 -55 -243 -75 -230 c 1,19,-1
 -84 -157 l 1,20,21
 -61 -176 -61 -176 -40 -184 c 128,-1,22
 -19 -192 -19 -192 8 -192 c 0,23,24
 47 -192 47 -192 67.5 -177 c 128,-1,25
 88 -162 88 -162 88 -135 c 0,26,27
 88 -109 88 -109 72.5 -94 c 128,-1,28
 57 -79 57 -79 31 -79 c 0,29,30
 -10 -79 -10 -79 -34.5 -108 c 128,-1,31
 -59 -137 -59 -137 -59 -183 c 2,32,-1
 -59 -188 l 2,33,34
 -59 -248 -59 -248 -19.5 -281.5 c 128,-1,35
 20 -315 20 -315 100 -315 c 0,36,37
 138 -315 138 -315 176.5 -305.5 c 128,-1,38
 215 -296 215 -296 247.5 -271 c 128,-1,39
 280 -246 280 -246 299.5 -200.5 c 128,-1,40
 319 -155 319 -155 319 -83 c 0,41,42
 319 -5 319 -5 292.5 67.5 c 128,-1,43
 266 140 266 140 220.5 205.5 c 128,-1,44
 175 271 175 271 116.5 325 c 128,-1,45
 58 379 58 379 -5 419 c 1,46,-1
 24 500 l 1,47,48
 32 495 32 495 45 484 c 128,-1,49
 58 473 58 473 66 468 c 1,50,-1
 73 447 l 1,51,52
 134 410 134 410 192 355.5 c 128,-1,53
 250 301 250 301 296.5 232 c 128,-1,54
 343 163 343 163 370.5 83 c 128,-1,55
 398 3 398 3 398 -84 c 0,56,57
 398 -163 398 -163 375 -220.5 c 128,-1,58
 352 -278 352 -278 310.5 -314.5 c 128,-1,59
 269 -351 269 -351 214 -368.5 c 128,-1,60
 159 -386 159 -386 95 -386 c 0,0,1
501 220 m 0,61,62
 464 220 464 220 437.5 231 c 128,-1,63
 411 242 411 242 395 260.5 c 128,-1,64
 379 279 379 279 371.5 301 c 128,-1,65
 364 323 364 323 364 344 c 0,66,67
 364 375 364 375 373.5 398.5 c 128,-1,68
 383 422 383 422 397 443 c 1,69,-1
 485 450 l 1,70,71
 460 425 460 425 448.5 401 c 128,-1,72
 437 377 437 377 437 353 c 0,73,74
 437 323 437 323 454.5 304.5 c 128,-1,75
 472 286 472 286 505 286 c 0,76,77
 540 286 540 286 554.5 304.5 c 128,-1,78
 569 323 569 323 569 350 c 0,79,80
 569 393 569 393 543.5 409 c 128,-1,81
 518 425 518 425 472 425 c 2,82,-1
 193 425 l 2,83,84
 169 425 169 425 137 426 c 128,-1,85
 105 427 105 427 71.5 429 c 128,-1,86
 38 431 38 431 8 433 c 1,87,-1
 24 500 l 1,88,-1
 430 500 l 2,89,90
 473 500 473 500 503 496.5 c 128,-1,91
 533 493 533 493 555 485 c 128,-1,92
 577 477 577 477 595 462 c 0,93,94
 616 446 616 446 629 418.5 c 128,-1,95
 642 391 642 391 642 353 c 0,96,97
 642 290 642 290 604 255 c 128,-1,98
 566 220 566 220 501 220 c 0,61,62
EndSplineSet
Substitution2: "Single Substitution lookup 41 subtable" rrvocalicvowelsigntelu.spacing
Position2: "Single Positioning lookup 4 subtable" dx=0 dy=0 dh=104 dv=0
Position2: "Single Positioning lookup 3 subtable" dx=104 dy=0 dh=0 dv=0
EndChar

StartChar: evowelsigntelu
Encoding: 3142 3142 67
Width: 0
GlyphClass: 4
Flags: W
LayerCount: 2
Fore
SplineSet
-32 553 m 0,0,1
 -32 520 -32 520 -43.5 496.5 c 128,-1,2
 -55 473 -55 473 -71 460 c 0,3,4
 -94 441 -94 441 -126.5 433 c 128,-1,5
 -159 425 -159 425 -216 425 c 2,6,-1
 -271 425 l 1,7,-1
 -271 500 l 1,8,-1
 -204 500 l 2,9,10
 -172 500 -172 500 -155.5 503.5 c 128,-1,11
 -139 507 -139 507 -129 515 c 0,12,13
 -121 522 -121 522 -117.5 531 c 128,-1,14
 -114 540 -114 540 -114 552 c 0,15,16
 -114 565 -114 565 -118 575 c 128,-1,17
 -122 585 -122 585 -130 592 c 0,18,19
 -140 600 -140 600 -155 604 c 128,-1,20
 -170 608 -170 608 -205 608 c 2,21,-1
 -549 608 l 1,22,-1
 -549 683 l 1,23,-1
 -211 683 l 2,24,25
 -156 683 -156 683 -124.5 675 c 128,-1,26
 -93 667 -93 667 -70 647 c 0,27,28
 -53 632 -53 632 -42.5 609.5 c 128,-1,29
 -32 587 -32 587 -32 553 c 0,0,1
EndSplineSet
EndChar

StartChar: eevowelsigntelu
Encoding: 3143 3143 68
Width: 0
GlyphClass: 4
Flags: W
LayerCount: 2
Fore
SplineSet
-32 553 m 0,0,1
 -32 520 -32 520 -43.5 496.5 c 128,-1,2
 -55 473 -55 473 -71 460 c 0,3,4
 -94 441 -94 441 -126.5 433 c 128,-1,5
 -159 425 -159 425 -216 425 c 2,6,-1
 -271 425 l 1,7,-1
 -271 500 l 1,8,-1
 -204 500 l 2,9,10
 -172 500 -172 500 -155.5 503.5 c 128,-1,11
 -139 507 -139 507 -129 515 c 0,12,13
 -121 522 -121 522 -117.5 531 c 128,-1,14
 -114 540 -114 540 -114 552 c 0,15,16
 -114 565 -114 565 -118 575 c 128,-1,17
 -122 585 -122 585 -130 592 c 0,18,19
 -140 600 -140 600 -155 604 c 128,-1,20
 -170 608 -170 608 -205 608 c 2,21,-1
 -549 608 l 1,22,-1
 -549 683 l 1,23,-1
 -211 683 l 2,24,25
 -156 683 -156 683 -124.5 675 c 128,-1,26
 -93 667 -93 667 -70 647 c 0,27,28
 -53 632 -53 632 -42.5 609.5 c 128,-1,29
 -32 587 -32 587 -32 553 c 0,0,1
-138 832 m 0,30,31
 -77 832 -77 832 -42.5 806.5 c 128,-1,32
 -8 781 -8 781 9 736 c 1,33,-1
 -67 716 l 1,34,35
 -72 731 -72 731 -81 742.5 c 128,-1,36
 -90 754 -90 754 -103.5 760 c 128,-1,37
 -117 766 -117 766 -137 766 c 0,38,39
 -164 766 -164 766 -184 752 c 128,-1,40
 -204 738 -204 738 -204 711 c 0,41,42
 -204 697 -204 697 -194.5 679.5 c 128,-1,43
 -185 662 -185 662 -155 642 c 1,44,-1
 -229 614 l 1,45,46
 -256 639 -256 639 -267.5 664 c 128,-1,47
 -279 689 -279 689 -279 719 c 0,48,49
 -279 755 -279 755 -260.5 780 c 128,-1,50
 -242 805 -242 805 -210 818.5 c 128,-1,51
 -178 832 -178 832 -138 832 c 0,30,31
EndSplineSet
EndChar

StartChar: ovowelsigntelu
Encoding: 3146 3146 70
Width: 0
GlyphClass: 4
Flags: W
LayerCount: 2
Fore
SplineSet
144 420 m 0,0,1
 107 420 107 420 80.5 431 c 128,-1,2
 54 442 54 442 38 460 c 128,-1,3
 22 478 22 478 14.5 500 c 128,-1,4
 7 522 7 522 7 544 c 0,5,6
 7 576 7 576 16.5 599 c 128,-1,7
 26 622 26 622 40 643 c 1,8,-1
 128 650 l 1,9,10
 103 625 103 625 91.5 601.5 c 128,-1,11
 80 578 80 578 80 553 c 0,12,13
 80 523 80 523 97.5 504.5 c 128,-1,14
 115 486 115 486 148 486 c 0,15,16
 183 486 183 486 197.5 504.5 c 128,-1,17
 212 523 212 523 212 550 c 0,18,19
 212 592 212 592 186.5 608.5 c 128,-1,20
 161 625 161 625 115 625 c 2,21,-1
 -10 625 l 2,22,23
 -59 625 -59 625 -82 599 c 128,-1,24
 -105 573 -105 573 -111 532 c 1,25,-1
 -189 532 l 1,26,27
 -196 578 -196 578 -223 601.5 c 128,-1,28
 -250 625 -250 625 -282 625 c 2,29,-1
 -298 625 l 2,30,31
 -336 625 -336 625 -355 607.5 c 128,-1,32
 -374 590 -374 590 -374 564 c 0,33,34
 -374 545 -374 545 -366.5 530.5 c 128,-1,35
 -359 516 -359 516 -341 508 c 128,-1,36
 -323 500 -323 500 -292 500 c 2,37,-1
 -263 500 l 1,38,-1
 -263 425 l 1,39,-1
 -294 425 l 2,40,41
 -342 425 -342 425 -378.5 441.5 c 128,-1,42
 -415 458 -415 458 -435.5 490 c 128,-1,43
 -456 522 -456 522 -456 567 c 0,44,45
 -456 626 -456 626 -413.5 663 c 128,-1,46
 -371 700 -371 700 -301 700 c 2,47,-1
 -293 700 l 2,48,49
 -259 700 -259 700 -231.5 692.5 c 128,-1,50
 -204 685 -204 685 -181.5 664.5 c 128,-1,51
 -159 644 -159 644 -142 606 c 1,52,-1
 -157 611 l 1,53,54
 -143 640 -143 640 -123.5 660 c 128,-1,55
 -104 680 -104 680 -74.5 690 c 128,-1,56
 -45 700 -45 700 -1 700 c 2,57,-1
 64 700 l 2,58,59
 135 700 135 700 173 692 c 128,-1,60
 211 684 211 684 238 662 c 0,61,62
 259 646 259 646 272 618.5 c 128,-1,63
 285 591 285 591 285 553 c 0,64,65
 285 490 285 490 247 455 c 128,-1,66
 209 420 209 420 144 420 c 0,0,1
EndSplineSet
EndChar

StartChar: oovowelsigntelu
Encoding: 3147 3147 71
Width: 0
GlyphClass: 4
Flags: W
LayerCount: 2
Fore
SplineSet
144 420 m 0,0,1
 107 420 107 420 80.5 431 c 128,-1,2
 54 442 54 442 38 460 c 128,-1,3
 22 478 22 478 14.5 500 c 128,-1,4
 7 522 7 522 7 544 c 0,5,6
 7 576 7 576 16.5 599 c 128,-1,7
 26 622 26 622 40 643 c 1,8,-1
 128 650 l 1,9,10
 103 625 103 625 91.5 601.5 c 128,-1,11
 80 578 80 578 80 553 c 0,12,13
 80 523 80 523 97.5 504.5 c 128,-1,14
 115 486 115 486 148 486 c 0,15,16
 183 486 183 486 197.5 504.5 c 128,-1,17
 212 523 212 523 212 550 c 0,18,19
 212 592 212 592 186.5 608.5 c 128,-1,20
 161 625 161 625 115 625 c 2,21,-1
 -10 625 l 2,22,23
 -59 625 -59 625 -82 599 c 128,-1,24
 -105 573 -105 573 -111 532 c 1,25,-1
 -189 532 l 1,26,27
 -196 578 -196 578 -223 601.5 c 128,-1,28
 -250 625 -250 625 -282 625 c 2,29,-1
 -298 625 l 2,30,31
 -336 625 -336 625 -355 607.5 c 128,-1,32
 -374 590 -374 590 -374 564 c 0,33,34
 -374 545 -374 545 -366.5 530.5 c 128,-1,35
 -359 516 -359 516 -341 508 c 128,-1,36
 -323 500 -323 500 -292 500 c 2,37,-1
 -263 500 l 1,38,-1
 -263 425 l 1,39,-1
 -294 425 l 2,40,41
 -342 425 -342 425 -378.5 441.5 c 128,-1,42
 -415 458 -415 458 -435.5 490 c 128,-1,43
 -456 522 -456 522 -456 567 c 0,44,45
 -456 626 -456 626 -413.5 663 c 128,-1,46
 -371 700 -371 700 -301 700 c 2,47,-1
 -293 700 l 2,48,49
 -259 700 -259 700 -231.5 692.5 c 128,-1,50
 -204 685 -204 685 -181.5 664.5 c 128,-1,51
 -159 644 -159 644 -142 606 c 1,52,-1
 -157 611 l 1,53,54
 -143 640 -143 640 -123.5 660 c 128,-1,55
 -104 680 -104 680 -74.5 690 c 128,-1,56
 -45 700 -45 700 -1 700 c 2,57,-1
 64 700 l 2,58,59
 135 700 135 700 173 692 c 128,-1,60
 211 684 211 684 238 662 c 0,61,62
 259 646 259 646 272 618.5 c 128,-1,63
 285 591 285 591 285 553 c 0,64,65
 285 490 285 490 247 455 c 128,-1,66
 209 420 209 420 144 420 c 0,0,1
171 850 m 0,67,68
 232 850 232 850 266.5 824.5 c 128,-1,69
 301 799 301 799 318 754 c 1,70,-1
 242 734 l 1,71,72
 237 749 237 749 227.5 760.5 c 128,-1,73
 218 772 218 772 204.5 778 c 128,-1,74
 191 784 191 784 172 784 c 0,75,76
 145 784 145 784 125 770 c 128,-1,77
 105 756 105 756 105 729 c 0,78,79
 105 715 105 715 114.5 697.5 c 128,-1,80
 124 680 124 680 154 660 c 1,81,-1
 80 632 l 1,82,83
 53 657 53 657 41.5 682 c 128,-1,84
 30 707 30 707 30 737 c 0,85,86
 30 773 30 773 48.5 798 c 128,-1,87
 67 823 67 823 99 836.5 c 128,-1,88
 131 850 131 850 171 850 c 0,67,68
EndSplineSet
EndChar

StartChar: auvowelsigntelu
Encoding: 3148 3148 72
Width: 0
GlyphClass: 4
Flags: W
LayerCount: 2
Fore
SplineSet
134 403 m 0,0,1
 97 403 97 403 70.5 414 c 128,-1,2
 44 425 44 425 28 443 c 128,-1,3
 12 461 12 461 4.5 483 c 128,-1,4
 -3 505 -3 505 -3 527 c 0,5,6
 -3 559 -3 559 6.5 582 c 128,-1,7
 16 605 16 605 30 626 c 1,8,-1
 118 633 l 1,9,10
 93 608 93 608 81.5 584.5 c 128,-1,11
 70 561 70 561 70 536 c 0,12,13
 70 506 70 506 87.5 487.5 c 128,-1,14
 105 469 105 469 138 469 c 0,15,16
 173 469 173 469 187.5 487.5 c 128,-1,17
 202 506 202 506 202 533 c 0,18,19
 202 575 202 575 176.5 591.5 c 128,-1,20
 151 608 151 608 105 608 c 2,21,-1
 -110 608 l 1,22,23
 -103 597 -103 597 -100 583 c 128,-1,24
 -97 569 -97 569 -97 553 c 0,25,26
 -97 520 -97 520 -108.5 496.5 c 128,-1,27
 -120 473 -120 473 -136 460 c 0,28,29
 -159 441 -159 441 -192 433 c 128,-1,30
 -225 425 -225 425 -281 425 c 2,31,-1
 -375 425 l 1,32,-1
 -375 500 l 1,33,-1
 -269 500 l 2,34,35
 -237 500 -237 500 -220.5 503.5 c 128,-1,36
 -204 507 -204 507 -194 515 c 0,37,38
 -186 522 -186 522 -182.5 531 c 128,-1,39
 -179 540 -179 540 -179 552 c 0,40,41
 -179 565 -179 565 -183 575 c 128,-1,42
 -187 585 -187 585 -195 592 c 0,43,44
 -205 600 -205 600 -220 604 c 128,-1,45
 -235 608 -235 608 -270 608 c 2,46,-1
 -481 608 l 1,47,-1
 -481 683 l 1,48,-1
 59 683 l 2,49,50
 104 683 104 683 135 679.5 c 128,-1,51
 166 676 166 676 188 668 c 128,-1,52
 210 660 210 660 228 645 c 0,53,54
 249 629 249 629 262 601.5 c 128,-1,55
 275 574 275 574 275 536 c 0,56,57
 275 473 275 473 237 438 c 128,-1,58
 199 403 199 403 134 403 c 0,0,1
EndSplineSet
EndChar

StartChar: viramatelu
Encoding: 3149 3149 73
Width: 0
Flags: W
LayerCount: 2
Fore
SplineSet
-355 540 m 0,0,1
 -355 572 -355 572 -339 595 c 128,-1,2
 -323 618 -323 618 -292 637 c 1,3,-1
 -293 619 l 1,4,5
 -327 637 -327 637 -345 663.5 c 128,-1,6
 -363 690 -363 690 -363 724 c 0,7,8
 -363 751 -363 751 -353 771 c 128,-1,9
 -343 791 -343 791 -325 805 c 0,10,11
 -311 816 -311 816 -292 823.5 c 128,-1,12
 -273 831 -273 831 -243.5 834.5 c 128,-1,13
 -214 838 -214 838 -168 838 c 2,14,-1
 119 838 l 1,15,-1
 119 763 l 1,16,-1
 -184 763 l 2,17,18
 -218 763 -218 763 -233 761 c 128,-1,19
 -248 759 -248 759 -257 754 c 0,20,21
 -268 749 -268 749 -274 739.5 c 128,-1,22
 -280 730 -280 730 -280 717 c 256,23,24
 -280 704 -280 704 -275 694 c 128,-1,25
 -270 684 -270 684 -259 678 c 0,26,27
 -249 673 -249 673 -232.5 670.5 c 128,-1,28
 -216 668 -216 668 -185 668 c 2,29,-1
 -48 668 l 1,30,-1
 -48 593 l 1,31,-1
 -189 593 l 2,32,33
 -217 593 -217 593 -232.5 589.5 c 128,-1,34
 -248 586 -248 586 -256 580 c 0,35,36
 -272 568 -272 568 -272 546 c 0,37,38
 -272 534 -272 534 -267.5 525 c 128,-1,39
 -263 516 -263 516 -256 511 c 0,40,41
 -247 504 -247 504 -233 502 c 128,-1,42
 -219 500 -219 500 -197 500 c 2,43,-1
 -160 500 l 1,44,-1
 -160 425 l 1,45,-1
 -198 425 l 2,46,47
 -245 425 -245 425 -280.5 437 c 128,-1,48
 -316 449 -316 449 -335.5 474.5 c 128,-1,49
 -355 500 -355 500 -355 540 c 0,0,1
EndSplineSet
EndChar

StartChar: lengthmarktelu
Encoding: 3157 3157 74
Width: 0
GlyphClass: 4
Flags: W
LayerCount: 2
Fore
SplineSet
-159 682 m 0,0,1
 -98 682 -98 682 -63.5 656.5 c 128,-1,2
 -29 631 -29 631 -12 586 c 1,3,-1
 -88 566 l 1,4,5
 -93 581 -93 581 -102 592.5 c 128,-1,6
 -111 604 -111 604 -124.5 610 c 128,-1,7
 -138 616 -138 616 -158 616 c 0,8,9
 -185 616 -185 616 -205 602 c 128,-1,10
 -225 588 -225 588 -225 561 c 0,11,12
 -225 547 -225 547 -215.5 529.5 c 128,-1,13
 -206 512 -206 512 -176 492 c 1,14,-1
 -250 464 l 1,15,16
 -277 489 -277 489 -288.5 514 c 128,-1,17
 -300 539 -300 539 -300 569 c 0,18,19
 -300 605 -300 605 -281.5 630 c 128,-1,20
 -263 655 -263 655 -231 668.5 c 128,-1,21
 -199 682 -199 682 -159 682 c 0,0,1
EndSplineSet
EndChar

StartChar: ailengthmarktelu
Encoding: 3158 3158 75
Width: 0
GlyphClass: 4
Flags: W
LayerCount: 2
Fore
SplineSet
-440 -61 m 0,0,1
 -394 -61 -394 -61 -365.5 -78 c 128,-1,2
 -337 -95 -337 -95 -324 -121 c 128,-1,3
 -311 -147 -311 -147 -311 -173 c 0,4,5
 -311 -201 -311 -201 -320 -221 c 128,-1,6
 -329 -241 -329 -241 -343 -261 c 1,7,-1
 -427 -267 l 1,8,9
 -401 -246 -401 -246 -390.5 -225.5 c 128,-1,10
 -380 -205 -380 -205 -380 -184 c 0,11,12
 -380 -158 -380 -158 -396.5 -142.5 c 128,-1,13
 -413 -127 -413 -127 -444 -127 c 256,14,15
 -475 -127 -475 -127 -490 -142.5 c 128,-1,16
 -505 -158 -505 -158 -505 -180 c 0,17,18
 -505 -215 -505 -215 -479.5 -229 c 128,-1,19
 -454 -243 -454 -243 -408 -243 c 2,20,-1
 -2 -243 l 1,21,-1
 -2 -318 l 1,22,-1
 -359 -318 l 2,23,24
 -401 -318 -401 -318 -432.5 -314.5 c 128,-1,25
 -464 -311 -464 -311 -487.5 -303 c 128,-1,26
 -511 -295 -511 -295 -528 -282 c 0,27,28
 -549 -266 -549 -266 -561.5 -242 c 128,-1,29
 -574 -218 -574 -218 -574 -181 c 0,30,31
 -574 -127 -574 -127 -537 -94 c 128,-1,32
 -500 -61 -500 -61 -440 -61 c 0,0,1
EndSplineSet
EndChar

StartChar: tsatelu
Encoding: 3160 3160 76
Width: 760
GlyphClass: 2
Flags: W
AnchorPoint: "Anchor-4" 380 -24 basechar 0
AnchorPoint: "Anchor-0" 380 700 basechar 0
LayerCount: 2
Fore
SplineSet
543 -12 m 0,0,1
 502 -12 502 -12 473 -2 c 128,-1,2
 444 8 444 8 421 30.5 c 128,-1,3
 398 53 398 53 375 89 c 1,4,-1
 395 91 l 1,5,6
 373 50 373 50 347.5 27.5 c 128,-1,7
 322 5 322 5 292.5 -3.5 c 128,-1,8
 263 -12 263 -12 228 -12 c 0,9,10
 180 -12 180 -12 143.5 7.5 c 128,-1,11
 107 27 107 27 86.5 62.5 c 128,-1,12
 66 98 66 98 66 144 c 0,13,14
 66 178 66 178 86.5 215 c 128,-1,15
 107 252 107 252 151 274 c 1,16,-1
 139 258 l 1,17,-1
 25 258 l 1,18,-1
 25 332 l 1,19,-1
 259 332 l 1,20,-1
 259 261 l 1,21,22
 199 248 199 248 173 218 c 128,-1,23
 147 188 147 188 147 149 c 0,24,25
 147 112 147 112 170 89.5 c 128,-1,26
 193 67 193 67 233 67 c 0,27,28
 283 67 283 67 312.5 99.5 c 128,-1,29
 342 132 342 132 346 185 c 1,30,-1
 423 185 l 1,31,32
 426 144 426 144 443 118 c 128,-1,33
 460 92 460 92 485.5 79.5 c 128,-1,34
 511 67 511 67 539 67 c 0,35,36
 564 67 564 67 587.5 75.5 c 128,-1,37
 611 84 611 84 626.5 108.5 c 128,-1,38
 642 133 642 133 642 179 c 0,39,40
 642 227 642 227 621 264.5 c 128,-1,41
 600 302 600 302 565.5 328 c 128,-1,42
 531 354 531 354 488.5 368.5 c 128,-1,43
 446 383 446 383 404 385 c 1,44,-1
 434 460 l 1,45,46
 530 446 530 446 594.5 405.5 c 128,-1,47
 659 365 659 365 692 306 c 128,-1,48
 725 247 725 247 725 178 c 0,49,50
 725 114 725 114 701 72 c 128,-1,51
 677 30 677 30 636 9 c 128,-1,52
 595 -12 595 -12 543 -12 c 0,0,1
403 383 m 0,53,54
 374 383 374 383 347.5 394 c 128,-1,55
 321 405 321 405 299 435.5 c 128,-1,56
 277 466 277 466 261 522 c 1,57,-1
 344 549 l 1,58,59
 359 494 359 494 373 476 c 128,-1,60
 387 458 387 458 409 458 c 0,61,62
 429 458 429 458 447 470 c 128,-1,63
 465 482 465 482 496 523 c 2,64,-1
 527 563 l 2,65,66
 561 607 561 607 589.5 633 c 128,-1,67
 618 659 618 659 650 671 c 128,-1,68
 682 683 682 683 726 683 c 1,69,-1
 732 606 l 1,70,71
 697 604 697 604 674 595 c 128,-1,72
 651 586 651 586 631 566.5 c 128,-1,73
 611 547 611 547 585 514 c 2,74,-1
 562 484 l 2,75,76
 534 448 534 448 508.5 426 c 128,-1,77
 483 404 483 404 458 393.5 c 128,-1,78
 433 383 433 383 403 383 c 0,53,54
496 869 m 0,79,80
 555 869 555 869 591 835 c 128,-1,81
 627 801 627 801 627 749 c 0,82,83
 627 712 627 712 614 688 c 128,-1,84
 601 664 601 664 581 648 c 0,85,86
 561 634 561 634 538 626 c 128,-1,87
 515 618 515 618 485 615 c 128,-1,88
 455 612 455 612 412 612 c 2,89,-1
 79 612 l 1,90,-1
 79 687 l 1,91,-1
 460 687 l 2,92,93
 507 687 507 687 532.5 701.5 c 128,-1,94
 558 716 558 716 558 750 c 0,95,96
 558 772 558 772 543 787.5 c 128,-1,97
 528 803 528 803 497 803 c 256,98,99
 466 803 466 803 449.5 787.5 c 128,-1,100
 433 772 433 772 433 746 c 0,101,102
 433 725 433 725 443.5 704.5 c 128,-1,103
 454 684 454 684 479 663 c 1,104,-1
 396 669 l 1,105,106
 381 689 381 689 372.5 709 c 128,-1,107
 364 729 364 729 364 757 c 0,108,109
 364 784 364 784 377 809.5 c 128,-1,110
 390 835 390 835 419 852 c 128,-1,111
 448 869 448 869 496 869 c 0,79,80
EndSplineSet
EndChar

StartChar: dzatelu
Encoding: 3161 3161 77
Width: 731
GlyphClass: 2
Flags: W
AnchorPoint: "Anchor-4" 365 -24 basechar 0
AnchorPoint: "Anchor-0" 365 700 basechar 0
LayerCount: 2
Fore
SplineSet
534 825 m 0,0,1
 596 825 596 825 630.5 791 c 128,-1,2
 665 757 665 757 665 705 c 0,3,4
 665 668 665 668 652 644 c 128,-1,5
 639 620 639 620 619 604 c 0,6,7
 599 590 599 590 576 582 c 128,-1,8
 553 574 553 574 523 571 c 128,-1,9
 493 568 493 568 450 568 c 2,10,-1
 94 568 l 1,11,-1
 94 643 l 1,12,-1
 498 643 l 2,13,14
 545 643 545 643 570.5 657.5 c 128,-1,15
 596 672 596 672 596 706 c 0,16,17
 596 728 596 728 581 743.5 c 128,-1,18
 566 759 566 759 535 759 c 256,19,20
 504 759 504 759 487.5 743.5 c 128,-1,21
 471 728 471 728 471 702 c 0,22,23
 471 681 471 681 482 660.5 c 128,-1,24
 493 640 493 640 518 619 c 1,25,-1
 434 625 l 1,26,27
 420 645 420 645 411 665 c 128,-1,28
 402 685 402 685 402 713 c 0,29,30
 402 740 402 740 415.5 765.5 c 128,-1,31
 429 791 429 791 458 808 c 128,-1,32
 487 825 487 825 534 825 c 0,0,1
530 -12 m 0,33,34
 492 -12 492 -12 462.5 -1.5 c 128,-1,35
 433 9 433 9 409.5 31 c 128,-1,36
 386 53 386 53 366 89 c 1,37,-1
 386 90 l 1,38,39
 360 49 360 49 333 27 c 128,-1,40
 306 5 306 5 275 -3.5 c 128,-1,41
 244 -12 244 -12 205 -12 c 0,42,43
 150 -12 150 -12 113.5 7.5 c 128,-1,44
 77 27 77 27 59 59.5 c 128,-1,45
 41 92 41 92 41 130 c 0,46,47
 41 171 41 171 57.5 200 c 128,-1,48
 74 229 74 229 107 250.5 c 128,-1,49
 140 272 140 272 189 289 c 0,50,51
 230 304 230 304 254 321 c 128,-1,52
 278 338 278 338 278 371 c 0,53,54
 278 387 278 387 271 399.5 c 128,-1,55
 264 412 264 412 247.5 419.5 c 128,-1,56
 231 427 231 427 203 427 c 0,57,58
 160 427 160 427 139 410.5 c 128,-1,59
 118 394 118 394 118 365 c 0,60,61
 118 352 118 352 121.5 341 c 128,-1,62
 125 330 125 330 128 323 c 1,63,-1
 53 302 l 1,64,65
 45 317 45 317 40.5 335.5 c 128,-1,66
 36 354 36 354 36 375 c 0,67,68
 36 407 36 407 53 435.5 c 128,-1,69
 70 464 70 464 107 482 c 128,-1,70
 144 500 144 500 203 500 c 0,71,72
 263 500 263 500 297 480 c 128,-1,73
 331 460 331 460 345.5 430 c 128,-1,74
 360 400 360 400 360 370 c 0,75,76
 360 332 360 332 345 305.5 c 128,-1,77
 330 279 330 279 300.5 260 c 128,-1,78
 271 241 271 241 227 225 c 0,79,80
 174 205 174 205 148.5 184.5 c 128,-1,81
 123 164 123 164 123 131 c 0,82,83
 123 102 123 102 143.5 84.5 c 128,-1,84
 164 67 164 67 207 67 c 0,85,86
 249 67 249 67 276.5 81.5 c 128,-1,87
 304 96 304 96 318.5 123 c 128,-1,88
 333 150 333 150 336 185 c 1,89,-1
 414 185 l 1,90,91
 418 124 418 124 450 95.5 c 128,-1,92
 482 67 482 67 527 67 c 0,93,94
 574 67 574 67 596 87 c 128,-1,95
 618 107 618 107 618 142 c 0,96,97
 618 165 618 165 611 184 c 128,-1,98
 604 203 604 203 593 221 c 1,99,-1
 667 252 l 1,100,101
 682 230 682 230 691.5 198.5 c 128,-1,102
 701 167 701 167 701 135 c 0,103,104
 701 89 701 89 681 56 c 128,-1,105
 661 23 661 23 623 5.5 c 128,-1,106
 585 -12 585 -12 530 -12 c 0,33,34
673 377 m 0,107,108
 673 324 673 324 631.5 288 c 128,-1,109
 590 252 590 252 512 252 c 0,110,111
 458 252 458 252 416 267 c 128,-1,112
 374 282 374 282 345 306.5 c 128,-1,113
 316 331 316 331 299 357 c 1,114,-1
 335 414 l 1,115,116
 364 370 364 370 415 348.5 c 128,-1,117
 466 327 466 327 514 327 c 0,118,119
 541 327 541 327 558 333 c 128,-1,120
 575 339 575 339 583.5 350 c 128,-1,121
 592 361 592 361 592 376 c 0,122,123
 592 404 592 404 571 414.5 c 128,-1,124
 550 425 550 425 521 425 c 0,125,126
 503 425 503 425 488 423 c 128,-1,127
 473 421 473 421 460 419 c 1,128,-1
 450 491 l 1,129,130
 462 494 462 494 482 497 c 128,-1,131
 502 500 502 500 529 500 c 0,132,133
 565 500 565 500 598 489 c 128,-1,134
 631 478 631 478 652 451 c 128,-1,135
 673 424 673 424 673 377 c 0,107,108
EndSplineSet
EndChar

StartChar: rrratelu
Encoding: 3162 3162 78
Width: 716
GlyphClass: 2
Flags: W
AnchorPoint: "Anchor-4" 358 -24 basechar 0
AnchorPoint: "Anchor-1" 716 -24 basechar 0
AnchorPoint: "Anchor-0" 358 700 basechar 0
LayerCount: 2
Fore
SplineSet
512 -12 m 0,0,1
 473 -12 473 -12 444 -2 c 128,-1,2
 415 8 415 8 392.5 30.5 c 128,-1,3
 370 53 370 53 349 89 c 1,4,-1
 367 92 l 1,5,6
 346 49 346 49 320 26 c 128,-1,7
 294 3 294 3 264.5 -5 c 128,-1,8
 235 -13 235 -13 201 -13 c 0,9,10
 126 -13 126 -13 80.5 43.5 c 128,-1,11
 35 100 35 100 35 200 c 0,12,13
 35 289 35 289 74 356.5 c 128,-1,14
 113 424 113 424 186.5 462 c 128,-1,15
 260 500 260 500 362 500 c 256,16,17
 464 500 464 500 535 461.5 c 128,-1,18
 606 423 606 423 643.5 355.5 c 128,-1,19
 681 288 681 288 681 200 c 0,20,21
 681 132 681 132 660.5 84.5 c 128,-1,22
 640 37 640 37 602 12.5 c 128,-1,23
 564 -12 564 -12 512 -12 c 0,0,1
503 67 m 0,24,25
 547 67 547 67 572.5 98 c 128,-1,26
 598 129 598 129 598 202 c 0,27,28
 598 268 598 268 573 318 c 128,-1,29
 548 368 548 368 497.5 396.5 c 128,-1,30
 447 425 447 425 369 425 c 2,31,-1
 354 425 l 2,32,33
 277 425 277 425 224 397.5 c 128,-1,34
 171 370 171 370 144.5 321 c 128,-1,35
 118 272 118 272 118 205 c 0,36,37
 118 130 118 130 142.5 98.5 c 128,-1,38
 167 67 167 67 212 67 c 0,39,40
 259 67 259 67 287 99.5 c 128,-1,41
 315 132 315 132 319 185 c 1,42,-1
 397 185 l 1,43,44
 402 124 402 124 433.5 95.5 c 128,-1,45
 465 67 465 67 503 67 c 0,24,25
67 246 m 1,46,-1
 82 318 l 1,47,-1
 620 318 l 1,48,-1
 620 246 l 1,49,-1
 67 246 l 1,46,-1
EndSplineSet
EndChar

StartChar: llvocalictelu
Encoding: 3169 3169 80
Width: 1227
GlyphClass: 2
Flags: W
AnchorPoint: "Anchor-4" 613 -24 basechar 0
AnchorPoint: "Anchor-0" 613 700 basechar 0
LayerCount: 2
Fore
SplineSet
559 -75 m 0,0,1
 498 -75 498 -75 456.5 -55 c 128,-1,2
 415 -35 415 -35 394.5 1 c 128,-1,3
 374 37 374 37 374 84 c 0,4,5
 374 116 374 116 384.5 144 c 128,-1,6
 395 172 395 172 414.5 199 c 128,-1,7
 434 226 434 226 460 255 c 0,8,9
 488 286 488 286 504.5 311 c 128,-1,10
 521 336 521 336 521 364 c 0,11,12
 521 389 521 389 504 406.5 c 128,-1,13
 487 424 487 424 453 424 c 0,14,15
 407 424 407 424 378.5 391.5 c 128,-1,16
 350 359 350 359 346 303 c 1,17,-1
 268 303 l 1,18,19
 265 365 265 365 239.5 395 c 128,-1,20
 214 425 214 425 176 425 c 0,21,22
 143 425 143 425 127.5 407.5 c 128,-1,23
 112 390 112 390 112 364 c 0,24,25
 112 339 112 339 118.5 321.5 c 128,-1,26
 125 304 125 304 135 287 c 1,27,-1
 59 263 l 1,28,29
 47 286 47 286 38 313.5 c 128,-1,30
 29 341 29 341 29 372 c 0,31,32
 29 411 29 411 48 439.5 c 128,-1,33
 67 468 67 468 99 484 c 128,-1,34
 131 500 131 500 170 500 c 0,35,36
 223 500 223 500 256.5 476 c 128,-1,37
 290 452 290 452 315 398 c 1,38,-1
 298 399 l 1,39,40
 327 451 327 451 364.5 475.5 c 128,-1,41
 402 500 402 500 457 500 c 0,42,43
 497 500 497 500 524.5 488 c 128,-1,44
 552 476 552 476 569 457 c 128,-1,45
 586 438 586 438 593.5 415 c 128,-1,46
 601 392 601 392 601 370 c 0,47,48
 601 337 601 337 590 309.5 c 128,-1,49
 579 282 579 282 562 259 c 128,-1,50
 545 236 545 236 526 215 c 0,51,52
 504 190 504 190 488.5 169.5 c 128,-1,53
 473 149 473 149 465 129.5 c 128,-1,54
 457 110 457 110 457 87 c 0,55,56
 457 62 457 62 468 43.5 c 128,-1,57
 479 25 479 25 502 14.5 c 128,-1,58
 525 4 525 4 562 4 c 0,59,60
 613 4 613 4 651 22.5 c 128,-1,61
 689 41 689 41 714 73 c 128,-1,62
 739 105 739 105 751 145 c 128,-1,63
 763 185 763 185 763 228 c 256,64,65
 763 271 763 271 750 309 c 128,-1,66
 737 347 737 347 710 378.5 c 128,-1,67
 683 410 683 410 642 433 c 1,68,-1
 693 488 l 1,69,70
 773 440 773 440 809.5 376.5 c 128,-1,71
 846 313 846 313 846 227 c 0,72,73
 846 158 846 158 824 102 c 128,-1,74
 802 46 802 46 762.5 6.5 c 128,-1,75
 723 -33 723 -33 671 -54 c 128,-1,76
 619 -75 619 -75 559 -75 c 0,0,1
1071 220 m 0,77,78
 1034 220 1034 220 1007.5 231 c 128,-1,79
 981 242 981 242 965 260.5 c 128,-1,80
 949 279 949 279 941.5 301 c 128,-1,81
 934 323 934 323 934 344 c 0,82,83
 934 376 934 376 943.5 399 c 128,-1,84
 953 422 953 422 967 443 c 1,85,-1
 1055 450 l 1,86,87
 1030 425 1030 425 1018.5 401 c 128,-1,88
 1007 377 1007 377 1007 353 c 0,89,90
 1007 323 1007 323 1024.5 304.5 c 128,-1,91
 1042 286 1042 286 1075 286 c 0,92,93
 1110 286 1110 286 1124.5 304.5 c 128,-1,94
 1139 323 1139 323 1139 350 c 0,95,96
 1139 391 1139 391 1114 408 c 128,-1,97
 1089 425 1089 425 1042 425 c 2,98,-1
 674 425 l 1,99,-1
 642 433 l 1,100,-1
 679 500 l 1,101,-1
 1000 500 l 2,102,103
 1043 500 1043 500 1073 496.5 c 128,-1,104
 1103 493 1103 493 1125 485 c 128,-1,105
 1147 477 1147 477 1165 462 c 0,106,107
 1186 446 1186 446 1199 418.5 c 128,-1,108
 1212 391 1212 391 1212 353 c 0,109,110
 1212 290 1212 290 1173.5 255 c 128,-1,111
 1135 220 1135 220 1071 220 c 0,77,78
EndSplineSet
EndChar

StartChar: lvocalicvowelsigntelu
Encoding: 3170 3170 81
Width: 0
GlyphClass: 4
Flags: W
LayerCount: 2
Fore
SplineSet
-196 -467 m 0,0,1
 -262 -467 -262 -467 -296 -434 c 128,-1,2
 -330 -401 -330 -401 -330 -348 c 0,3,4
 -330 -315 -330 -315 -316 -286.5 c 128,-1,5
 -302 -258 -302 -258 -274 -230 c 0,6,7
 -252 -207 -252 -207 -241.5 -191.5 c 128,-1,8
 -231 -176 -231 -176 -231 -160 c 0,9,10
 -231 -146 -231 -146 -241 -135.5 c 128,-1,11
 -251 -125 -251 -125 -275 -125 c 0,12,13
 -300 -125 -300 -125 -319 -145 c 128,-1,14
 -338 -165 -338 -165 -340 -204 c 1,15,-1
 -408 -204 l 1,16,17
 -411 -162 -411 -162 -425 -143.5 c 128,-1,18
 -439 -125 -439 -125 -467 -125 c 0,19,20
 -487 -125 -487 -125 -496.5 -136 c 128,-1,21
 -506 -147 -506 -147 -506 -164 c 0,22,23
 -506 -177 -506 -177 -501 -190.5 c 128,-1,24
 -496 -204 -496 -204 -490 -215 c 1,25,-1
 -555 -235 l 1,26,27
 -567 -215 -567 -215 -572 -194 c 128,-1,28
 -577 -173 -577 -173 -577 -154 c 0,29,30
 -577 -110 -577 -110 -546.5 -85.5 c 128,-1,31
 -516 -61 -516 -61 -476 -61 c 0,32,33
 -432 -61 -432 -61 -408.5 -78.5 c 128,-1,34
 -385 -96 -385 -96 -366 -136 c 1,35,-1
 -383 -135 l 1,36,37
 -360 -95 -360 -95 -332.5 -78 c 128,-1,38
 -305 -61 -305 -61 -265 -61 c 0,39,40
 -227 -61 -227 -61 -204 -75 c 128,-1,41
 -181 -89 -181 -89 -170.5 -110 c 128,-1,42
 -160 -131 -160 -131 -160 -153 c 256,43,44
 -160 -175 -160 -175 -166.5 -192.5 c 128,-1,45
 -173 -210 -173 -210 -185 -225.5 c 128,-1,46
 -197 -241 -197 -241 -212 -258 c 0,47,48
 -237 -286 -237 -286 -248.5 -306.5 c 128,-1,49
 -260 -327 -260 -327 -260 -347 c 0,50,51
 -260 -372 -260 -372 -242.5 -387 c 128,-1,52
 -225 -402 -225 -402 -191 -402 c 0,53,54
 -145 -402 -145 -402 -116 -380 c 128,-1,55
 -87 -358 -87 -358 -73 -323 c 128,-1,56
 -59 -288 -59 -288 -59 -249 c 256,57,58
 -59 -210 -59 -210 -77.5 -176 c 128,-1,59
 -96 -142 -96 -142 -135 -117 c 1,60,-1
 -83 -61 l 1,61,62
 -29 -99 -29 -99 -8 -147 c 128,-1,63
 13 -195 13 -195 13 -250 c 0,64,65
 13 -321 13 -321 -15 -369.5 c 128,-1,66
 -43 -418 -43 -418 -90.5 -442.5 c 128,-1,67
 -138 -467 -138 -467 -196 -467 c 0,0,1
EndSplineSet
Substitution2: "Single Substitution lookup 41 subtable" lvocalicvowelsigntelu.spacing
EndChar

StartChar: llvocalicvowelsigntelu
Encoding: 3171 3171 82
Width: 324
GlyphClass: 4
Flags: W
LayerCount: 2
Fore
SplineSet
-196 -467 m 0,0,1
 -262 -467 -262 -467 -296 -434 c 128,-1,2
 -330 -401 -330 -401 -330 -348 c 0,3,4
 -330 -315 -330 -315 -316 -286.5 c 128,-1,5
 -302 -258 -302 -258 -274 -230 c 0,6,7
 -252 -207 -252 -207 -241.5 -191.5 c 128,-1,8
 -231 -176 -231 -176 -231 -160 c 0,9,10
 -231 -146 -231 -146 -241 -135.5 c 128,-1,11
 -251 -125 -251 -125 -275 -125 c 0,12,13
 -300 -125 -300 -125 -319 -145 c 128,-1,14
 -338 -165 -338 -165 -340 -204 c 1,15,-1
 -408 -204 l 1,16,17
 -411 -162 -411 -162 -425 -143.5 c 128,-1,18
 -439 -125 -439 -125 -467 -125 c 0,19,20
 -487 -125 -487 -125 -496.5 -136 c 128,-1,21
 -506 -147 -506 -147 -506 -164 c 0,22,23
 -506 -177 -506 -177 -501 -190.5 c 128,-1,24
 -496 -204 -496 -204 -490 -215 c 1,25,-1
 -555 -235 l 1,26,27
 -567 -215 -567 -215 -572 -194 c 128,-1,28
 -577 -173 -577 -173 -577 -154 c 0,29,30
 -577 -110 -577 -110 -546.5 -85.5 c 128,-1,31
 -516 -61 -516 -61 -476 -61 c 0,32,33
 -432 -61 -432 -61 -408.5 -78.5 c 128,-1,34
 -385 -96 -385 -96 -366 -136 c 1,35,-1
 -383 -135 l 1,36,37
 -360 -95 -360 -95 -332.5 -78 c 128,-1,38
 -305 -61 -305 -61 -265 -61 c 0,39,40
 -227 -61 -227 -61 -204 -75 c 128,-1,41
 -181 -89 -181 -89 -170.5 -110 c 128,-1,42
 -160 -131 -160 -131 -160 -153 c 256,43,44
 -160 -175 -160 -175 -166.5 -192.5 c 128,-1,45
 -173 -210 -173 -210 -185 -225.5 c 128,-1,46
 -197 -241 -197 -241 -212 -258 c 0,47,48
 -237 -286 -237 -286 -248.5 -306.5 c 128,-1,49
 -260 -327 -260 -327 -260 -347 c 0,50,51
 -260 -372 -260 -372 -242.5 -387 c 128,-1,52
 -225 -402 -225 -402 -191 -402 c 0,53,54
 -145 -402 -145 -402 -116 -380 c 128,-1,55
 -87 -358 -87 -358 -73 -323 c 128,-1,56
 -59 -288 -59 -288 -59 -249 c 256,57,58
 -59 -210 -59 -210 -77.5 -176 c 128,-1,59
 -96 -142 -96 -142 -135 -117 c 1,60,-1
 -95 -61 l 1,61,62
 -37 -100 -37 -100 -12 -147.5 c 128,-1,63
 13 -195 13 -195 13 -250 c 0,64,65
 13 -321 13 -321 -15 -369.5 c 128,-1,66
 -43 -418 -43 -418 -90.5 -442.5 c 128,-1,67
 -138 -467 -138 -467 -196 -467 c 0,0,1
201 -299 m 0,68,69
 156 -299 156 -299 128 -282 c 128,-1,70
 100 -265 100 -265 87.5 -239.5 c 128,-1,71
 75 -214 75 -214 75 -189 c 0,72,73
 75 -161 75 -161 84 -141 c 128,-1,74
 93 -121 93 -121 108 -102 c 1,75,-1
 189 -96 l 1,76,77
 164 -117 164 -117 153 -137 c 128,-1,78
 142 -157 142 -157 142 -179 c 0,79,80
 142 -204 142 -204 157.5 -220 c 128,-1,81
 173 -236 173 -236 201 -236 c 256,82,83
 229 -236 229 -236 243 -221 c 128,-1,84
 257 -206 257 -206 257 -186 c 0,85,86
 257 -152 257 -152 233.5 -138.5 c 128,-1,87
 210 -125 210 -125 169 -125 c 2,88,-1
 -104 -125 l 1,89,-1
 -95 -61 l 1,90,-1
 124 -61 l 2,91,92
 182 -61 182 -61 217.5 -66.5 c 128,-1,93
 253 -72 253 -72 281 -93 c 0,94,95
 301 -107 301 -107 312.5 -128.5 c 128,-1,96
 324 -150 324 -150 324 -182 c 0,97,98
 324 -237 324 -237 290.5 -268 c 128,-1,99
 257 -299 257 -299 201 -299 c 0,68,69
EndSplineSet
Substitution2: "Single Substitution lookup 41 subtable" llvocalicvowelsigntelu.spacing
EndChar

StartChar: zerotelu
Encoding: 3174 3174 83
Width: 675
Flags: W
LayerCount: 2
Fore
SplineSet
49 312 m 0,0,1
 49 406 49 406 82 478.5 c 128,-1,2
 115 551 115 551 179 592 c 128,-1,3
 243 633 243 633 336 633 c 0,4,5
 428 633 428 633 493 592 c 128,-1,6
 558 551 558 551 592 478.5 c 128,-1,7
 626 406 626 406 626 312 c 0,8,9
 626 214 626 214 593 141 c 128,-1,10
 560 68 560 68 495.5 28 c 128,-1,11
 431 -12 431 -12 336 -12 c 0,12,13
 242 -12 242 -12 178 30 c 128,-1,14
 114 72 114 72 81.5 145.5 c 128,-1,15
 49 219 49 219 49 312 c 0,0,1
136 310 m 256,16,17
 136 235 136 235 157.5 180.5 c 128,-1,18
 179 126 179 126 223.5 96.5 c 128,-1,19
 268 67 268 67 336 67 c 256,20,21
 404 67 404 67 449 96.5 c 128,-1,22
 494 126 494 126 516.5 180.5 c 128,-1,23
 539 235 539 235 539 310 c 256,24,25
 539 385 539 385 516 439.5 c 128,-1,26
 493 494 493 494 448 524 c 128,-1,27
 403 554 403 554 336 554 c 256,28,29
 269 554 269 554 224.5 524 c 128,-1,30
 180 494 180 494 158 439.5 c 128,-1,31
 136 385 136 385 136 310 c 256,16,17
EndSplineSet
EndChar

StartChar: onetelu
Encoding: 3175 3175 84
Width: 665
Flags: W
LayerCount: 2
Fore
SplineSet
331 633 m 0,0,1
 414 633 414 633 478.5 596 c 128,-1,2
 543 559 543 559 579.5 488.5 c 128,-1,3
 616 418 616 418 616 317 c 0,4,5
 616 245 616 245 603 187 c 128,-1,6
 590 129 590 129 570 81.5 c 128,-1,7
 550 34 550 34 528 -8 c 1,8,-1
 442 29 l 1,9,10
 464 66 464 66 484 108.5 c 128,-1,11
 504 151 504 151 517 202 c 128,-1,12
 530 253 530 253 530 314 c 0,13,14
 530 381 530 381 509.5 435.5 c 128,-1,15
 489 490 489 490 445 522 c 128,-1,16
 401 554 401 554 331 554 c 0,17,18
 269 554 269 554 225 525.5 c 128,-1,19
 181 497 181 497 158 443.5 c 128,-1,20
 135 390 135 390 135 314 c 0,21,22
 135 225 135 225 162 157.5 c 128,-1,23
 189 90 189 90 223 29 c 1,24,-1
 136 -8 l 1,25,26
 100 63 100 63 74.5 141.5 c 128,-1,27
 49 220 49 220 49 315 c 0,28,29
 49 403 49 403 80 475 c 128,-1,30
 111 547 111 547 173.5 590 c 128,-1,31
 236 633 236 633 331 633 c 0,0,1
EndSplineSet
EndChar

StartChar: twotelu
Encoding: 3176 3176 85
Width: 773
Flags: W
LayerCount: 2
Fore
SplineSet
442 633 m 0,0,1
 507 633 507 633 559 608 c 128,-1,2
 611 583 611 583 648 538.5 c 128,-1,3
 685 494 685 494 704.5 435.5 c 128,-1,4
 724 377 724 377 724 309 c 0,5,6
 724 240 724 240 705 188 c 128,-1,7
 686 136 686 136 654 98 c 0,8,9
 625 65 625 65 584.5 43 c 128,-1,10
 544 21 544 21 488 10.5 c 128,-1,11
 432 0 432 0 355 0 c 2,12,-1
 15 0 l 1,13,-1
 15 80 l 1,14,-1
 331 80 l 2,15,16
 402 80 402 80 450 86.5 c 128,-1,17
 498 93 498 93 530 108 c 128,-1,18
 562 123 562 123 585 148 c 0,19,20
 610 174 610 174 623.5 213.5 c 128,-1,21
 637 253 637 253 637 308 c 0,22,23
 637 366 637 366 622 414 c 128,-1,24
 607 462 607 462 580 495 c 128,-1,25
 553 528 553 528 518 540 c 0,26,27
 500 550 500 550 479 555 c 128,-1,28
 458 560 458 560 437 560 c 0,29,30
 385 560 385 560 364 537 c 128,-1,31
 343 514 343 514 343 480 c 0,32,33
 343 449 343 449 361 431.5 c 128,-1,34
 379 414 379 414 412 414 c 0,35,36
 444 414 444 414 462.5 432.5 c 128,-1,37
 481 451 481 451 481 483 c 0,38,39
 481 503 481 503 473 524.5 c 128,-1,40
 465 546 465 546 451 561 c 1,41,-1
 518 551 l 1,42,-1
 545 530 l 1,43,44
 552 514 552 514 555 501.5 c 128,-1,45
 558 489 558 489 558 475 c 0,46,47
 558 433 558 433 540.5 402.5 c 128,-1,48
 523 372 523 372 491 355.5 c 128,-1,49
 459 339 459 339 415 339 c 0,50,51
 340 339 340 339 301 378.5 c 128,-1,52
 262 418 262 418 262 479 c 0,53,54
 262 522 262 522 282 557 c 128,-1,55
 302 592 302 592 342.5 612.5 c 128,-1,56
 383 633 383 633 442 633 c 0,0,1
EndSplineSet
EndChar

StartChar: threetelu
Encoding: 3177 3177 86
Width: 546
Flags: W
LayerCount: 2
Fore
SplineSet
272 -12 m 0,0,1
 188 -12 188 -12 127.5 13.5 c 128,-1,2
 67 39 67 39 14 73 c 1,3,-1
 54 149 l 1,4,5
 94 118 94 118 146.5 92.5 c 128,-1,6
 199 67 199 67 273 67 c 0,7,8
 344 67 344 67 379 96 c 128,-1,9
 414 125 414 125 414 168 c 0,10,11
 414 193 414 193 404.5 211.5 c 128,-1,12
 395 230 395 230 377 243 c 0,13,14
 356 258 356 258 319.5 265 c 128,-1,15
 283 272 283 272 209 272 c 2,16,-1
 189 272 l 1,17,-1
 189 351 l 1,18,-1
 218 351 l 2,19,20
 283 351 283 351 315 357.5 c 128,-1,21
 347 364 347 364 368 376 c 0,22,23
 391 390 391 390 402.5 410.5 c 128,-1,24
 414 431 414 431 414 457 c 0,25,26
 414 501 414 501 379 527.5 c 128,-1,27
 344 554 344 554 276 554 c 0,28,29
 197 554 197 554 144.5 528 c 128,-1,30
 92 502 92 502 54 472 c 1,31,-1
 14 548 l 1,32,33
 35 563 35 563 71.5 583 c 128,-1,34
 108 603 108 603 158.5 618 c 128,-1,35
 209 633 209 633 272 633 c 0,36,37
 340 633 340 633 391 612 c 128,-1,38
 442 591 442 591 471 553 c 128,-1,39
 500 515 500 515 500 462 c 0,40,41
 500 410 500 410 473 369.5 c 128,-1,42
 446 329 446 329 376 305 c 1,43,-1
 378 318 l 1,44,45
 418 305 418 305 445 283.5 c 128,-1,46
 472 262 472 262 486 233 c 128,-1,47
 500 204 500 204 500 166 c 0,48,49
 500 117 500 117 474.5 76.5 c 128,-1,50
 449 36 449 36 398 12 c 128,-1,51
 347 -12 347 -12 272 -12 c 0,0,1
EndSplineSet
EndChar

StartChar: fourtelu
Encoding: 3178 3178 87
Width: 686
Flags: W
LayerCount: 2
Fore
SplineSet
342 -12 m 0,0,1
 312 -12 312 -12 283.5 -6 c 128,-1,2
 255 0 255 0 232 13.5 c 128,-1,3
 209 27 209 27 195 50.5 c 128,-1,4
 181 74 181 74 181 108 c 0,5,6
 181 130 181 130 189.5 148 c 128,-1,7
 198 166 198 166 214.5 180.5 c 128,-1,8
 231 195 231 195 253 204 c 0,9,10
 256 205 256 205 269.5 215.5 c 128,-1,11
 283 226 283 226 297 236 c 128,-1,12
 311 246 311 246 313 247 c 0,13,14
 395 249 395 249 449.5 267 c 128,-1,15
 504 285 504 285 531.5 321 c 128,-1,16
 559 357 559 357 559 412 c 0,17,18
 559 456 559 456 533.5 496.5 c 128,-1,19
 508 537 508 537 453 562 c 1,20,-1
 490 633 l 1,21,22
 569 596 569 596 607 537 c 128,-1,23
 645 478 645 478 645 412 c 0,24,25
 645 319 645 319 582 256.5 c 128,-1,26
 519 194 519 194 395 178 c 1,27,-1
 361 180 l 1,28,29
 303 173 303 173 283.5 153 c 128,-1,30
 264 133 264 133 264 114 c 0,31,32
 264 88 264 88 284.5 76 c 128,-1,33
 305 64 305 64 342 64 c 256,34,35
 379 64 379 64 400.5 76 c 128,-1,36
 422 88 422 88 422 114 c 0,37,38
 422 138 422 138 396 156.5 c 128,-1,39
 370 175 370 175 317 179 c 1,40,-1
 292 178 l 1,41,42
 174 192 174 192 108 254.5 c 128,-1,43
 42 317 42 317 42 412 c 0,44,45
 42 478 42 478 79.5 537 c 128,-1,46
 117 596 117 596 196 633 c 1,47,-1
 233 562 l 1,48,49
 178 535 178 535 153 495.5 c 128,-1,50
 128 456 128 456 128 412 c 0,51,52
 128 357 128 357 155 321 c 128,-1,53
 182 285 182 285 236.5 267 c 128,-1,54
 291 249 291 249 373 247 c 1,55,-1
 433 204 l 1,56,57
 456 195 456 195 472 180.5 c 128,-1,58
 488 166 488 166 496.5 148 c 128,-1,59
 505 130 505 130 505 108 c 0,60,61
 505 62 505 62 481 36 c 128,-1,62
 457 10 457 10 420 -1 c 128,-1,63
 383 -12 383 -12 342 -12 c 0,0,1
EndSplineSet
EndChar

StartChar: fivetelu
Encoding: 3179 3179 88
Width: 711
Flags: W
LayerCount: 2
Fore
SplineSet
255 -12 m 0,0,1
 180 -12 180 -12 123.5 8.5 c 128,-1,2
 67 29 67 29 20 59 c 1,3,-1
 60 134 l 1,4,5
 98 105 98 105 144.5 86 c 128,-1,6
 191 67 191 67 240 67 c 0,7,8
 292 67 292 67 334.5 90 c 128,-1,9
 377 113 377 113 402 167.5 c 128,-1,10
 427 222 427 222 427 314 c 0,11,12
 427 393 427 393 404.5 446.5 c 128,-1,13
 382 500 382 500 340.5 527 c 128,-1,14
 299 554 299 554 240 554 c 0,15,16
 193 554 193 554 146 535.5 c 128,-1,17
 99 517 99 517 60 487 c 1,18,-1
 20 563 l 1,19,20
 72 596 72 596 126.5 614.5 c 128,-1,21
 181 633 181 633 249 633 c 0,22,23
 320 633 320 633 379.5 598.5 c 128,-1,24
 439 564 439 564 475 492.5 c 128,-1,25
 511 421 511 421 511 310 c 0,26,27
 511 207 511 207 478.5 135 c 128,-1,28
 446 63 446 63 388.5 25.5 c 128,-1,29
 331 -12 331 -12 255 -12 c 0,0,1
672 163 m 0,30,31
 672 111 672 111 647 67 c 128,-1,32
 622 23 622 23 581 -12 c 1,33,-1
 514 39 l 1,34,35
 552 69 552 69 569.5 102 c 128,-1,36
 587 135 587 135 587 170 c 0,37,38
 587 209 587 209 566 235 c 128,-1,39
 545 261 545 261 500 262 c 1,40,-1
 500 357 l 1,41,42
 543 357 543 357 565 383 c 128,-1,43
 587 409 587 409 587 448 c 0,44,45
 587 483 587 483 570 517.5 c 128,-1,46
 553 552 553 552 514 582 c 1,47,-1
 582 632 l 1,48,49
 626 595 626 595 649 551 c 128,-1,50
 672 507 672 507 672 458 c 0,51,52
 672 417 672 417 658 387.5 c 128,-1,53
 644 358 644 358 619 338 c 128,-1,54
 594 318 594 318 561 304 c 1,55,-1
 560 316 l 1,56,57
 596 303 596 303 621 281.5 c 128,-1,58
 646 260 646 260 659 231 c 128,-1,59
 672 202 672 202 672 163 c 0,30,31
EndSplineSet
EndChar

StartChar: sixtelu
Encoding: 3180 3180 89
Width: 698
Flags: W
LayerCount: 2
Fore
SplineSet
46 167 m 0,0,1
 46 206 46 206 59.5 235 c 128,-1,2
 73 264 73 264 95.5 285 c 128,-1,3
 118 306 118 306 146 319 c 1,4,-1
 148 305 l 1,5,6
 118 321 118 321 97.5 341.5 c 128,-1,7
 77 362 77 362 66.5 388.5 c 128,-1,8
 56 415 56 415 56 448 c 0,9,10
 56 493 56 493 73.5 526 c 128,-1,11
 91 559 91 559 117 578 c 0,12,13
 137 592 137 592 160 601.5 c 128,-1,14
 183 611 183 611 215.5 615.5 c 128,-1,15
 248 620 248 620 299 620 c 2,16,-1
 305 620 l 1,17,-1
 305 540 l 1,18,-1
 300 540 l 2,19,20
 260 540 260 540 231.5 535 c 128,-1,21
 203 530 203 530 185 519 c 0,22,23
 165 507 165 507 153.5 489.5 c 128,-1,24
 142 472 142 472 142 444 c 0,25,26
 142 419 142 419 152 402 c 128,-1,27
 162 385 162 385 179 374 c 0,28,29
 196 364 196 364 214 359 c 128,-1,30
 232 354 232 354 261 352 c 128,-1,31
 290 350 290 350 338 350 c 2,32,-1
 463 350 l 1,33,-1
 463 270 l 1,34,-1
 308 270 l 2,35,36
 251 270 251 270 223 265 c 128,-1,37
 195 260 195 260 176 249 c 0,38,39
 156 237 156 237 144.5 220 c 128,-1,40
 133 203 133 203 133 174 c 0,41,42
 133 144 133 144 147.5 125 c 128,-1,43
 162 106 162 106 187 95 c 0,44,45
 205 88 205 88 234.5 84 c 128,-1,46
 264 80 264 80 330 80 c 2,47,-1
 683 80 l 1,48,-1
 683 0 l 1,49,-1
 340 0 l 2,50,51
 273 0 273 0 229 4.5 c 128,-1,52
 185 9 185 9 155 20.5 c 128,-1,53
 125 32 125 32 100 52 c 0,54,55
 77 72 77 72 61.5 101.5 c 128,-1,56
 46 131 46 131 46 167 c 0,0,1
EndSplineSet
EndChar

StartChar: seventelu
Encoding: 3181 3181 90
Width: 573
Flags: W
LayerCount: 2
Fore
SplineSet
278 -12 m 0,0,1
 191 -12 191 -12 139.5 12.5 c 128,-1,2
 88 37 88 37 65.5 77 c 128,-1,3
 43 117 43 117 43 163 c 0,4,5
 43 213 43 213 68.5 248.5 c 128,-1,6
 94 284 94 284 144 311 c 128,-1,7
 194 338 194 338 267 361 c 0,8,9
 323 379 323 379 359.5 394 c 128,-1,10
 396 409 396 409 414.5 428 c 128,-1,11
 433 447 433 447 433 477 c 0,12,13
 433 499 433 499 418.5 516.5 c 128,-1,14
 404 534 404 534 374 544 c 128,-1,15
 344 554 344 554 298 554 c 0,16,17
 215 554 215 554 177 533 c 128,-1,18
 139 512 139 512 139 475 c 0,19,20
 139 458 139 458 144.5 443 c 128,-1,21
 150 428 150 428 154 420 c 1,22,-1
 78 394 l 1,23,24
 66 413 66 413 59.5 435 c 128,-1,25
 53 457 53 457 53 482 c 0,26,27
 53 521 53 521 77.5 555.5 c 128,-1,28
 102 590 102 590 154.5 611.5 c 128,-1,29
 207 633 207 633 290 633 c 0,30,31
 357 633 357 633 401.5 618.5 c 128,-1,32
 446 604 446 604 472 580.5 c 128,-1,33
 498 557 498 557 509 529 c 128,-1,34
 520 501 520 501 520 474 c 0,35,36
 520 426 520 426 497 393.5 c 128,-1,37
 474 361 474 361 429 337.5 c 128,-1,38
 384 314 384 314 318 292 c 0,39,40
 251 270 251 270 209.5 252 c 128,-1,41
 168 234 168 234 148.5 212.5 c 128,-1,42
 129 191 129 191 129 158 c 0,43,44
 129 131 129 131 144 110.5 c 128,-1,45
 159 90 159 90 192 78.5 c 128,-1,46
 225 67 225 67 278 67 c 0,47,48
 340 67 340 67 377 78 c 128,-1,49
 414 89 414 89 430.5 109 c 128,-1,50
 447 129 447 129 447 155 c 0,51,52
 447 173 447 173 441.5 188.5 c 128,-1,53
 436 204 436 204 432 212 c 1,54,-1
 508 234 l 1,55,56
 520 214 520 214 526.5 193 c 128,-1,57
 533 172 533 172 533 143 c 0,58,59
 533 115 533 115 521 87.5 c 128,-1,60
 509 60 509 60 480.5 37.5 c 128,-1,61
 452 15 452 15 402.5 1.5 c 128,-1,62
 353 -12 353 -12 278 -12 c 0,0,1
EndSplineSet
EndChar

StartChar: eighttelu
Encoding: 3182 3182 91
Width: 803
Flags: W
LayerCount: 2
Fore
SplineSet
323 -12 m 0,0,1
 242 -12 242 -12 180.5 25 c 128,-1,2
 119 62 119 62 84 128 c 128,-1,3
 49 194 49 194 49 281 c 0,4,5
 49 365 49 365 79 439 c 128,-1,6
 109 513 109 513 163 570 c 1,7,-1
 229 516 l 1,8,9
 202 487 202 487 181 454.5 c 128,-1,10
 160 422 160 422 147.5 381 c 128,-1,11
 135 340 135 340 135 287 c 0,12,13
 135 231 135 231 153.5 180.5 c 128,-1,14
 172 130 172 130 213.5 98.5 c 128,-1,15
 255 67 255 67 325 67 c 0,16,17
 392 67 392 67 435.5 95.5 c 128,-1,18
 479 124 479 124 500.5 176 c 128,-1,19
 522 228 522 228 522 296 c 0,20,21
 522 343 522 343 507.5 390.5 c 128,-1,22
 493 438 493 438 460.5 480 c 128,-1,23
 428 522 428 522 375 551 c 1,24,-1
 405 620 l 1,25,-1
 789 620 l 1,26,-1
 789 540 l 1,27,-1
 501 540 l 1,28,29
 554 500 554 500 581.5 434 c 128,-1,30
 609 368 609 368 609 293 c 0,31,32
 609 229 609 229 592 174 c 128,-1,33
 575 119 575 119 539.5 77 c 128,-1,34
 504 35 504 35 450.5 11.5 c 128,-1,35
 397 -12 397 -12 323 -12 c 0,0,1
EndSplineSet
EndChar

StartChar: ninetelu
Encoding: 3183 3183 92
Width: 698
Flags: W
LayerCount: 2
Fore
SplineSet
56 172 m 0,0,1
 56 206 56 206 66.5 232 c 128,-1,2
 77 258 77 258 97.5 278.5 c 128,-1,3
 118 299 118 299 148 315 c 1,4,-1
 146 301 l 1,5,6
 118 315 118 315 95.5 335.5 c 128,-1,7
 73 356 73 356 59.5 385 c 128,-1,8
 46 414 46 414 46 453 c 0,9,10
 46 489 46 489 61.5 519 c 128,-1,11
 77 549 77 549 100 568 c 0,12,13
 125 588 125 588 155 599.5 c 128,-1,14
 185 611 185 611 229 615.5 c 128,-1,15
 273 620 273 620 340 620 c 2,16,-1
 683 620 l 1,17,-1
 683 540 l 1,18,-1
 330 540 l 2,19,20
 264 540 264 540 234.5 536.5 c 128,-1,21
 205 533 205 533 187 525 c 0,22,23
 162 515 162 515 147.5 495.5 c 128,-1,24
 133 476 133 476 133 446 c 0,25,26
 133 418 133 418 144.5 400.5 c 128,-1,27
 156 383 156 383 176 371 c 0,28,29
 195 360 195 360 223 355 c 128,-1,30
 251 350 251 350 308 350 c 2,31,-1
 463 350 l 1,32,-1
 463 270 l 1,33,-1
 338 270 l 2,34,35
 290 270 290 270 261 268 c 128,-1,36
 232 266 232 266 214 261 c 128,-1,37
 196 256 196 256 179 246 c 256,38,39
 162 236 162 236 152 218.5 c 128,-1,40
 142 201 142 201 142 176 c 0,41,42
 142 148 142 148 153.5 130.5 c 128,-1,43
 165 113 165 113 185 101 c 0,44,45
 203 90 203 90 231.5 85 c 128,-1,46
 260 80 260 80 300 80 c 2,47,-1
 305 80 l 1,48,-1
 305 0 l 1,49,-1
 299 0 l 2,50,51
 248 0 248 0 215.5 4.5 c 128,-1,52
 183 9 183 9 160 18.5 c 128,-1,53
 137 28 137 28 117 42 c 0,54,55
 91 61 91 61 73.5 94 c 128,-1,56
 56 127 56 127 56 172 c 0,0,1
EndSplineSet
EndChar

StartChar: uni0C77
Encoding: 3191 3191 93
Width: 1044
Flags: W
LayerCount: 2
Fore
SplineSet
140 489 m 1,0,1
 131 447 131 447 127.5 407.5 c 128,-1,2
 124 368 124 368 124 324 c 0,3,4
 124 177 124 177 172 73 c 128,-1,5
 220 -31 220 -31 311 -85.5 c 128,-1,6
 402 -140 402 -140 532 -140 c 0,7,8
 655 -140 655 -140 741 -94 c 128,-1,9
 827 -48 827 -48 872 38.5 c 128,-1,10
 917 125 917 125 917 248 c 0,11,12
 917 360 917 360 880 441.5 c 128,-1,13
 843 523 843 523 774 567 c 128,-1,14
 705 611 705 611 609 611 c 0,15,16
 533 611 533 611 470 582 c 128,-1,17
 407 553 407 553 369 491.5 c 128,-1,18
 331 430 331 430 331 333 c 0,19,20
 331 225 331 225 385 166 c 128,-1,21
 439 107 439 107 532 107 c 0,22,23
 623 107 623 107 670.5 148.5 c 128,-1,24
 718 190 718 190 718 268 c 0,25,26
 718 333 718 333 688 369.5 c 128,-1,27
 658 406 658 406 601 406 c 0,28,29
 559 406 559 406 535.5 387.5 c 128,-1,30
 512 369 512 369 512 334 c 0,31,32
 512 306 512 306 526 290.5 c 128,-1,33
 540 275 540 275 565 275 c 0,34,35
 586 275 586 275 598.5 279.5 c 128,-1,36
 611 284 611 284 624 294 c 1,37,-1
 661 235 l 1,38,39
 648 223 648 223 622 213.5 c 128,-1,40
 596 204 596 204 562 204 c 0,41,42
 524 204 524 204 495 220 c 128,-1,43
 466 236 466 236 450 265.5 c 128,-1,44
 434 295 434 295 434 334 c 0,45,46
 434 370 434 370 453.5 402 c 128,-1,47
 473 434 473 434 511 454 c 128,-1,48
 549 474 549 474 604 474 c 0,49,50
 661 474 661 474 705 447.5 c 128,-1,51
 749 421 749 421 773.5 374.5 c 128,-1,52
 798 328 798 328 798 268 c 0,53,54
 798 195 798 195 765.5 143.5 c 128,-1,55
 733 92 733 92 673 65 c 128,-1,56
 613 38 613 38 532 38 c 0,57,58
 446 38 446 38 383 74 c 128,-1,59
 320 110 320 110 285.5 176.5 c 128,-1,60
 251 243 251 243 251 334 c 0,61,62
 251 438 251 438 296 516.5 c 128,-1,63
 341 595 341 595 422 638.5 c 128,-1,64
 503 682 503 682 609 682 c 0,65,66
 689 682 689 682 759.5 655 c 128,-1,67
 830 628 830 628 884 574 c 128,-1,68
 938 520 938 520 969 438.5 c 128,-1,69
 1000 357 1000 357 1000 248 c 0,70,71
 1000 92 1000 92 939 -10.5 c 128,-1,72
 878 -113 878 -113 772 -163.5 c 128,-1,73
 666 -214 666 -214 530 -214 c 0,74,75
 417 -214 417 -214 327 -178 c 128,-1,76
 237 -142 237 -142 174 -73 c 128,-1,77
 111 -4 111 -4 77.5 95 c 128,-1,78
 44 194 44 194 44 319 c 0,79,80
 44 361 44 361 48.5 404.5 c 128,-1,81
 53 448 53 448 61 493 c 1,82,-1
 140 489 l 1,0,1
EndSplineSet
EndChar

StartChar: uni0C78
Encoding: 3192 3192 94
Width: 622
Flags: W
LayerCount: 2
Fore
SplineSet
44 369 m 0,0,1
 44 448 44 448 77 507.5 c 128,-1,2
 110 567 110 567 169.5 600 c 128,-1,3
 229 633 229 633 307 633 c 0,4,5
 386 633 386 633 445.5 601 c 128,-1,6
 505 569 505 569 538 510 c 128,-1,7
 571 451 571 451 571 371 c 0,8,9
 571 296 571 296 538.5 239.5 c 128,-1,10
 506 183 506 183 447 152 c 128,-1,11
 388 121 388 121 307 121 c 0,12,13
 227 121 227 121 168 151.5 c 128,-1,14
 109 182 109 182 76.5 238 c 128,-1,15
 44 294 44 294 44 369 c 0,0,1
131 378 m 0,16,17
 131 300 131 300 175 250 c 128,-1,18
 219 200 219 200 307 200 c 0,19,20
 366 200 366 200 405 222 c 128,-1,21
 444 244 444 244 464 283.5 c 128,-1,22
 484 323 484 323 484 373 c 256,23,24
 484 423 484 423 464.5 464 c 128,-1,25
 445 505 445 505 406 529.5 c 128,-1,26
 367 554 367 554 307 554 c 256,27,28
 247 554 247 554 208 530 c 128,-1,29
 169 506 169 506 150 466 c 128,-1,30
 131 426 131 426 131 378 c 0,16,17
578 102 m 0,31,32
 578 51 578 51 556 14.5 c 128,-1,33
 534 -22 534 -22 494 -49 c 128,-1,34
 454 -76 454 -76 398 -101 c 1,35,-1
 359 -22 l 1,36,37
 405 -3 405 -3 434.5 14 c 128,-1,38
 464 31 464 31 478 50.5 c 128,-1,39
 492 70 492 70 492 95 c 0,40,41
 492 126 492 126 475 153.5 c 128,-1,42
 458 181 458 181 426 208 c 1,43,-1
 482 261 l 1,44,45
 530 225 530 225 554 185.5 c 128,-1,46
 578 146 578 146 578 102 c 0,31,32
EndSplineSet
EndChar

StartChar: uni0C79
Encoding: 3193 3193 95
Width: 273
Flags: W
LayerCount: 2
Fore
SplineSet
180 0 m 1,0,-1
 93 0 l 1,1,-1
 93 620 l 1,2,-1
 180 620 l 1,3,-1
 180 0 l 1,0,-1
EndSplineSet
EndChar

StartChar: uni0C7A
Encoding: 3194 3194 96
Width: 489
Flags: W
LayerCount: 2
Fore
SplineSet
214 216 m 0,0,1
 180 216 180 216 154 226 c 128,-1,2
 128 236 128 236 110 254 c 0,3,4
 96 269 96 269 86 288.5 c 128,-1,5
 76 308 76 308 71 338.5 c 128,-1,6
 66 369 66 369 66 415 c 2,7,-1
 66 620 l 1,8,-1
 152 620 l 1,9,-1
 152 417 l 2,10,11
 152 372 152 372 156 353.5 c 128,-1,12
 160 335 160 335 167 323 c 0,13,14
 176 308 176 308 191.5 301 c 128,-1,15
 207 294 207 294 228 294 c 0,16,17
 251 294 251 294 267 300.5 c 128,-1,18
 283 307 283 307 293 320 c 0,19,20
 301 331 301 331 305 349 c 128,-1,21
 309 367 309 367 309 407 c 2,22,-1
 309 620 l 1,23,-1
 379 620 l 1,24,-1
 379 388 l 1,25,-1
 336 287 l 2,26,27
 326 272 326 272 313.5 259 c 128,-1,28
 301 246 301 246 286.5 236.5 c 128,-1,29
 272 227 272 227 254 221.5 c 128,-1,30
 236 216 236 216 214 216 c 0,0,1
396 0 m 1,31,-1
 309 0 l 1,32,-1
 309 620 l 1,33,-1
 396 620 l 1,34,-1
 396 0 l 1,31,-1
EndSplineSet
EndChar

StartChar: uni0C7B
Encoding: 3195 3195 97
Width: 693
Flags: W
LayerCount: 2
Fore
SplineSet
431 216 m 0,0,1
 398 216 398 216 373.5 226 c 128,-1,2
 349 236 349 236 332 254 c 0,3,4
 318 269 318 269 308.5 288.5 c 128,-1,5
 299 308 299 308 294.5 338.5 c 128,-1,6
 290 369 290 369 290 415 c 2,7,-1
 290 620 l 1,8,-1
 376 620 l 1,9,-1
 376 408 l 2,10,11
 376 366 376 366 379 348.5 c 128,-1,12
 382 331 382 331 389 320 c 0,13,14
 397 307 397 307 410 300.5 c 128,-1,15
 423 294 423 294 442 294 c 0,16,17
 483 294 483 294 499 320 c 0,18,19
 507 331 507 331 510 349 c 128,-1,20
 513 367 513 367 513 407 c 2,21,-1
 513 620 l 1,22,-1
 588 620 l 1,23,-1
 588 388 l 1,24,-1
 547 287 l 2,25,26
 537 272 537 272 525 259 c 128,-1,27
 513 246 513 246 499.5 236.5 c 128,-1,28
 486 227 486 227 469 221.5 c 128,-1,29
 452 216 452 216 431 216 c 0,0,1
601 0 m 1,30,-1
 513 0 l 1,31,-1
 513 620 l 1,32,-1
 601 620 l 1,33,-1
 601 0 l 1,30,-1
208 216 m 0,34,35
 174 216 174 216 149.5 226 c 128,-1,36
 125 236 125 236 108 254 c 0,37,38
 95 269 95 269 85.5 288.5 c 128,-1,39
 76 308 76 308 71 338.5 c 128,-1,40
 66 369 66 369 66 415 c 2,41,-1
 66 620 l 1,42,-1
 152 620 l 1,43,-1
 152 408 l 2,44,45
 152 366 152 366 155.5 348.5 c 128,-1,46
 159 331 159 331 166 320 c 0,47,48
 174 307 174 307 187 300.5 c 128,-1,49
 200 294 200 294 219 294 c 0,50,51
 259 294 259 294 275 320 c 0,52,53
 283 331 283 331 286.5 349 c 128,-1,54
 290 367 290 367 290 407 c 2,55,-1
 290 620 l 1,56,-1
 365 620 l 1,57,-1
 365 388 l 1,58,-1
 330 286 l 1,59,60
 319 268 319 268 302 252 c 128,-1,61
 285 236 285 236 262 226 c 128,-1,62
 239 216 239 216 208 216 c 0,34,35
EndSplineSet
EndChar

StartChar: uni0C7C
Encoding: 3196 3196 98
Width: 610
Flags: W
LayerCount: 2
Fore
SplineSet
32 275 m 1,0,-1
 32 354 l 1,1,-1
 578 354 l 1,2,-1
 578 275 l 1,3,-1
 32 275 l 1,0,-1
EndSplineSet
EndChar

StartChar: uni0C7D
Encoding: 3197 3197 99
Width: 598
Flags: W
LayerCount: 2
Fore
SplineSet
46 128 m 0,0,1
 46 180 46 180 80 211 c 128,-1,2
 114 242 114 242 168.5 261 c 128,-1,3
 223 280 223 280 285 294 c 0,4,5
 335 306 335 306 365.5 315 c 128,-1,6
 396 324 396 324 410.5 338 c 128,-1,7
 425 352 425 352 425 376 c 0,8,9
 425 397 425 397 412.5 407 c 128,-1,10
 400 417 400 417 379 420.5 c 128,-1,11
 358 424 358 424 332 424 c 2,12,-1
 47 424 l 1,13,-1
 47 500 l 1,14,-1
 324 500 l 2,15,16
 368 500 368 500 395 496 c 128,-1,17
 422 492 422 492 439.5 485.5 c 128,-1,18
 457 479 457 479 470 469 c 0,19,20
 492 453 492 453 502 430 c 128,-1,21
 512 407 512 407 512 378 c 0,22,23
 512 326 512 326 480.5 295.5 c 128,-1,24
 449 265 449 265 399 248 c 128,-1,25
 349 231 349 231 292 218 c 0,26,27
 242 207 242 207 206.5 196 c 128,-1,28
 171 185 171 185 152 169.5 c 128,-1,29
 133 154 133 154 133 130 c 0,30,31
 133 96 133 96 160.5 87.5 c 128,-1,32
 188 79 188 79 239 79 c 2,33,-1
 583 79 l 1,34,-1
 583 0 l 1,35,-1
 248 0 l 2,36,37
 202 0 202 0 172 4 c 128,-1,38
 142 8 142 8 123 16 c 128,-1,39
 104 24 104 24 90 34 c 0,40,41
 67 52 67 52 56.5 76.5 c 128,-1,42
 46 101 46 101 46 128 c 0,0,1
EndSplineSet
EndChar

StartChar: uni0C7E
Encoding: 3198 3198 100
Width: 598
Flags: W
LayerCount: 2
Fore
SplineSet
46 90 m 0,0,1
 46 124 46 124 64.5 145.5 c 128,-1,2
 83 167 83 167 132 183 c 128,-1,3
 181 199 181 199 270 214 c 0,4,5
 324 223 324 223 355 229.5 c 128,-1,6
 386 236 386 236 401 241.5 c 128,-1,7
 416 247 416 247 420.5 251.5 c 128,-1,8
 425 256 425 256 425 262 c 0,9,10
 425 275 425 275 412 277.5 c 128,-1,11
 399 280 399 280 385 280 c 2,12,-1
 203 280 l 2,13,14
 156 280 156 280 127.5 284.5 c 128,-1,15
 99 289 99 289 81 302 c 0,16,17
 65 313 65 313 55.5 329 c 128,-1,18
 46 345 46 345 46 368 c 0,19,20
 46 393 46 393 56 411 c 128,-1,21
 66 429 66 429 91 443 c 128,-1,22
 116 457 116 457 159.5 468.5 c 128,-1,23
 203 480 203 480 270 492 c 0,24,25
 324 501 324 501 355 507.5 c 128,-1,26
 386 514 386 514 401 519 c 128,-1,27
 416 524 416 524 420.5 529 c 128,-1,28
 425 534 425 534 425 540 c 0,29,30
 425 553 425 553 412 555.5 c 128,-1,31
 399 558 399 558 385 558 c 2,32,-1
 47 558 l 1,33,-1
 47 633 l 1,34,-1
 351 633 l 2,35,36
 403 633 403 633 434 627.5 c 128,-1,37
 465 622 465 622 486 605 c 0,38,39
 498 596 498 596 505 581.5 c 128,-1,40
 512 567 512 567 512 546 c 0,41,42
 512 524 512 524 503.5 506.5 c 128,-1,43
 495 489 495 489 473 475.5 c 128,-1,44
 451 462 451 462 410.5 450 c 128,-1,45
 370 438 370 438 305 427 c 0,46,47
 247 417 247 417 212.5 409.5 c 128,-1,48
 178 402 178 402 161 396.5 c 128,-1,49
 144 391 144 391 138.5 385.5 c 128,-1,50
 133 380 133 380 133 374 c 0,51,52
 133 365 133 365 142.5 360.5 c 128,-1,53
 152 356 152 356 169 356 c 2,54,-1
 351 356 l 2,55,56
 403 356 403 356 434 350 c 128,-1,57
 465 344 465 344 484 329 c 0,58,59
 497 319 497 319 504.5 303.5 c 128,-1,60
 512 288 512 288 512 268 c 0,61,62
 512 246 512 246 503.5 228.5 c 128,-1,63
 495 211 495 211 473 197 c 128,-1,64
 451 183 451 183 410.5 171 c 128,-1,65
 370 159 370 159 305 148 c 0,66,67
 247 138 247 138 212.5 131 c 128,-1,68
 178 124 178 124 161 118.5 c 128,-1,69
 144 113 144 113 138.5 107.5 c 128,-1,70
 133 102 133 102 133 96 c 0,71,72
 133 86 133 86 142.5 82.5 c 128,-1,73
 152 79 152 79 169 79 c 2,74,-1
 583 79 l 1,75,-1
 583 0 l 1,76,-1
 203 0 l 2,77,78
 156 0 156 0 127.5 5.5 c 128,-1,79
 99 11 99 11 81 23 c 0,80,81
 65 34 65 34 55.5 50.5 c 128,-1,82
 46 67 46 67 46 90 c 0,0,1
EndSplineSet
EndChar

StartChar: uni0C7F
Encoding: 3199 3199 101
Width: 742
Flags: W
LayerCount: 2
Fore
SplineSet
328 -12 m 0,0,1
 235 -12 235 -12 172.5 21.5 c 128,-1,2
 110 55 110 55 78 115.5 c 128,-1,3
 46 176 46 176 46 257 c 0,4,5
 46 334 46 334 73 388.5 c 128,-1,6
 100 443 100 443 145.5 471.5 c 128,-1,7
 191 500 191 500 248 500 c 0,8,9
 288 500 288 500 318 484.5 c 128,-1,10
 348 469 348 469 364.5 440.5 c 128,-1,11
 381 412 381 412 381 373 c 0,12,13
 381 332 381 332 363.5 300.5 c 128,-1,14
 346 269 346 269 311 251 c 128,-1,15
 276 233 276 233 222 233 c 0,16,17
 186 233 186 233 158.5 244 c 128,-1,18
 131 255 131 255 111.5 271 c 128,-1,19
 92 287 92 287 79 303 c 1,20,-1
 102 366 l 1,21,22
 110 355 110 355 125 340.5 c 128,-1,23
 140 326 140 326 162.5 315.5 c 128,-1,24
 185 305 185 305 217 305 c 0,25,26
 258 305 258 305 278.5 322 c 128,-1,27
 299 339 299 339 299 369 c 0,28,29
 299 398 299 398 283 412.5 c 128,-1,30
 267 427 267 427 242 427 c 0,31,32
 207 427 207 427 181 404.5 c 128,-1,33
 155 382 155 382 141.5 343.5 c 128,-1,34
 128 305 128 305 128 256 c 2,35,-1
 128 250 l 2,36,37
 128 167 128 167 180.5 117 c 128,-1,38
 233 67 233 67 333 67 c 0,39,40
 422 67 422 67 479 100 c 128,-1,41
 536 133 536 133 572 194 c 128,-1,42
 608 255 608 255 633 338 c 1,43,-1
 717 308 l 1,44,45
 695 239 695 239 664 181 c 128,-1,46
 633 123 633 123 587.5 79.5 c 128,-1,47
 542 36 542 36 478.5 12 c 128,-1,48
 415 -12 415 -12 328 -12 c 0,0,1
EndSplineSet
EndChar

StartChar: nakaarapollutelu
Encoding: 3165 3165 102
Width: 611
Flags: W
LayerCount: 2
Fore
SplineSet
167 -1 m 2,0,1
 108 -1 108 -1 78 27.5 c 128,-1,2
 48 56 48 56 48 100 c 0,3,4
 48 142 48 142 71 164.5 c 128,-1,5
 94 187 94 187 137 193 c 1,6,-1
 137 166 l 1,7,8
 95 173 95 173 70 195 c 128,-1,9
 45 217 45 217 45 254 c 0,10,11
 45 288 45 288 67 309.5 c 128,-1,12
 89 331 89 331 137 336 c 1,13,-1
 137 307 l 1,14,15
 92 314 92 314 66 340 c 128,-1,16
 40 366 40 366 40 404 c 0,17,18
 40 448 40 448 70.5 474 c 128,-1,19
 101 500 101 500 162 500 c 2,20,-1
 596 500 l 1,21,-1
 596 430 l 1,22,-1
 167 430 l 2,23,24
 142 430 142 430 127.5 421.5 c 128,-1,25
 113 413 113 413 113 393 c 0,26,27
 113 374 113 374 127 365 c 128,-1,28
 141 356 141 356 167 356 c 2,29,-1
 400 356 l 1,30,-1
 400 289 l 1,31,-1
 170 289 l 2,32,33
 147 289 147 289 132.5 279.5 c 128,-1,34
 118 270 118 270 118 251 c 0,35,36
 118 233 118 233 132 223.5 c 128,-1,37
 146 214 146 214 170 214 c 2,38,-1
 400 214 l 1,39,-1
 400 147 l 1,40,-1
 174 147 l 2,41,42
 149 147 149 147 135 136.5 c 128,-1,43
 121 126 121 126 121 108 c 0,44,45
 121 89 121 89 135 78 c 128,-1,46
 149 67 149 67 174 67 c 2,47,-1
 400 67 l 1,48,-1
 400 -1 l 1,49,-1
 167 -1 l 2,0,1
EndSplineSet
EndChar

StartChar: nuktatelu
Encoding: 3132 3132 103
Width: 0
GlyphClass: 4
Flags: W
AnchorPoint: "Anchor-9" 0 -24 mark 0
AnchorPoint: "Anchor-7" 0 -24 mark 0
AnchorPoint: "Anchor-5" 0 -24 mark 0
AnchorPoint: "Anchor-4" 0 -24 mark 0
LayerCount: 2
Fore
SplineSet
-120 -282 m 0,0,1
 -120 -232 -120 -232 -87 -198.5 c 128,-1,2
 -54 -165 -54 -165 0 -165 c 256,3,4
 54 -165 54 -165 87 -198.5 c 128,-1,5
 120 -232 120 -232 120 -282 c 0,6,7
 120 -331 120 -331 88 -364 c 128,-1,8
 56 -397 56 -397 0 -397 c 0,9,10
 -55 -397 -55 -397 -87.5 -364 c 128,-1,11
 -120 -331 -120 -331 -120 -282 c 0,0,1
-54 -281 m 0,12,13
 -54 -303 -54 -303 -40.5 -318.5 c 128,-1,14
 -27 -334 -27 -334 0 -334 c 256,15,16
 27 -334 27 -334 40.5 -318.5 c 128,-1,17
 54 -303 54 -303 54 -281 c 0,18,19
 54 -258 54 -258 40 -243 c 128,-1,20
 26 -228 26 -228 0 -228 c 0,21,22
 -25 -228 -25 -228 -39.5 -243 c 128,-1,23
 -54 -258 -54 -258 -54 -281 c 0,12,13
EndSplineSet
EndChar

StartChar: khahalanttelu
Encoding: 65539 -1 106
Width: 755
GlyphClass: 2
Flags: W
AnchorPoint: "Anchor-4" 377 -24 basechar 0
AnchorPoint: "Anchor-0" 377 825 basechar 0
LayerCount: 2
Fore
SplineSet
518 -12 m 0,0,1
 459 -12 459 -12 412.5 9.5 c 128,-1,2
 366 31 366 31 310 71 c 2,3,-1
 292 84 l 2,4,5
 258 110 258 110 228.5 124 c 128,-1,6
 199 138 199 138 164 138 c 0,7,8
 132 138 132 138 118.5 127 c 128,-1,9
 105 116 105 116 105 102 c 0,10,11
 105 84 105 84 123.5 73.5 c 128,-1,12
 142 63 142 63 176 63 c 0,13,14
 227 63 227 63 264 83.5 c 128,-1,15
 301 104 301 104 320.5 144 c 128,-1,16
 340 184 340 184 340 244 c 0,17,18
 340 268 340 268 337.5 290.5 c 128,-1,19
 335 313 335 313 328.5 333.5 c 128,-1,20
 322 354 322 354 311.5 371.5 c 128,-1,21
 301 389 301 389 285 404 c 0,22,23
 282 407 282 407 276.5 406.5 c 128,-1,24
 271 406 271 406 268 408 c 0,25,26
 252 419 252 419 232 425.5 c 128,-1,27
 212 432 212 432 188 432 c 0,28,29
 151 432 151 432 131.5 414 c 128,-1,30
 112 396 112 396 112 369 c 256,31,32
 112 342 112 342 127.5 325 c 128,-1,33
 143 308 143 308 174 308 c 0,34,35
 204 308 204 308 223.5 322.5 c 128,-1,36
 243 337 243 337 243 371 c 0,37,38
 243 395 243 395 233.5 415.5 c 128,-1,39
 224 436 224 436 209 449 c 1,40,-1
 273 460 l 1,41,42
 287 439 287 439 296.5 414 c 128,-1,43
 306 389 306 389 306 361 c 0,44,45
 306 324 306 324 289.5 296.5 c 128,-1,46
 273 269 273 269 243 254 c 128,-1,47
 213 239 213 239 172 239 c 0,48,49
 136 239 136 239 105 254 c 128,-1,50
 74 269 74 269 55 298 c 128,-1,51
 36 327 36 327 36 368 c 0,52,53
 36 423 36 423 77.5 461.5 c 128,-1,54
 119 500 119 500 191 500 c 0,55,56
 256 500 256 500 300 476 c 128,-1,57
 344 452 344 452 370.5 414 c 128,-1,58
 397 376 397 376 409 332 c 128,-1,59
 421 288 421 288 421 249 c 0,60,61
 421 192 421 192 402.5 144.5 c 128,-1,62
 384 97 384 97 350.5 62 c 128,-1,63
 317 27 317 27 272.5 7.5 c 128,-1,64
 228 -12 228 -12 175 -12 c 0,65,66
 120 -12 120 -12 88.5 4.5 c 128,-1,67
 57 21 57 21 43 47 c 128,-1,68
 29 73 29 73 29 101 c 0,69,70
 29 147 29 147 64.5 178 c 128,-1,71
 100 209 100 209 165 209 c 0,72,73
 212 209 212 209 255.5 189.5 c 128,-1,74
 299 170 299 170 350 133 c 1,75,-1
 368 123 l 2,76,77
 393 105 393 105 416 92.5 c 128,-1,78
 439 80 439 80 464 73.5 c 128,-1,79
 489 67 489 67 520 67 c 0,80,81
 579 67 579 67 608 99 c 128,-1,82
 637 131 637 131 637 192 c 0,83,84
 637 252 637 252 615 295.5 c 128,-1,85
 593 339 593 339 557.5 371 c 128,-1,86
 522 403 522 403 481 426 c 1,87,-1
 483 500 l 1,88,-1
 506 500 l 1,89,90
 573 469 573 469 621 423.5 c 128,-1,91
 669 378 669 378 694.5 321 c 128,-1,92
 720 264 720 264 720 198 c 256,93,94
 720 132 720 132 695 85 c 128,-1,95
 670 38 670 38 624.5 13 c 128,-1,96
 579 -12 579 -12 518 -12 c 0,0,1
298 -125 m 1,97,-1
 305 16 l 1,98,-1
 380 16 l 1,99,-1
 388 -125 l 1,100,-1
 298 -125 l 1,97,-1
342 540 m 0,101,102
 342 572 342 572 358 595 c 128,-1,103
 374 618 374 618 405 637 c 1,104,-1
 404 619 l 1,105,106
 370 637 370 637 352 663.5 c 128,-1,107
 334 690 334 690 334 724 c 0,108,109
 334 751 334 751 344 771 c 128,-1,110
 354 791 354 791 372 805 c 0,111,112
 386 816 386 816 405 823.5 c 128,-1,113
 424 831 424 831 453.5 834.5 c 128,-1,114
 483 838 483 838 529 838 c 2,115,-1
 817 838 l 1,116,-1
 817 763 l 1,117,-1
 513 763 l 2,118,119
 479 763 479 763 464 761 c 128,-1,120
 449 759 449 759 440 754 c 0,121,122
 429 749 429 749 423 739.5 c 128,-1,123
 417 730 417 730 417 717 c 256,124,125
 417 704 417 704 422 694 c 128,-1,126
 427 684 427 684 438 678 c 0,127,128
 448 673 448 673 464.5 670.5 c 128,-1,129
 481 668 481 668 513 668 c 2,130,-1
 650 668 l 1,131,-1
 650 593 l 1,132,-1
 508 593 l 2,133,134
 480 593 480 593 464.5 589.5 c 128,-1,135
 449 586 449 586 441 580 c 0,136,137
 425 568 425 568 425 546 c 0,138,139
 425 534 425 534 429.5 525 c 128,-1,140
 434 516 434 516 441 511 c 0,141,142
 450 504 450 504 464.5 502 c 128,-1,143
 479 500 479 500 502 500 c 2,144,-1
 503 500 l 1,145,-1
 538 425 l 1,146,-1
 499 425 l 2,147,148
 452 425 452 425 416.5 437 c 128,-1,149
 381 449 381 449 361.5 474.5 c 128,-1,150
 342 500 342 500 342 540 c 0,101,102
EndSplineSet
Ligature2: "'haln' Halant Forms lookup 88 subtable" khatelu viramatelu
EndChar

StartChar: cahalanttelu
Encoding: 65543 -1 110
Width: 760
GlyphClass: 2
Flags: W
AnchorPoint: "Anchor-4" 380 -24 basechar 0
AnchorPoint: "Anchor-0" 380 825 basechar 0
LayerCount: 2
Fore
SplineSet
543 -12 m 0,0,1
 502 -12 502 -12 473 -2 c 128,-1,2
 444 8 444 8 421 30.5 c 128,-1,3
 398 53 398 53 375 89 c 1,4,-1
 395 91 l 1,5,6
 373 50 373 50 347.5 27.5 c 128,-1,7
 322 5 322 5 292.5 -3.5 c 128,-1,8
 263 -12 263 -12 228 -12 c 0,9,10
 180 -12 180 -12 143.5 7.5 c 128,-1,11
 107 27 107 27 86.5 62.5 c 128,-1,12
 66 98 66 98 66 144 c 0,13,14
 66 178 66 178 86.5 215 c 128,-1,15
 107 252 107 252 151 274 c 1,16,-1
 139 258 l 1,17,-1
 25 258 l 1,18,-1
 25 332 l 1,19,-1
 259 332 l 1,20,-1
 259 261 l 1,21,22
 199 248 199 248 173 218 c 128,-1,23
 147 188 147 188 147 149 c 0,24,25
 147 112 147 112 170 89.5 c 128,-1,26
 193 67 193 67 233 67 c 0,27,28
 283 67 283 67 312.5 99.5 c 128,-1,29
 342 132 342 132 346 185 c 1,30,-1
 423 185 l 1,31,32
 426 144 426 144 442.5 118 c 128,-1,33
 459 92 459 92 484 79.5 c 128,-1,34
 509 67 509 67 535 67 c 0,35,36
 563 67 563 67 587.5 77 c 128,-1,37
 612 87 612 87 627 114 c 128,-1,38
 642 141 642 141 642 192 c 0,39,40
 642 262 642 262 610 310.5 c 128,-1,41
 578 359 578 359 529 387.5 c 128,-1,42
 480 416 480 416 429 426 c 1,43,-1
 462 500 l 1,44,45
 548 478 548 478 606.5 433.5 c 128,-1,46
 665 389 665 389 695 328 c 128,-1,47
 725 267 725 267 725 194 c 0,48,49
 725 124 725 124 701 78.5 c 128,-1,50
 677 33 677 33 636 10.5 c 128,-1,51
 595 -12 595 -12 543 -12 c 0,0,1
261 540 m 0,52,53
 261 572 261 572 277 595 c 128,-1,54
 293 618 293 618 324 637 c 1,55,-1
 323 619 l 1,56,57
 289 637 289 637 271 663.5 c 128,-1,58
 253 690 253 690 253 724 c 0,59,60
 253 751 253 751 263 771 c 128,-1,61
 273 791 273 791 291 805 c 0,62,63
 305 816 305 816 324 823.5 c 128,-1,64
 343 831 343 831 372.5 834.5 c 128,-1,65
 402 838 402 838 448 838 c 2,66,-1
 735 838 l 1,67,-1
 735 763 l 1,68,-1
 432 763 l 2,69,70
 398 763 398 763 383 761 c 128,-1,71
 368 759 368 759 359 754 c 0,72,73
 348 749 348 749 342 739.5 c 128,-1,74
 336 730 336 730 336 717 c 256,75,76
 336 704 336 704 341 694 c 128,-1,77
 346 684 346 684 357 678 c 0,78,79
 367 673 367 673 383.5 670.5 c 128,-1,80
 400 668 400 668 432 668 c 2,81,-1
 568 668 l 1,82,-1
 568 593 l 1,83,-1
 427 593 l 2,84,85
 399 593 399 593 383.5 589.5 c 128,-1,86
 368 586 368 586 360 580 c 0,87,88
 344 568 344 568 344 546 c 0,89,90
 344 534 344 534 348.5 525 c 128,-1,91
 353 516 353 516 360 511 c 0,92,93
 369 504 369 504 383.5 502 c 128,-1,94
 398 500 398 500 420 500 c 2,95,-1
 462 500 l 1,96,-1
 457 425 l 1,97,-1
 418 425 l 2,98,99
 371 425 371 425 335.5 437 c 128,-1,100
 300 449 300 449 280.5 474.5 c 128,-1,101
 261 500 261 500 261 540 c 0,52,53
EndSplineSet
Ligature2: "'haln' Halant Forms lookup 88 subtable" catelu viramatelu
EndChar

StartChar: chahalanttelu
Encoding: 65544 -1 111
Width: 760
GlyphClass: 2
Flags: W
AnchorPoint: "Anchor-4" 380 -24 basechar 0
AnchorPoint: "Anchor-0" 380 825 basechar 0
LayerCount: 2
Fore
SplineSet
543 -12 m 0,0,1
 502 -12 502 -12 473 -2 c 128,-1,2
 444 8 444 8 421 30.5 c 128,-1,3
 398 53 398 53 375 89 c 1,4,-1
 395 91 l 1,5,6
 373 50 373 50 347.5 27.5 c 128,-1,7
 322 5 322 5 292.5 -3.5 c 128,-1,8
 263 -12 263 -12 228 -12 c 0,9,10
 180 -12 180 -12 143.5 7.5 c 128,-1,11
 107 27 107 27 86.5 62.5 c 128,-1,12
 66 98 66 98 66 144 c 0,13,14
 66 178 66 178 86.5 215 c 128,-1,15
 107 252 107 252 151 274 c 1,16,-1
 139 258 l 1,17,-1
 25 258 l 1,18,-1
 25 332 l 1,19,-1
 259 332 l 1,20,-1
 259 261 l 1,21,22
 199 248 199 248 173 218 c 128,-1,23
 147 188 147 188 147 149 c 0,24,25
 147 112 147 112 170 89.5 c 128,-1,26
 193 67 193 67 233 67 c 0,27,28
 283 67 283 67 312.5 99.5 c 128,-1,29
 342 132 342 132 346 185 c 1,30,-1
 423 185 l 1,31,32
 426 144 426 144 442.5 118 c 128,-1,33
 459 92 459 92 484 79.5 c 128,-1,34
 509 67 509 67 535 67 c 0,35,36
 563 67 563 67 587.5 77 c 128,-1,37
 612 87 612 87 627 114 c 128,-1,38
 642 141 642 141 642 192 c 0,39,40
 642 262 642 262 610 310.5 c 128,-1,41
 578 359 578 359 529 387.5 c 128,-1,42
 480 416 480 416 429 426 c 1,43,-1
 462 500 l 1,44,45
 548 478 548 478 606.5 433.5 c 128,-1,46
 665 389 665 389 695 328 c 128,-1,47
 725 267 725 267 725 194 c 0,48,49
 725 124 725 124 701 78.5 c 128,-1,50
 677 33 677 33 636 10.5 c 128,-1,51
 595 -12 595 -12 543 -12 c 0,0,1
340 -125 m 1,52,-1
 347 16 l 1,53,-1
 422 16 l 1,54,-1
 430 -125 l 1,55,-1
 340 -125 l 1,52,-1
261 540 m 0,56,57
 261 572 261 572 277 595 c 128,-1,58
 293 618 293 618 324 637 c 1,59,-1
 323 619 l 1,60,61
 289 637 289 637 271 663.5 c 128,-1,62
 253 690 253 690 253 724 c 0,63,64
 253 751 253 751 263 771 c 128,-1,65
 273 791 273 791 291 805 c 0,66,67
 305 816 305 816 324 823.5 c 128,-1,68
 343 831 343 831 372.5 834.5 c 128,-1,69
 402 838 402 838 448 838 c 2,70,-1
 735 838 l 1,71,-1
 735 763 l 1,72,-1
 432 763 l 2,73,74
 398 763 398 763 383 761 c 128,-1,75
 368 759 368 759 359 754 c 0,76,77
 348 749 348 749 342 739.5 c 128,-1,78
 336 730 336 730 336 717 c 256,79,80
 336 704 336 704 341 694 c 128,-1,81
 346 684 346 684 357 678 c 0,82,83
 367 673 367 673 383.5 670.5 c 128,-1,84
 400 668 400 668 432 668 c 2,85,-1
 568 668 l 1,86,-1
 568 593 l 1,87,-1
 427 593 l 2,88,89
 399 593 399 593 383.5 589.5 c 128,-1,90
 368 586 368 586 360 580 c 0,91,92
 344 568 344 568 344 546 c 0,93,94
 344 534 344 534 348.5 525 c 128,-1,95
 353 516 353 516 360 511 c 0,96,97
 369 504 369 504 383.5 502 c 128,-1,98
 398 500 398 500 420 500 c 2,99,-1
 462 500 l 1,100,-1
 457 425 l 1,101,-1
 418 425 l 2,102,103
 371 425 371 425 335.5 437 c 128,-1,104
 300 449 300 449 280.5 474.5 c 128,-1,105
 261 500 261 500 261 540 c 0,56,57
EndSplineSet
Ligature2: "'haln' Halant Forms lookup 88 subtable" chatelu viramatelu
EndChar

StartChar: jahalanttelu
Encoding: 65545 -1 112
Width: 731
GlyphClass: 2
Flags: W
AnchorPoint: "Anchor-4" 365 -24 basechar 0
AnchorPoint: "Anchor-0" 365 825 basechar 0
LayerCount: 2
Fore
SplineSet
530 -12 m 0,0,1
 492 -12 492 -12 462.5 -1.5 c 128,-1,2
 433 9 433 9 409.5 31 c 128,-1,3
 386 53 386 53 366 89 c 1,4,-1
 386 90 l 1,5,6
 360 49 360 49 333 27 c 128,-1,7
 306 5 306 5 275 -3.5 c 128,-1,8
 244 -12 244 -12 205 -12 c 0,9,10
 150 -12 150 -12 113.5 7.5 c 128,-1,11
 77 27 77 27 59 59.5 c 128,-1,12
 41 92 41 92 41 130 c 0,13,14
 41 171 41 171 57.5 200 c 128,-1,15
 74 229 74 229 107 250.5 c 128,-1,16
 140 272 140 272 189 289 c 0,17,18
 230 304 230 304 254 321 c 128,-1,19
 278 338 278 338 278 371 c 0,20,21
 278 387 278 387 271 399.5 c 128,-1,22
 264 412 264 412 247.5 419.5 c 128,-1,23
 231 427 231 427 203 427 c 0,24,25
 160 427 160 427 139 410.5 c 128,-1,26
 118 394 118 394 118 365 c 0,27,28
 118 352 118 352 121.5 341 c 128,-1,29
 125 330 125 330 128 323 c 1,30,-1
 53 302 l 1,31,32
 45 317 45 317 40.5 335.5 c 128,-1,33
 36 354 36 354 36 375 c 0,34,35
 36 407 36 407 53 435.5 c 128,-1,36
 70 464 70 464 107 482 c 128,-1,37
 144 500 144 500 203 500 c 0,38,39
 263 500 263 500 297 480 c 128,-1,40
 331 460 331 460 345.5 430 c 128,-1,41
 360 400 360 400 360 370 c 0,42,43
 360 332 360 332 345 305.5 c 128,-1,44
 330 279 330 279 300.5 260 c 128,-1,45
 271 241 271 241 227 225 c 0,46,47
 174 205 174 205 148.5 184.5 c 128,-1,48
 123 164 123 164 123 131 c 0,49,50
 123 102 123 102 143.5 84.5 c 128,-1,51
 164 67 164 67 207 67 c 0,52,53
 249 67 249 67 276.5 81.5 c 128,-1,54
 304 96 304 96 318.5 123 c 128,-1,55
 333 150 333 150 336 185 c 1,56,-1
 414 185 l 1,57,58
 418 124 418 124 450 95.5 c 128,-1,59
 482 67 482 67 527 67 c 0,60,61
 574 67 574 67 596 87 c 128,-1,62
 618 107 618 107 618 142 c 0,63,64
 618 165 618 165 611 184 c 128,-1,65
 604 203 604 203 593 221 c 1,66,-1
 667 252 l 1,67,68
 682 230 682 230 691.5 198.5 c 128,-1,69
 701 167 701 167 701 135 c 0,70,71
 701 89 701 89 681 56 c 128,-1,72
 661 23 661 23 623 5.5 c 128,-1,73
 585 -12 585 -12 530 -12 c 0,0,1
673 377 m 0,74,75
 673 324 673 324 633.5 288 c 128,-1,76
 594 252 594 252 512 252 c 0,77,78
 458 252 458 252 416 267 c 128,-1,79
 374 282 374 282 345 306.5 c 128,-1,80
 316 331 316 331 299 357 c 1,81,-1
 335 414 l 1,82,83
 364 370 364 370 415 348.5 c 128,-1,84
 466 327 466 327 514 327 c 0,85,86
 542 327 542 327 559 333 c 128,-1,87
 576 339 576 339 584 350 c 128,-1,88
 592 361 592 361 592 376 c 0,89,90
 592 405 592 405 570.5 415 c 128,-1,91
 549 425 549 425 517 425 c 2,92,-1
 500 425 l 2,93,94
 458 425 458 425 427 432.5 c 128,-1,95
 396 440 396 440 375 456 c 0,96,97
 358 470 358 470 347.5 490.5 c 128,-1,98
 337 511 337 511 337 540 c 0,99,100
 337 572 337 572 353 595 c 128,-1,101
 369 618 369 618 400 637 c 1,102,-1
 399 619 l 1,103,104
 365 637 365 637 347 663.5 c 128,-1,105
 329 690 329 690 329 724 c 0,106,107
 329 751 329 751 339 771 c 128,-1,108
 349 791 349 791 367 805 c 0,109,110
 381 816 381 816 400 823.5 c 128,-1,111
 419 831 419 831 448.5 834.5 c 128,-1,112
 478 838 478 838 524 838 c 2,113,-1
 811 838 l 1,114,-1
 811 763 l 1,115,-1
 508 763 l 2,116,117
 474 763 474 763 459 761 c 128,-1,118
 444 759 444 759 435 754 c 0,119,120
 424 749 424 749 418 739.5 c 128,-1,121
 412 730 412 730 412 717 c 256,122,123
 412 704 412 704 417 694 c 128,-1,124
 422 684 422 684 433 678 c 0,125,126
 443 673 443 673 459.5 670.5 c 128,-1,127
 476 668 476 668 507 668 c 2,128,-1
 644 668 l 1,129,-1
 644 593 l 1,130,-1
 503 593 l 2,131,132
 475 593 475 593 459.5 589.5 c 128,-1,133
 444 586 444 586 436 580 c 0,134,135
 420 568 420 568 420 546 c 0,136,137
 420 534 420 534 424.5 525 c 128,-1,138
 429 516 429 516 436 511 c 0,139,140
 445 504 445 504 459.5 502 c 128,-1,141
 474 500 474 500 498 500 c 2,142,-1
 511 500 l 2,143,144
 554 500 554 500 581 493.5 c 128,-1,145
 608 487 608 487 628 473 c 256,146,147
 648 459 648 459 660.5 435.5 c 128,-1,148
 673 412 673 412 673 377 c 0,74,75
EndSplineSet
Ligature2: "'haln' Halant Forms lookup 88 subtable" jatelu viramatelu
EndChar

StartChar: ttahalanttelu
Encoding: 65548 -1 115
Width: 772
GlyphClass: 2
Flags: W
AnchorPoint: "Anchor-4" 386 -24 basechar 0
AnchorPoint: "Anchor-0" 386 825 basechar 0
LayerCount: 2
Fore
SplineSet
555 -12 m 0,0,1
 518 -12 518 -12 488 -2.5 c 128,-1,2
 458 7 458 7 433.5 29 c 128,-1,3
 409 51 409 51 387 90 c 1,4,-1
 408 91 l 1,5,6
 385 49 385 49 358 26.5 c 128,-1,7
 331 4 331 4 300.5 -4 c 128,-1,8
 270 -12 270 -12 236 -12 c 0,9,10
 188 -12 188 -12 151.5 5.5 c 128,-1,11
 115 23 115 23 90 55.5 c 128,-1,12
 65 88 65 88 52 133 c 128,-1,13
 39 178 39 178 39 232 c 0,14,15
 39 301 39 301 56.5 352 c 128,-1,16
 74 403 74 403 104 435.5 c 128,-1,17
 134 468 134 468 170.5 484 c 128,-1,18
 207 500 207 500 245 500 c 0,19,20
 288 500 288 500 318.5 484.5 c 128,-1,21
 349 469 349 469 365.5 440.5 c 128,-1,22
 382 412 382 412 382 373 c 0,23,24
 382 333 382 333 365.5 301.5 c 128,-1,25
 349 270 349 270 315 252.5 c 128,-1,26
 281 235 281 235 227 235 c 0,27,28
 194 235 194 235 164 246 c 128,-1,29
 134 257 134 257 111.5 273 c 128,-1,30
 89 289 89 289 76 304 c 1,31,-1
 100 366 l 1,32,33
 108 355 108 355 124.5 340.5 c 128,-1,34
 141 326 141 326 165.5 315.5 c 128,-1,35
 190 305 190 305 222 305 c 0,36,37
 262 305 262 305 282.5 322 c 128,-1,38
 303 339 303 339 303 369 c 0,39,40
 303 398 303 398 287 413.5 c 128,-1,41
 271 429 271 429 244 429 c 0,42,43
 209 429 209 429 180.5 407 c 128,-1,44
 152 385 152 385 135 343.5 c 128,-1,45
 118 302 118 302 118 242 c 2,46,-1
 118 234 l 2,47,48
 118 193 118 193 128.5 154.5 c 128,-1,49
 139 116 139 116 165.5 91.5 c 128,-1,50
 192 67 192 67 238 67 c 0,51,52
 277 67 277 67 302.5 81.5 c 128,-1,53
 328 96 328 96 341.5 123 c 128,-1,54
 355 150 355 150 358 185 c 1,55,-1
 436 185 l 1,56,57
 439 144 439 144 455 118 c 128,-1,58
 471 92 471 92 495 79.5 c 128,-1,59
 519 67 519 67 547 67 c 0,60,61
 602 67 602 67 628 99.5 c 128,-1,62
 654 132 654 132 654 193 c 0,63,64
 654 252 654 252 632 297 c 128,-1,65
 610 342 610 342 570 375.5 c 128,-1,66
 530 409 530 409 475 434 c 1,67,-1
 506 500 l 1,68,-1
 522 500 l 1,69,70
 590 469 590 469 638 423.5 c 128,-1,71
 686 378 686 378 711.5 321 c 128,-1,72
 737 264 737 264 737 198 c 0,73,74
 737 131 737 131 714.5 84 c 128,-1,75
 692 37 692 37 651.5 12.5 c 128,-1,76
 611 -12 611 -12 555 -12 c 0,0,1
282 624 m 1,77,-1
 275 478 l 1,78,-1
 199 478 l 1,79,-1
 192 624 l 1,80,-1
 282 624 l 1,77,-1
372 540 m 0,81,82
 372 572 372 572 388 595 c 128,-1,83
 404 618 404 618 435 637 c 1,84,-1
 434 619 l 1,85,86
 400 637 400 637 382 663.5 c 128,-1,87
 364 690 364 690 364 724 c 0,88,89
 364 751 364 751 374 771 c 128,-1,90
 384 791 384 791 402 805 c 0,91,92
 416 816 416 816 435 823.5 c 128,-1,93
 454 831 454 831 483.5 834.5 c 128,-1,94
 513 838 513 838 559 838 c 2,95,-1
 846 838 l 1,96,-1
 846 763 l 1,97,-1
 543 763 l 2,98,99
 509 763 509 763 494 761 c 128,-1,100
 479 759 479 759 470 754 c 0,101,102
 459 749 459 749 453 739.5 c 128,-1,103
 447 730 447 730 447 717 c 256,104,105
 447 704 447 704 452 694 c 128,-1,106
 457 684 457 684 468 678 c 0,107,108
 478 673 478 673 494.5 670.5 c 128,-1,109
 511 668 511 668 542 668 c 2,110,-1
 679 668 l 1,111,-1
 679 593 l 1,112,-1
 538 593 l 2,113,114
 510 593 510 593 494.5 589.5 c 128,-1,115
 479 586 479 586 471 580 c 0,116,117
 455 568 455 568 455 546 c 0,118,119
 455 534 455 534 459.5 525 c 128,-1,120
 464 516 464 516 471 511 c 0,121,122
 480 504 480 504 493.5 502 c 128,-1,123
 507 500 507 500 519 500 c 2,124,-1
 522 500 l 1,125,-1
 567 425 l 1,126,-1
 529 425 l 2,127,128
 482 425 482 425 446.5 437 c 128,-1,129
 411 449 411 449 391.5 474.5 c 128,-1,130
 372 500 372 500 372 540 c 0,81,82
EndSplineSet
Ligature2: "'haln' Halant Forms lookup 88 subtable" ttatelu viramatelu
EndChar

StartChar: tahalanttelu
Encoding: 65553 -1 120
Width: 778
GlyphClass: 2
Flags: W
AnchorPoint: "Anchor-4" 389 -24 basechar 0
AnchorPoint: "Anchor-0" 389 825 basechar 0
LayerCount: 2
Fore
SplineSet
394 -12 m 0,0,1
 273 -12 273 -12 193.5 20.5 c 128,-1,2
 114 53 114 53 75 109.5 c 128,-1,3
 36 166 36 166 36 237 c 0,4,5
 36 293 36 293 59.5 335.5 c 128,-1,6
 83 378 83 378 124 401.5 c 128,-1,7
 165 425 165 425 218 425 c 0,8,9
 260 425 260 425 290 409.5 c 128,-1,10
 320 394 320 394 336 366 c 128,-1,11
 352 338 352 338 352 301 c 0,12,13
 352 240 352 240 310.5 203.5 c 128,-1,14
 269 167 269 167 194 167 c 0,15,16
 172 167 172 167 152 171.5 c 128,-1,17
 132 176 132 176 115 183 c 128,-1,18
 98 190 98 190 83 199 c 1,19,-1
 90 270 l 1,20,21
 110 255 110 255 132.5 246 c 128,-1,22
 155 237 155 237 182 237 c 0,23,24
 231 237 231 237 251.5 255 c 128,-1,25
 272 273 272 273 272 301 c 0,26,27
 272 327 272 327 256.5 340.5 c 128,-1,28
 241 354 241 354 213 354 c 0,29,30
 183 354 183 354 159.5 340 c 128,-1,31
 136 326 136 326 122 301.5 c 128,-1,32
 108 277 108 277 108 246 c 2,33,-1
 108 241 l 2,34,35
 108 198 108 198 128.5 165.5 c 128,-1,36
 149 133 149 133 186 111 c 128,-1,37
 223 89 223 89 274.5 78 c 128,-1,38
 326 67 326 67 389 67 c 0,39,40
 472 67 472 67 526.5 84 c 128,-1,41
 581 101 581 101 612 128 c 128,-1,42
 643 155 643 155 655.5 186 c 128,-1,43
 668 217 668 217 668 246 c 2,44,-1
 668 290 l 1,45,46
 659 317 659 317 635 335.5 c 128,-1,47
 611 354 611 354 576 354 c 0,48,49
 551 354 551 354 530.5 339.5 c 128,-1,50
 510 325 510 325 510 293 c 0,51,52
 510 271 510 271 526 254 c 128,-1,53
 542 237 542 237 576 237 c 0,54,55
 602 237 602 237 621 246.5 c 128,-1,56
 640 256 640 256 651.5 273.5 c 128,-1,57
 663 291 663 291 668 314 c 1,58,-1
 684 224 l 1,59,60
 669 206 669 206 651.5 193 c 128,-1,61
 634 180 634 180 612.5 173.5 c 128,-1,62
 591 167 591 167 563 167 c 0,63,64
 525 167 525 167 495 182 c 128,-1,65
 465 197 465 197 448 225.5 c 128,-1,66
 431 254 431 254 431 293 c 0,67,68
 431 347 431 347 466 378.5 c 128,-1,69
 501 410 501 410 558 410 c 0,70,71
 569 410 569 410 580 408 c 128,-1,72
 591 406 591 406 602 403 c 128,-1,73
 613 400 613 400 621 397 c 1,74,-1
 605 388 l 1,75,76
 583 404 583 404 552.5 414.5 c 128,-1,77
 522 425 522 425 490.5 431 c 128,-1,78
 459 437 459 437 435 439 c 1,79,-1
 461 500 l 1,80,-1
 509 500 l 1,81,82
 564 483 564 483 607.5 460 c 128,-1,83
 651 437 651 437 681 406 c 128,-1,84
 711 375 711 375 727 335 c 128,-1,85
 743 295 743 295 743 245 c 0,86,87
 743 190 743 190 722.5 143 c 128,-1,88
 702 96 702 96 659.5 61.5 c 128,-1,89
 617 27 617 27 551 7.5 c 128,-1,90
 485 -12 485 -12 394 -12 c 0,0,1
299 540 m 0,91,92
 299 572 299 572 315 595 c 128,-1,93
 331 618 331 618 362 637 c 1,94,-1
 361 619 l 1,95,96
 327 637 327 637 309 663.5 c 128,-1,97
 291 690 291 690 291 724 c 0,98,99
 291 751 291 751 301 771 c 128,-1,100
 311 791 311 791 329 805 c 0,101,102
 343 816 343 816 362 823.5 c 128,-1,103
 381 831 381 831 410.5 834.5 c 128,-1,104
 440 838 440 838 486 838 c 2,105,-1
 773 838 l 1,106,-1
 773 763 l 1,107,-1
 470 763 l 2,108,109
 436 763 436 763 421 761 c 128,-1,110
 406 759 406 759 397 754 c 0,111,112
 386 749 386 749 380 739.5 c 128,-1,113
 374 730 374 730 374 717 c 256,114,115
 374 704 374 704 379 694 c 128,-1,116
 384 684 384 684 395 678 c 0,117,118
 405 673 405 673 421.5 670.5 c 128,-1,119
 438 668 438 668 469 668 c 2,120,-1
 606 668 l 1,121,-1
 606 593 l 1,122,-1
 465 593 l 2,123,124
 437 593 437 593 421.5 589.5 c 128,-1,125
 406 586 406 586 398 580 c 0,126,127
 382 568 382 568 382 546 c 0,128,129
 382 534 382 534 386.5 525 c 128,-1,130
 391 516 391 516 398 511 c 0,131,132
 407 504 407 504 421 502 c 128,-1,133
 435 500 435 500 457 500 c 2,134,-1
 477 500 l 1,135,-1
 553 425 l 1,136,-1
 466 425 l 2,137,138
 413 425 413 425 375.5 437 c 128,-1,139
 338 449 338 449 318.5 474.5 c 128,-1,140
 299 500 299 500 299 540 c 0,91,92
EndSplineSet
Ligature2: "'haln' Halant Forms lookup 88 subtable" tatelu viramatelu
EndChar

StartChar: nahalanttelu
Encoding: 65557 -1 124
Width: 702
GlyphClass: 2
Flags: W
AnchorPoint: "Anchor-4" 351 -24 basechar 0
AnchorPoint: "Anchor-0" 351 825 basechar 0
LayerCount: 2
Fore
SplineSet
472 -12 m 0,0,1
 425 -12 425 -12 390 3.5 c 128,-1,2
 355 19 355 19 324 51.5 c 128,-1,3
 293 84 293 84 256 133 c 0,4,5
 235 162 235 162 220.5 178.5 c 128,-1,6
 206 195 206 195 193.5 202 c 128,-1,7
 181 209 181 209 164 209 c 0,8,9
 141 209 141 209 126 190.5 c 128,-1,10
 111 172 111 172 111 143 c 0,11,12
 111 108 111 108 123 77 c 128,-1,13
 135 46 135 46 159 14 c 1,14,-1
 78 -13 l 1,15,16
 56 22 56 22 42.5 59.5 c 128,-1,17
 29 97 29 97 29 143 c 0,18,19
 29 184 29 184 46.5 216 c 128,-1,20
 64 248 64 248 94.5 267 c 128,-1,21
 125 286 125 286 165 286 c 0,22,23
 204 286 204 286 230.5 272.5 c 128,-1,24
 257 259 257 259 279.5 234.5 c 128,-1,25
 302 210 302 210 328 175 c 0,26,27
 358 136 358 136 380 112.5 c 128,-1,28
 402 89 402 89 425 78 c 128,-1,29
 448 67 448 67 480 67 c 0,30,31
 531 67 531 67 557.5 99 c 128,-1,32
 584 131 584 131 584 192 c 0,33,34
 584 249 584 249 562.5 291.5 c 128,-1,35
 541 334 541 334 503.5 362.5 c 128,-1,36
 466 391 466 391 417.5 407 c 128,-1,37
 369 423 369 423 315 426 c 1,38,-1
 337 500 l 1,39,-1
 366 500 l 1,40,41
 454 486 454 486 521.5 446 c 128,-1,42
 589 406 589 406 628 343 c 128,-1,43
 667 280 667 280 667 194 c 0,44,45
 667 132 667 132 645 85.5 c 128,-1,46
 623 39 623 39 580 13.5 c 128,-1,47
 537 -12 537 -12 472 -12 c 0,0,1
174 540 m 0,48,49
 174 572 174 572 190 595 c 128,-1,50
 206 618 206 618 237 637 c 1,51,-1
 236 619 l 1,52,53
 202 637 202 637 184 663.5 c 128,-1,54
 166 690 166 690 166 724 c 0,55,56
 166 751 166 751 176 771 c 128,-1,57
 186 791 186 791 204 805 c 0,58,59
 218 816 218 816 237 823.5 c 128,-1,60
 256 831 256 831 285.5 834.5 c 128,-1,61
 315 838 315 838 361 838 c 2,62,-1
 648 838 l 1,63,-1
 648 763 l 1,64,-1
 345 763 l 2,65,66
 311 763 311 763 296 761 c 128,-1,67
 281 759 281 759 272 754 c 0,68,69
 261 749 261 749 255 739.5 c 128,-1,70
 249 730 249 730 249 717 c 256,71,72
 249 704 249 704 254 694 c 128,-1,73
 259 684 259 684 270 678 c 0,74,75
 280 673 280 673 296.5 670.5 c 128,-1,76
 313 668 313 668 344 668 c 2,77,-1
 481 668 l 1,78,-1
 481 593 l 1,79,-1
 340 593 l 2,80,81
 312 593 312 593 296.5 589.5 c 128,-1,82
 281 586 281 586 273 580 c 0,83,84
 257 568 257 568 257 546 c 0,85,86
 257 534 257 534 261.5 525 c 128,-1,87
 266 516 266 516 273 511 c 0,88,89
 282 504 282 504 296 502 c 128,-1,90
 310 500 310 500 332 500 c 2,91,-1
 352 500 l 1,92,-1
 390 425 l 1,93,-1
 331 425 l 2,94,95
 284 425 284 425 248.5 437 c 128,-1,96
 213 449 213 449 193.5 474.5 c 128,-1,97
 174 500 174 500 174 540 c 0,48,49
EndSplineSet
Ligature2: "'haln' Halant Forms lookup 88 subtable" natelu viramatelu
EndChar

StartChar: bahalanttelu
Encoding: 65560 -1 127
Width: 750
GlyphClass: 2
Flags: W
AnchorPoint: "Anchor-4" 375 -24 basechar 0
AnchorPoint: "Anchor-0" 375 825 basechar 0
LayerCount: 2
Fore
SplineSet
533 -12 m 0,0,1
 496 -12 496 -12 466 -2.5 c 128,-1,2
 436 7 436 7 412 29 c 128,-1,3
 388 51 388 51 365 90 c 1,4,-1
 386 90 l 1,5,6
 360 49 360 49 333 27 c 128,-1,7
 306 5 306 5 275 -3.5 c 128,-1,8
 244 -12 244 -12 205 -12 c 0,9,10
 150 -12 150 -12 113.5 7.5 c 128,-1,11
 77 27 77 27 59 59.5 c 128,-1,12
 41 92 41 92 41 130 c 0,13,14
 41 171 41 171 57.5 200 c 128,-1,15
 74 229 74 229 107 250.5 c 128,-1,16
 140 272 140 272 189 289 c 0,17,18
 230 304 230 304 254 321 c 128,-1,19
 278 338 278 338 278 371 c 0,20,21
 278 387 278 387 271 399.5 c 128,-1,22
 264 412 264 412 247.5 419.5 c 128,-1,23
 231 427 231 427 203 427 c 0,24,25
 160 427 160 427 139 410.5 c 128,-1,26
 118 394 118 394 118 365 c 0,27,28
 118 352 118 352 121.5 341 c 128,-1,29
 125 330 125 330 128 323 c 1,30,-1
 53 302 l 1,31,32
 45 317 45 317 40.5 335.5 c 128,-1,33
 36 354 36 354 36 375 c 0,34,35
 36 407 36 407 53 435.5 c 128,-1,36
 70 464 70 464 107 482 c 128,-1,37
 144 500 144 500 203 500 c 0,38,39
 263 500 263 500 297 480 c 128,-1,40
 331 460 331 460 345.5 430 c 128,-1,41
 360 400 360 400 360 370 c 0,42,43
 360 332 360 332 345 305.5 c 128,-1,44
 330 279 330 279 300.5 260 c 128,-1,45
 271 241 271 241 227 225 c 0,46,47
 174 205 174 205 148.5 184.5 c 128,-1,48
 123 164 123 164 123 131 c 0,49,50
 123 102 123 102 143.5 84.5 c 128,-1,51
 164 67 164 67 207 67 c 0,52,53
 249 67 249 67 276.5 81.5 c 128,-1,54
 304 96 304 96 318.5 123 c 128,-1,55
 333 150 333 150 336 185 c 1,56,-1
 414 185 l 1,57,58
 417 144 417 144 433 118 c 128,-1,59
 449 92 449 92 473 79.5 c 128,-1,60
 497 67 497 67 525 67 c 0,61,62
 580 67 580 67 606 99 c 128,-1,63
 632 131 632 131 632 193 c 0,64,65
 632 252 632 252 609.5 296.5 c 128,-1,66
 587 341 587 341 547 375 c 128,-1,67
 507 409 507 409 453 434 c 1,68,-1
 479 500 l 1,69,-1
 500 500 l 1,70,71
 567 469 567 469 615 423.5 c 128,-1,72
 663 378 663 378 689 321 c 128,-1,73
 715 264 715 264 715 198 c 0,74,75
 715 131 715 131 692.5 84 c 128,-1,76
 670 37 670 37 629.5 12.5 c 128,-1,77
 589 -12 589 -12 533 -12 c 0,0,1
337 540 m 0,78,79
 337 572 337 572 353 595 c 128,-1,80
 369 618 369 618 400 637 c 1,81,-1
 399 619 l 1,82,83
 365 637 365 637 347 663.5 c 128,-1,84
 329 690 329 690 329 724 c 0,85,86
 329 751 329 751 339 771 c 128,-1,87
 349 791 349 791 367 805 c 0,88,89
 381 816 381 816 400 823.5 c 128,-1,90
 419 831 419 831 448.5 834.5 c 128,-1,91
 478 838 478 838 524 838 c 2,92,-1
 811 838 l 1,93,-1
 811 763 l 1,94,-1
 508 763 l 2,95,96
 474 763 474 763 459 761 c 128,-1,97
 444 759 444 759 435 754 c 0,98,99
 424 749 424 749 418 739.5 c 128,-1,100
 412 730 412 730 412 717 c 256,101,102
 412 704 412 704 417 694 c 128,-1,103
 422 684 422 684 433 678 c 0,104,105
 443 673 443 673 459.5 670.5 c 128,-1,106
 476 668 476 668 507 668 c 2,107,-1
 644 668 l 1,108,-1
 644 593 l 1,109,-1
 503 593 l 2,110,111
 475 593 475 593 459.5 589.5 c 128,-1,112
 444 586 444 586 436 580 c 0,113,114
 420 568 420 568 420 546 c 0,115,116
 420 534 420 534 424.5 525 c 128,-1,117
 429 516 429 516 436 511 c 0,118,119
 445 504 445 504 459 502 c 128,-1,120
 473 500 473 500 495 500 c 2,121,-1
 498 500 l 1,122,-1
 532 425 l 1,123,-1
 494 425 l 2,124,125
 447 425 447 425 411.5 437 c 128,-1,126
 376 449 376 449 356.5 474.5 c 128,-1,127
 337 500 337 500 337 540 c 0,78,79
EndSplineSet
Ligature2: "'haln' Halant Forms lookup 88 subtable" batelu viramatelu
EndChar

StartChar: bhahalanttelu
Encoding: 65561 -1 128
Width: 750
GlyphClass: 2
Flags: W
AnchorPoint: "Anchor-4" 375 -24 basechar 0
AnchorPoint: "Anchor-0" 375 825 basechar 0
LayerCount: 2
Fore
SplineSet
533 -12 m 0,0,1
 496 -12 496 -12 466 -2.5 c 128,-1,2
 436 7 436 7 412 29 c 128,-1,3
 388 51 388 51 365 90 c 1,4,-1
 386 90 l 1,5,6
 360 49 360 49 333 27 c 128,-1,7
 306 5 306 5 275 -3.5 c 128,-1,8
 244 -12 244 -12 205 -12 c 0,9,10
 150 -12 150 -12 113.5 7.5 c 128,-1,11
 77 27 77 27 59 59.5 c 128,-1,12
 41 92 41 92 41 130 c 0,13,14
 41 171 41 171 57.5 200 c 128,-1,15
 74 229 74 229 107 250.5 c 128,-1,16
 140 272 140 272 189 289 c 0,17,18
 230 304 230 304 254 321 c 128,-1,19
 278 338 278 338 278 371 c 0,20,21
 278 387 278 387 271 399.5 c 128,-1,22
 264 412 264 412 247.5 419.5 c 128,-1,23
 231 427 231 427 203 427 c 0,24,25
 160 427 160 427 139 410.5 c 128,-1,26
 118 394 118 394 118 365 c 0,27,28
 118 352 118 352 121.5 341 c 128,-1,29
 125 330 125 330 128 323 c 1,30,-1
 53 302 l 1,31,32
 45 317 45 317 40.5 335.5 c 128,-1,33
 36 354 36 354 36 375 c 0,34,35
 36 407 36 407 53 435.5 c 128,-1,36
 70 464 70 464 107 482 c 128,-1,37
 144 500 144 500 203 500 c 0,38,39
 263 500 263 500 297 480 c 128,-1,40
 331 460 331 460 345.5 430 c 128,-1,41
 360 400 360 400 360 370 c 0,42,43
 360 332 360 332 345 305.5 c 128,-1,44
 330 279 330 279 300.5 260 c 128,-1,45
 271 241 271 241 227 225 c 0,46,47
 174 205 174 205 148.5 184.5 c 128,-1,48
 123 164 123 164 123 131 c 0,49,50
 123 102 123 102 143.5 84.5 c 128,-1,51
 164 67 164 67 207 67 c 0,52,53
 249 67 249 67 276.5 81.5 c 128,-1,54
 304 96 304 96 318.5 123 c 128,-1,55
 333 150 333 150 336 185 c 1,56,-1
 414 185 l 1,57,58
 417 144 417 144 433 118 c 128,-1,59
 449 92 449 92 473 79.5 c 128,-1,60
 497 67 497 67 525 67 c 0,61,62
 580 67 580 67 606 99 c 128,-1,63
 632 131 632 131 632 193 c 0,64,65
 632 252 632 252 609.5 296.5 c 128,-1,66
 587 341 587 341 547 375 c 128,-1,67
 507 409 507 409 453 434 c 1,68,-1
 479 500 l 1,69,-1
 500 500 l 1,70,71
 567 469 567 469 615 423.5 c 128,-1,72
 663 378 663 378 689 321 c 128,-1,73
 715 264 715 264 715 198 c 0,74,75
 715 131 715 131 692.5 84 c 128,-1,76
 670 37 670 37 629.5 12.5 c 128,-1,77
 589 -12 589 -12 533 -12 c 0,0,1
329 -125 m 1,78,-1
 336 16 l 1,79,-1
 411 16 l 1,80,-1
 419 -125 l 1,81,-1
 329 -125 l 1,78,-1
337 540 m 0,82,83
 337 572 337 572 353 595 c 128,-1,84
 369 618 369 618 400 637 c 1,85,-1
 399 619 l 1,86,87
 365 637 365 637 347 663.5 c 128,-1,88
 329 690 329 690 329 724 c 0,89,90
 329 751 329 751 339 771 c 128,-1,91
 349 791 349 791 367 805 c 0,92,93
 381 816 381 816 400 823.5 c 128,-1,94
 419 831 419 831 448.5 834.5 c 128,-1,95
 478 838 478 838 524 838 c 2,96,-1
 811 838 l 1,97,-1
 811 763 l 1,98,-1
 508 763 l 2,99,100
 474 763 474 763 459 761 c 128,-1,101
 444 759 444 759 435 754 c 0,102,103
 424 749 424 749 418 739.5 c 128,-1,104
 412 730 412 730 412 717 c 256,105,106
 412 704 412 704 417 694 c 128,-1,107
 422 684 422 684 433 678 c 0,108,109
 443 673 443 673 459.5 670.5 c 128,-1,110
 476 668 476 668 507 668 c 2,111,-1
 644 668 l 1,112,-1
 644 593 l 1,113,-1
 503 593 l 2,114,115
 475 593 475 593 459.5 589.5 c 128,-1,116
 444 586 444 586 436 580 c 0,117,118
 420 568 420 568 420 546 c 0,119,120
 420 534 420 534 424.5 525 c 128,-1,121
 429 516 429 516 436 511 c 0,122,123
 445 504 445 504 459 502 c 128,-1,124
 473 500 473 500 495 500 c 2,125,-1
 498 500 l 1,126,-1
 532 425 l 1,127,-1
 494 425 l 2,128,129
 447 425 447 425 411.5 437 c 128,-1,130
 376 449 376 449 356.5 474.5 c 128,-1,131
 337 500 337 500 337 540 c 0,82,83
EndSplineSet
Ligature2: "'haln' Halant Forms lookup 88 subtable" bhatelu viramatelu
EndChar

StartChar: yahalanttelu
Encoding: 65563 -1 130
Width: 1286
GlyphClass: 2
Flags: W
AnchorPoint: "Anchor-4" 643 -24 basechar 0
AnchorPoint: "Anchor-0" 643 825 basechar 0
LayerCount: 2
Fore
SplineSet
35 236 m 0,0,1
 35 314 35 314 68 373.5 c 128,-1,2
 101 433 101 433 159.5 466.5 c 128,-1,3
 218 500 218 500 296 500 c 0,4,5
 375 500 375 500 433.5 467.5 c 128,-1,6
 492 435 492 435 525 376 c 128,-1,7
 558 317 558 317 558 237 c 0,8,9
 558 163 558 163 526 106.5 c 128,-1,10
 494 50 494 50 435 19 c 128,-1,11
 376 -12 376 -12 296 -12 c 0,12,13
 217 -12 217 -12 158.5 19 c 128,-1,14
 100 50 100 50 67.5 105.5 c 128,-1,15
 35 161 35 161 35 236 c 0,0,1
118 245 m 0,16,17
 118 167 118 167 163 117 c 128,-1,18
 208 67 208 67 296 67 c 0,19,20
 356 67 356 67 395.5 89 c 128,-1,21
 435 111 435 111 455 150.5 c 128,-1,22
 475 190 475 190 475 240 c 256,23,24
 475 290 475 290 455.5 331 c 128,-1,25
 436 372 436 372 396.5 396.5 c 128,-1,26
 357 421 357 421 296 421 c 256,27,28
 235 421 235 421 195.5 396.5 c 128,-1,29
 156 372 156 372 137 332 c 128,-1,30
 118 292 118 292 118 245 c 0,16,17
709 -12 m 0,31,32
 643 -12 643 -12 592 22 c 128,-1,33
 541 56 541 56 502 111 c 1,34,-1
 542 176 l 1,35,36
 570 139 570 139 597.5 115 c 128,-1,37
 625 91 625 91 654.5 79 c 128,-1,38
 684 67 684 67 716 67 c 0,39,40
 767 67 767 67 794 99.5 c 128,-1,41
 821 132 821 132 821 193 c 0,42,43
 821 252 821 252 798 297.5 c 128,-1,44
 775 343 775 343 733 377 c 128,-1,45
 691 411 691 411 633 435 c 1,46,-1
 658 500 l 1,47,-1
 689 500 l 1,48,49
 756 469 756 469 804 423.5 c 128,-1,50
 852 378 852 378 878 321.5 c 128,-1,51
 904 265 904 265 904 199 c 0,52,53
 904 99 904 99 854 43.5 c 128,-1,54
 804 -12 804 -12 709 -12 c 0,31,32
1056 -12 m 0,55,56
 989 -12 989 -12 938.5 22 c 128,-1,57
 888 56 888 56 849 111 c 1,58,-1
 889 176 l 1,59,60
 917 139 917 139 944.5 115 c 128,-1,61
 972 91 972 91 1001.5 79 c 128,-1,62
 1031 67 1031 67 1063 67 c 0,63,64
 1115 67 1115 67 1141.5 100 c 128,-1,65
 1168 133 1168 133 1168 194 c 0,66,67
 1168 252 1168 252 1144.5 295 c 128,-1,68
 1121 338 1121 338 1081.5 369.5 c 128,-1,69
 1042 401 1042 401 992 423 c 1,70,-1
 1029 500 l 1,71,72
 1091 474 1091 474 1141 430.5 c 128,-1,73
 1191 387 1191 387 1221 329 c 128,-1,74
 1251 271 1251 271 1251 200 c 0,75,76
 1251 101 1251 101 1201 44.5 c 128,-1,77
 1151 -12 1151 -12 1056 -12 c 0,55,56
515 540 m 0,78,79
 515 572 515 572 531 595 c 128,-1,80
 547 618 547 618 578 637 c 1,81,-1
 577 619 l 1,82,83
 543 637 543 637 525 663.5 c 128,-1,84
 507 690 507 690 507 724 c 0,85,86
 507 751 507 751 517 771 c 128,-1,87
 527 791 527 791 545 805 c 0,88,89
 559 816 559 816 578 823.5 c 128,-1,90
 597 831 597 831 626.5 834.5 c 128,-1,91
 656 838 656 838 702 838 c 2,92,-1
 989 838 l 1,93,-1
 989 763 l 1,94,-1
 686 763 l 2,95,96
 652 763 652 763 637 761 c 128,-1,97
 622 759 622 759 613 754 c 0,98,99
 602 749 602 749 596 739.5 c 128,-1,100
 590 730 590 730 590 717 c 256,101,102
 590 704 590 704 595 694 c 128,-1,103
 600 684 600 684 611 678 c 0,104,105
 621 673 621 673 637.5 670.5 c 128,-1,106
 654 668 654 668 685 668 c 2,107,-1
 822 668 l 1,108,-1
 822 593 l 1,109,-1
 681 593 l 2,110,111
 653 593 653 593 637.5 589.5 c 128,-1,112
 622 586 622 586 614 580 c 0,113,114
 598 568 598 568 598 546 c 0,115,116
 598 534 598 534 602.5 525 c 128,-1,117
 607 516 607 516 614 511 c 0,118,119
 623 504 623 504 637 502 c 128,-1,120
 651 500 651 500 673 500 c 2,121,-1
 679 500 l 1,122,-1
 710 425 l 1,123,-1
 672 425 l 2,124,125
 625 425 625 425 589.5 437 c 128,-1,126
 554 449 554 449 534.5 474.5 c 128,-1,127
 515 500 515 500 515 540 c 0,78,79
EndSplineSet
Ligature2: "'haln' Halant Forms lookup 88 subtable" yatelu viramatelu
EndChar

StartChar: lahalanttelu
Encoding: 65566 -1 133
Width: 709
GlyphClass: 2
Flags: W
AnchorPoint: "Anchor-4" 354 -24 basechar 0
AnchorPoint: "Anchor-0" 354 825 basechar 0
LayerCount: 2
Fore
SplineSet
356 -12 m 0,0,1
 251 -12 251 -12 179.5 24 c 128,-1,2
 108 60 108 60 71.5 123.5 c 128,-1,3
 35 187 35 187 35 269 c 0,4,5
 35 343 35 343 60.5 394.5 c 128,-1,6
 86 446 86 446 129 473 c 128,-1,7
 172 500 172 500 225 500 c 0,8,9
 265 500 265 500 294.5 484.5 c 128,-1,10
 324 469 324 469 340.5 440.5 c 128,-1,11
 357 412 357 412 357 373 c 0,12,13
 357 333 357 333 340 301.5 c 128,-1,14
 323 270 323 270 288.5 252.5 c 128,-1,15
 254 235 254 235 201 235 c 0,16,17
 168 235 168 235 140 246 c 128,-1,18
 112 257 112 257 91.5 273 c 128,-1,19
 71 289 71 289 58 304 c 1,20,-1
 81 366 l 1,21,22
 89 355 89 355 103.5 340.5 c 128,-1,23
 118 326 118 326 141 315.5 c 128,-1,24
 164 305 164 305 196 305 c 0,25,26
 237 305 237 305 257.5 322 c 128,-1,27
 278 339 278 339 278 369 c 0,28,29
 278 398 278 398 262 413.5 c 128,-1,30
 246 429 246 429 220 429 c 0,31,32
 172 429 172 429 143 390 c 128,-1,33
 114 351 114 351 114 284 c 2,34,-1
 114 266 l 2,35,36
 114 226 114 226 128.5 190.5 c 128,-1,37
 143 155 143 155 172 127 c 128,-1,38
 201 99 201 99 246.5 83 c 128,-1,39
 292 67 292 67 353 67 c 0,40,41
 461 67 461 67 526 111.5 c 128,-1,42
 591 156 591 156 591 253 c 0,43,44
 591 318 591 318 557 366 c 128,-1,45
 523 414 523 414 476 436 c 1,46,-1
 508 500 l 1,47,-1
 537 500 l 1,48,49
 585 465 585 465 615 426 c 128,-1,50
 645 387 645 387 659.5 343 c 128,-1,51
 674 299 674 299 674 250 c 0,52,53
 674 177 674 177 642 117.5 c 128,-1,54
 610 58 610 58 540 23 c 128,-1,55
 470 -12 470 -12 356 -12 c 0,0,1
340 540 m 0,56,57
 340 572 340 572 356 595 c 128,-1,58
 372 618 372 618 403 637 c 1,59,-1
 402 619 l 1,60,61
 368 637 368 637 350 663.5 c 128,-1,62
 332 690 332 690 332 724 c 0,63,64
 332 751 332 751 342 771 c 128,-1,65
 352 791 352 791 370 805 c 0,66,67
 384 816 384 816 403 823.5 c 128,-1,68
 422 831 422 831 451.5 834.5 c 128,-1,69
 481 838 481 838 527 838 c 2,70,-1
 814 838 l 1,71,-1
 814 763 l 1,72,-1
 511 763 l 2,73,74
 477 763 477 763 462 761 c 128,-1,75
 447 759 447 759 438 754 c 0,76,77
 427 749 427 749 421 739.5 c 128,-1,78
 415 730 415 730 415 717 c 256,79,80
 415 704 415 704 420 694 c 128,-1,81
 425 684 425 684 436 678 c 0,82,83
 446 673 446 673 462.5 670.5 c 128,-1,84
 479 668 479 668 510 668 c 2,85,-1
 647 668 l 1,86,-1
 647 593 l 1,87,-1
 506 593 l 2,88,89
 478 593 478 593 462.5 589.5 c 128,-1,90
 447 586 447 586 439 580 c 0,91,92
 423 568 423 568 423 546 c 0,93,94
 423 534 423 534 427.5 525 c 128,-1,95
 432 516 432 516 439 511 c 0,96,97
 448 504 448 504 462 502 c 128,-1,98
 476 500 476 500 498 500 c 2,99,-1
 523 500 l 1,100,-1
 535 425 l 1,101,-1
 497 425 l 2,102,103
 450 425 450 425 414.5 437 c 128,-1,104
 379 449 379 449 359.5 474.5 c 128,-1,105
 340 500 340 500 340 540 c 0,56,57
EndSplineSet
Ligature2: "'haln' Halant Forms lookup 88 subtable" latelu viramatelu
EndChar

